<svg xmlns="http://www.w3.org/2000/svg" width="111" height="91" viewBox="0 0 111 91" fill="none"><g clip-path="url(#a)" fill="#87ac8a"><path d="M50.82 66.2h8.41a13 13 0 0 1-4.13-1.5c-1.35.7-2.79 1.2-4.28 1.5m3.78-2.35v-46.8c-2.7-1.75-6.98-1.92-8.16-1.94v.85c1.5.06 2.56.25 3.13.56.96.5 1.44 1.49 1.44 2.96l-.19 41.92c0 1.48-.51 2.49-1.52 3.01-.62.31-1.64.48-3.06.52v.75c4.53.02 7.53-1.4 8.35-1.84zm.89 0v-46.8c2.7-1.75 6.98-1.92 8.16-1.94v.85c-1.5.06-2.56.25-3.13.56-.98.5-1.46 1.49-1.44 2.96l.18 41.94c0 1.48.51 2.49 1.52 3.01.62.31 1.64.48 3.06.52v.75c-4.51 0-7.53-1.41-8.34-1.85zm3.42-49.17h-7.72c1.33.29 2.61.8 3.78 1.51 1.24-.68 2.57-1.19 3.95-1.51zM35.63 56.76h9.45c-1.64-.3-3.21-.9-4.64-1.75-1.51.82-3.13 1.41-4.81 1.75m4.33-31.41c-2.47-1.58-6.15-1.85-7.68-1.9v.73c1.48.15 2.48.37 2.98.65.83.5 1.25 1.46 1.25 2.87v24.27c0 1.46-.46 2.45-1.39 2.96-.55.31-1.5.5-2.84.56v.73c2.68-.12 5.3-.83 7.68-2.07V25.34zm4.89-2.43h-8.63c1.5.28 2.93.82 4.23 1.6 1.38-.74 2.86-1.28 4.39-1.6z"/><path d="M44.77 38.11V27.72c0-1.44.47-2.42 1.42-2.93.57-.31 1.59-.5 3.06-.58v-.77c-4.49 0-7.49 1.46-8.31 1.93v28.8c2.66 1.73 6.64 2.04 8.31 2.09v-.76c-1.39-.05-2.38-.22-2.96-.51-1.01-.52-1.51-1.53-1.51-3.01V40.43h5.23v-2.32zm29.69 18.65h-9.45c1.64-.3 3.21-.9 4.64-1.75 1.51.82 3.13 1.41 4.81 1.75m-4.32-31.41c2.47-1.58 6.15-1.85 7.68-1.9v.73c-1.48.15-2.48.37-2.99.65-.83.5-1.25 1.46-1.25 2.87v24.27c0 1.46.46 2.45 1.4 2.96.55.31 1.5.5 2.84.56v.73c-2.68-.12-5.3-.83-7.68-2.07V25.34zm-4.9-2.43h8.61c-1.49.28-2.92.82-4.22 1.6-1.38-.74-2.86-1.28-4.39-1.6m.09 15.19V27.72c0-1.44-.47-2.42-1.42-2.93-.57-.31-1.59-.5-3.06-.58v-.77c4.49 0 7.49 1.46 8.31 1.93v28.8c-2.66 1.73-6.64 2.04-8.31 2.09v-.76c1.39-.05 2.37-.22 2.96-.51 1.01-.52 1.52-1.53 1.52-3.01V40.43H60.1v-2.32zm-8.99-25.68h-4.91c-2.19 0-2.74-.02-2.93-.25a.47.47 0 0 1-.08-.38c.04-.46 0-2.08 0-2.1-.3-2.59-1.15-4.72-2.54-6.31l-.11-.12a.517.517 0 0 1 .08-.71c.01 0 .02-.02.03-.02.02-.01.03-.02.05-.02 1.46-.2 2.56.04 3.21.71.33.36.53.82.57 1.31.91-.33 1.92.12 2.27 1.02.34.75.29 1.66-.12 2.11a.82.82 0 0 0-.25.86c.24.4.69.64 1.16.63.24 0 .39-.04.48-.15.24-.34-.12-1.34-.5-2.33-.66-1.72.26-3.35.87-4.45l.04-.06c.6-1.06 1.27-2.08 1.28-2.09a.13.13 0 0 1 .13-.05c.02 0 .03.01.04.02.01 0 .02.02.03.03 0 0 .67 1.03 1.28 2.09l.04.06c.61 1.1 1.54 2.71.87 4.43-.39.99-.73 1.98-.5 2.33.08.12.23.16.48.15.47.02.91-.22 1.15-.63.1-.31 0-.65-.24-.86-.4-.45-.45-1.35-.12-2.11.35-.9 1.36-1.36 2.27-1.02.05-.49.26-.96.61-1.31.65-.67 1.74-.91 3.21-.71.02 0 .04.01.06.02.23.16.29.48.13.71 0 0-.01.02-.02.02l-.11.12C62.86 4.96 62 7.09 61.69 9.7c0 0-.06 1.62 0 2.09.03.13 0 .27-.08.38-.21.23-.73.24-2.93.25l-2.34.02zM8.53 78.37v1.59c0 .37.02.73.05 1.1.01.16.05.31.11.46.08.13.21.22.37.22l.3.04h.25c.06 0 .1.03.1.07s-.06.1-.2.1H6.79c-.13 0-.2-.03-.2-.1 0-.05.03-.07.1-.07h.19l.18-.04c.12-.02.22-.11.25-.22.05-.15.09-.3.11-.46.04-.36.06-.73.05-1.1v-2.88s-.02-.07-.06-.07H2.19s-.07.02-.07.06v2.9c0 .37.02.73.05 1.1.01.16.05.31.11.46.08.13.21.22.37.22.09 0 .19.03.3.04h.26c.06 0 .1.03.1.07s-.06.1-.2.1H1.42l-.32-.03H.38c-.13 0-.2-.03-.2-.1 0-.05.03-.07.1-.07h.18l.19-.04c.12-.02.22-.11.25-.22.05-.15.09-.3.11-.46.04-.36.06-.73.05-1.1v-6.4c0-.17-.05-.33-.12-.48a.6.6 0 0 0-.4-.22.7.7 0 0 0-.21-.03H.1c-.06 0-.1-.03-.1-.08s.06-.08.2-.1h2.59c.13 0 .2.03.2.1s-.03.09-.1.08h-.11c-.06 0-.12.02-.18.03a.5.5 0 0 0-.34.22c-.07.15-.11.32-.12.49v2.93s.02.07.06.07h5.23s.07-.02.07-.06v-2.94c0-.17-.05-.33-.12-.48a.6.6 0 0 0-.4-.22.7.7 0 0 0-.21-.03h-.22c-.06 0-.1-.03-.1-.08s.06-.08.2-.1h2.59c.13 0 .2.03.2.1s-.03.09-.1.08h-.13c-.06 0-.12.02-.18.03a.5.5 0 0 0-.34.22c-.07.15-.11.32-.12.49 0 .1 0 .21-.02.31s0 .26 0 .45v4.08h-.02z"/><path d="M13.71 72.93c.04-.13.1-.27.16-.39.03-.06.07-.09.11-.09s.08.03.11.08c.06.12.12.24.16.37.03.08.11.28.23.58s.26.69.43 1.14.37.94.56 1.46l.61 1.6c.2.52.39 1.02.58 1.48.19.47.34.86.46 1.17.09.23.19.45.31.66.08.15.18.28.29.41q.105.12.24.21c.07.04.14.06.22.09.09.03.17.05.26.06h.23c.08 0 .12.03.12.07s-.02.07-.07.08c-.06.02-.11.02-.17.02h-1.3l-.64-.02-.27-.02c-.06 0-.1-.02-.1-.06s.03-.07.08-.09c.04-.02.08-.06.1-.1.02-.08.02-.16-.03-.23l-1.14-3.03s-.06-.08-.11-.07h-2.66c-.06 0-.11.04-.12.1l-.73 2.19c-.1.26-.16.54-.17.83 0 .11.05.22.15.27.1.06.2.09.31.09h.12c.08 0 .12.03.12.07s-.06.1-.19.1H9.61c-.15 0-.23-.03-.23-.1s.04-.07.11-.07h.35c.26-.02.5-.16.65-.37.16-.24.29-.51.39-.78l2.8-7.7zm1.28 4.94c.05 0 .06-.03.05-.09l-1.17-3.33c-.06-.18-.13-.18-.19 0l-1.1 3.33c-.02.06 0 .09.04.09z"/><path d="M20.62 78.37v1.59c0 .37.02.73.05 1.1.01.16.05.31.11.46.08.13.21.22.37.22l.3.04h.25c.06 0 .1.03.1.07s-.06.1-.2.1h-1.35l-.15-.03h-1.19c-.13 0-.2-.03-.2-.1 0-.05.03-.07.1-.07H19l.18-.04c.12-.02.22-.11.25-.22.05-.15.09-.3.11-.46.04-.36.06-.73.05-1.1v-6.4c-.03-.4-.16-.63-.42-.69-.07-.02-.14-.03-.21-.04h-.17c-.06 0-.1-.03-.1-.08s.06-.08.2-.1h2.45c.13 0 .2.03.2.1s-.03.09-.1.08h-.13c-.06 0-.12.02-.18.03a.5.5 0 0 0-.34.22c-.07.15-.11.32-.12.49v4.83h-.06zm2.92-2.17v-2.67q0-.255-.12-.48a.6.6 0 0 0-.41-.22.7.7 0 0 0-.2-.03h-.22c-.06 0-.1-.03-.1-.08s.06-.08.2-.1h2.85c.39 0 .79.03 1.18.1.4.06.77.21 1.1.45.09.08.18.16.26.24.1.11.2.23.28.37.07.15.13.3.17.46.06.19.09.39.09.59 0 .48-.12.96-.33 1.39-.29.56-.69 1.05-1.16 1.46l1.4 1.79q.63.795 1.17 1.38c.25.29.55.53.89.7.2.09.4.15.62.2.12 0 .22.03.3.03h.19c.04 0 .11.03.11.07s-.02.07-.06.08c-.08.02-.16.02-.24.02h-.87c-.27 0-.54-.01-.8-.05a1.4 1.4 0 0 1-.52-.19c-.3-.17-.56-.39-.77-.66-.24-.3-.54-.68-.9-1.15-.13-.17-.26-.37-.39-.53l-.37-.52-.33-.45q-.15-.195-.24-.33a.24.24 0 0 0-.16-.07l-1.52-.03c-.06 0-.09.03-.09.1v1.88c0 .37.02.73.05 1.1.01.16.05.31.11.46.08.13.21.22.37.22.09 0 .19.03.3.04h.26c.06 0 .1.03.1.07s-.06.1-.2.1h-2.67c-.13 0-.2-.03-.2-.1 0-.05.03-.07.1-.07h.19l.18-.04c.12-.02.22-.11.26-.22.05-.15.09-.3.1-.46.04-.36.06-.73.05-1.1v-3.76zm.98 1.07c0 .06.03.12.09.15.16.08.33.13.51.14.26.04.52.05.78.05.16 0 .31-.02.47-.04.17-.03.32-.1.46-.19.24-.18.43-.43.54-.71.16-.38.23-.78.22-1.19.04-.66-.16-1.31-.57-1.83-.4-.44-.97-.69-1.57-.65-.19 0-.37 0-.5.03-.11.01-.22.03-.32.05-.06.02-.1.08-.1.15v4.05zm8.46 0c0-.35.05-.71.12-1.05.08-.38.2-.75.37-1.1.18-.36.39-.71.65-1.02.26-.33.58-.62.93-.86.38-.26.79-.45 1.23-.59.5-.15 1.02-.22 1.54-.22.66 0 1.31.1 1.93.32.57.2 1.09.51 1.54.92.44.41.79.91 1.02 1.46.25.61.38 1.27.37 1.93 0 .67-.12 1.33-.37 1.96-.22.59-.56 1.14-.99 1.6-.44.47-.97.84-1.55 1.1-.64.27-1.33.41-2.02.4-.76.02-1.51-.13-2.19-.45-.57-.27-1.08-.66-1.48-1.15-.38-.46-.67-.99-.85-1.56-.16-.55-.24-1.13-.22-1.71zm1.17-.36c0 .66.09 1.32.3 1.95.18.55.46 1.05.84 1.49.35.4.77.73 1.25.95.49.23 1.02.34 1.55.33.34 0 .67-.06 1-.15.4-.12.78-.33 1.1-.61.4-.36.71-.8.91-1.29.28-.7.4-1.45.37-2.19.01-.67-.1-1.33-.31-1.96-.18-.52-.47-1.01-.83-1.43a3.5 3.5 0 0 0-2.6-1.17c-.49 0-.98.08-1.44.25-.43.18-.8.44-1.11.79-.33.37-.59.8-.75 1.27a5.4 5.4 0 0 0-.27 1.78v-.02zm9.92-.71v-2.67q0-.255-.12-.48a.6.6 0 0 0-.41-.22.7.7 0 0 0-.21-.03h-.22c-.06 0-.1-.03-.1-.08s.06-.08.2-.1h.89l.51.02h3.35c.08 0 .16-.01.23-.03.03-.01.07-.03.1-.05.02-.02.05-.02.07-.03.05 0 .07.04.07.11 0 .06-.02.13-.04.19q-.045.195-.06.39v.16c0 .07 0 .15-.02.24s0 .17-.02.25c0 .05 0 .11-.02.16 0 .03-.02.06-.03.09s-.04.05-.07.04c-.05 0-.08-.05-.08-.15q0-.105-.03-.21c-.02-.09-.05-.18-.09-.26a.7.7 0 0 0-.27-.25c-.17-.09-.37-.14-.57-.14l-1.9-.04c-.07 0-.11.05-.11.14v3.42c0 .08.03.11.08.11h2.14c.12 0 .25-.03.37-.06.09-.02.17-.08.22-.16a.3.3 0 0 1 .07-.08c.02-.02.04-.04.07-.04.04 0 .06.03.06.1 0 .08-.02.15-.04.22-.03.15-.05.31-.06.46 0 .06 0 .14-.02.22v.76c0 .05-.03.08-.08.08s-.08-.04-.08-.11 0-.13-.03-.22c0-.08-.03-.15-.05-.23a.7.7 0 0 0-.2-.28.8.8 0 0 0-.44-.17h-1.86c-.06 0-.08.04-.08.11v2.64c0 .37.02.73.06 1.1.01.16.05.31.11.46.08.13.21.22.37.22l.3.04h.25c.06 0 .1.03.1.07s-.06.1-.2.1h-2.72c-.13 0-.2-.03-.2-.1 0-.05.03-.07.1-.07h.19l.18-.04c.12-.02.22-.11.26-.22.05-.15.08-.3.1-.46.04-.36.06-.73.05-1.1v-1.59l-.08-2.25h-.01zm9.89 2.17v1.59c0 .37.02.73.05 1.1.01.16.05.31.11.46.08.13.21.22.37.22l.3.04h.25c.06 0 .1.03.1.07s-.06.1-.2.1h-2.72c-.13 0-.2-.03-.2-.1 0-.05.03-.07.1-.07h.19l.19-.04a.33.33 0 0 0 .25-.22c.05-.15.09-.3.1-.46a10 10 0 0 0 .06-1.1v-6.43c-.03-.4-.16-.63-.42-.69-.07-.02-.14-.03-.21-.04h-.17c-.06 0-.1-.03-.1-.08s.06-.08.2-.1h2.46c.13 0 .2.03.2.1s-.03.09-.1.08h-.13c-.06 0-.12.02-.18.03-.14.02-.27.09-.34.22-.07.15-.11.32-.12.49 0 .1 0 .21-.02.31s0 .26 0 .45v4.07h-.03zm3.78 3.76c-.29 0-.57-.03-.85-.07-.28-.05-.55-.13-.8-.25a.25.25 0 0 1-.16-.14q-.03-.165-.03-.33c0-.31 0-.58.03-.81s.03-.39.04-.49.04-.2.1-.2.08.04.08.13v.2c0 .09.02.17.03.26.04.21.13.41.25.58.11.16.26.29.42.39.17.1.36.17.55.22q.3.06.6.06.405 0 .78-.15c.21-.08.39-.21.55-.37.14-.15.25-.33.32-.52.08-.19.11-.39.11-.59s-.02-.4-.08-.59c-.05-.18-.13-.36-.24-.52-.13-.19-.28-.36-.44-.52-.18-.18-.4-.37-.66-.6l-.56-.46c-.29-.23-.56-.48-.8-.75-.19-.21-.35-.43-.49-.67-.11-.2-.19-.41-.25-.63-.04-.21-.06-.41-.06-.62 0-.31.06-.62.18-.9.11-.27.29-.51.51-.71.23-.21.51-.36.8-.46.34-.11.7-.17 1.06-.16q.315 0 .63.03.255.03.51.09c.12.03.21.04.27.05h.17c.08 0 .12.03.12.08s0 .16-.02.37-.03.53-.03.95c0 .19-.03.28-.09.28s-.06 0-.07-.04l-.03-.12c-.01-.11-.03-.21-.05-.31a.8.8 0 0 0-.11-.3.93.93 0 0 0-.38-.38c-.14-.09-.3-.15-.46-.19-.23-.06-.47-.08-.71-.08-.39-.01-.78.12-1.08.37-.3.27-.46.66-.44 1.06 0 .16.02.33.07.49.05.17.13.32.24.46.14.19.3.37.47.52.19.18.44.39.73.62l.35.27c.31.25.61.51.89.8.21.22.4.45.56.71.13.21.22.44.28.68.09.38.1.77.03 1.15-.03.19-.09.37-.16.54-.09.2-.19.39-.32.56-.15.19-.32.37-.53.5-.26.19-.56.32-.87.4q-.48.12-.99.12v.02zm7.81-3.76v1.59c0 .37.02.73.05 1.1.01.16.05.31.11.46.08.13.21.22.37.22l.3.04h.25c.06 0 .1.03.1.07s-.06.1-.2.1h-2.72c-.13 0-.2-.03-.2-.1 0-.05.03-.07.1-.07h.18l.19-.04c.12-.02.22-.11.25-.22.05-.15.09-.3.11-.46.04-.36.06-.73.05-1.1v-6.81l-1.83.03c-.16 0-.32 0-.49.03-.12.01-.25.04-.37.07-.17.04-.32.15-.42.3-.06.11-.11.19-.14.24s-.05.09-.06.14c-.03.08-.08.12-.12.12s-.06-.04-.06-.11c0-.08.02-.16.04-.24.03-.12.05-.26.09-.41s.06-.28.09-.4.05-.2.05-.22.04-.09.05-.15.04-.09.07-.09c.06 0 .12.03.18.06.12.05.24.08.37.09l.57.04h5.55c.15 0 .27-.03.37-.04l.22-.04h.12c.03 0 .05 0 .05.04v1.47c0 .11-.03.16-.09.16-.03 0-.05-.01-.06-.04a.5.5 0 0 1-.03-.17v-.13c0-.09-.04-.18-.09-.26a.6.6 0 0 0-.24-.21c-.15-.07-.3-.12-.46-.14-.24-.04-.49-.06-.73-.07l-1.56-.03-.02 5.22zm6.44-5.44c.05-.13.1-.27.16-.39.03-.06.07-.09.11-.09s.08.03.11.08c.06.12.12.24.16.37.03.08.11.28.23.58s.26.69.44 1.14.37.94.56 1.46l.61 1.59c.2.52.39 1.02.58 1.48l.46 1.17c.09.23.19.45.32.66.08.15.18.28.28.41.07.09.15.16.25.21.07.04.14.06.22.09.09.03.17.05.26.06h.23c.08 0 .12.03.12.07s-.03.07-.08.08c-.06.02-.11.02-.17.02h-1.3l-.64-.02-.27-.02c-.06 0-.1-.02-.1-.06s.03-.07.08-.09.08-.05.1-.1c.02-.08.02-.16-.02-.23l-1.15-3.03s-.06-.08-.11-.07h-2.65c-.06 0-.11.04-.12.1l-.73 2.19c-.1.26-.16.54-.17.83 0 .11.05.22.15.27.1.06.2.09.31.09h.12c.08 0 .12.03.12.07s-.06.1-.19.1h-2.35c-.16 0-.24-.03-.24-.1s.04-.07.11-.07h.36c.26-.02.5-.16.65-.37.16-.24.29-.51.39-.78l2.79-7.69zm1.28 4.94c.05 0 .07-.03.05-.09l-1.17-3.33c-.06-.18-.13-.18-.18 0l-1.1 3.33c-.03.06 0 .09.04.09z"/><path d="M78.45 80.27c0 .24.02.46.04.64.01.14.04.28.08.42.03.09.08.18.14.25q.09.09.21.12c.12.03.24.05.37.06h.26c.06 0 .1.03.1.07s-.07.1-.22.1c-.37 0-.65 0-.88-.02h-.86c-.23 0-.48.02-.76.02-.13 0-.2-.03-.2-.1 0-.05.03-.07.1-.07h.22c.1-.01.19-.03.29-.06.17-.06.29-.22.3-.39.05-.39.08-.78.06-1.17v-7.07c0-.16 0-.33.03-.49.02-.08.05-.13.11-.13s.12.05.21.15.16.18.23.24.19.21.42.46.53.58.9.97l1.22 1.31 1.39 1.49c.31.33.62.66.92 1 .31.34.6.65.87.95l.73.79c.21.23.37.39.46.49l-.14-6.27c0-.29-.03-.57-.1-.85a.52.52 0 0 0-.37-.32c-.12-.02-.24-.04-.37-.05h-.26c-.06 0-.1-.03-.1-.09s.08-.09.25-.09h1.65c.17 0 .41-.02.66-.02.15 0 .22.03.22.09s-.05.09-.14.09h-.12c-.06 0-.12.02-.18.03-.17.02-.31.14-.37.3-.06.26-.09.53-.07.8l-.03 7.23v.74s-.01.08-.03.11c-.01.02-.04.03-.06.03q-.045 0-.09-.03c-.05-.04-.11-.08-.15-.12-.06-.05-.15-.13-.25-.24l-.4-.4-.37-.37c-.22-.22-.48-.49-.8-.82l-1.05-1.06c-.37-.37-.71-.73-1.04-1.1l-1.07-1.13-.94-1.04c-.29-.32-.54-.6-.75-.83s-.37-.41-.47-.53l.17 5.91zm10.23-4.07v-2.67c0-.17-.05-.33-.12-.48a.56.56 0 0 0-.41-.22.7.7 0 0 0-.2-.03h-.22c-.06 0-.1-.03-.1-.08s.06-.08.2-.1h1.95c.23 0 .49-.02.78-.02.42-.01.84.06 1.24.21.28.11.54.28.76.49.17.17.29.38.37.6.06.18.09.36.1.55 0 .23-.03.47-.1.69-.06.2-.15.39-.26.57-.11.17-.23.34-.37.5-.13.16-.28.31-.42.46.25.08.5.19.73.33.25.15.49.33.69.54.22.22.39.48.52.76.14.31.21.64.21.98 0 .33-.07.66-.2.97-.13.32-.33.62-.58.86-.28.27-.62.48-.98.62-.44.16-.91.24-1.38.23h-.37l-.53-.03c-.18 0-.34-.03-.49-.03h-1.47c-.13 0-.2-.03-.2-.1 0-.05.03-.07.1-.07h.19l.19-.04a.33.33 0 0 0 .25-.22c.05-.15.09-.3.11-.46.04-.36.06-.73.05-1.1v-3.73h-.02zm.99.27c0 .06.03.12.09.14l.23.03c.12 0 .29.02.52.02h.43c.1 0 .19-.02.29-.04a.7.7 0 0 0 .21-.1 1.64 1.64 0 0 0 .51-.72c.08-.23.12-.46.12-.71 0-.26-.03-.51-.1-.76-.05-.24-.15-.48-.29-.68-.13-.2-.31-.37-.51-.49-.24-.13-.5-.19-.77-.18h-.27c-.11 0-.22.02-.32.05-.1.02-.15.07-.15.13v3.31zm0 1.31v2.67c0 .15 0 .27.03.37 0 .09.02.18.05.26.03.07.06.13.12.18.06.06.14.11.22.15.09.04.18.08.28.1.1.03.2.04.31.05.1 0 .2.02.29.03h.22c.18 0 .37-.03.55-.08.44-.11.81-.41 1.01-.81.13-.27.19-.56.18-.86q0-.3-.06-.6c-.04-.23-.1-.45-.19-.67-.1-.23-.22-.44-.37-.64-.17-.22-.36-.4-.59-.56-.17-.12-.36-.21-.56-.27-.15-.04-.31-.07-.46-.09-.06-.01-.13-.02-.19-.02h-.77c-.05 0-.08.03-.08.09l.02.71zm5.66-1.58v-2.35c0-.11 0-.22-.02-.31 0-.17-.05-.33-.12-.48a.6.6 0 0 0-.4-.22.7.7 0 0 0-.21-.03h-.22c-.06 0-.1-.03-.1-.08s.06-.08.2-.1h2.62c.13 0 .2.03.2.1s-.03.09-.1.08h-.13c-.06 0-.12.02-.18.03-.14.01-.27.09-.34.21-.07.16-.11.32-.12.49v4.39c0 .38.02.77.07 1.15.03.29.1.57.19.85a2.6 2.6 0 0 0 .67 1.05c.25.25.56.44.9.56.32.08.64.12.97.12.75 0 1.45-.33 1.94-.89.3-.38.5-.82.57-1.3.1-.57.15-1.15.14-1.73v-3.89c0-.11 0-.22-.02-.31 0-.17-.05-.33-.12-.48a.6.6 0 0 0-.4-.22.7.7 0 0 0-.21-.03h-.22c-.06 0-.1-.03-.1-.08s.06-.08.2-.1h2.35c.13 0 .2.03.2.1s-.03.09-.1.08h-.13c-.06 0-.12.02-.18.03a.5.5 0 0 0-.34.22c-.07.15-.11.32-.12.48 0 .1 0 .21-.02.31s0 .26 0 .45v3.23c0 .34 0 .68-.04 1.02-.02.34-.08.67-.16 1-.08.32-.2.62-.35.91s-.35.55-.6.76c-.21.18-.43.35-.67.48-.21.11-.43.21-.66.28-.21.06-.42.11-.63.13-.19.02-.39.03-.58.03-.11 0-.26 0-.45-.02-.22-.02-.43-.05-.65-.1-.25-.06-.5-.15-.73-.27-.26-.12-.5-.29-.71-.49a5 5 0 0 1-.42-.5c-.14-.21-.25-.43-.34-.66-.11-.29-.18-.59-.23-.9-.05-.39-.08-.79-.08-1.18l-.04-1.81zm11.01 2.2c0 .91.02 1.58.05 2.01-.02.29.06.57.22.82.05.05.11.1.18.13.09.04.18.07.27.08.14.02.28.04.42.05h.61c.29 0 .59-.02.88-.05.24-.02.46-.14.61-.32.09-.11.16-.23.21-.37.05-.12.09-.24.11-.37 0-.11.05-.16.11-.16s.08.06.08.19v.2c0 .11-.02.22-.04.33l-.06.37c-.02.11-.04.22-.07.32-.02.06-.04.12-.07.17-.02.04-.06.08-.1.1-.07.03-.14.04-.22.05h-1.55l-.89-.03c-.26 0-.49-.03-.69-.03h-1.07l-.37.02h-.32c-.13 0-.2-.03-.2-.1 0-.05.03-.07.1-.07h.19l.18-.04c.12-.02.22-.11.25-.22.05-.15.09-.3.11-.46.04-.36.06-.73.05-1.1v-6.08c0-.11 0-.22-.02-.31 0-.17-.05-.33-.12-.48a.6.6 0 0 0-.4-.22.7.7 0 0 0-.21-.03h-.22c-.06 0-.1-.03-.1-.08s.06-.08.2-.1h2.75c.13 0 .2.03.2.1s-.03.09-.1.08h-.18c-.08 0-.15.02-.23.03-.15.01-.28.09-.37.22-.07.15-.11.32-.12.49 0 .1 0 .21-.02.31s0 .26 0 .45v4.1h-.05zM9.67 87.47v3.41H9.2v-1.54H7.36v1.54h-.47v-3.41h.47v1.5H9.2v-1.5zm2.94 2.65h-1.57l-.29.76h-.5l1.31-3.39h.54l1.3 3.39h-.5zm-.14-.37-.65-1.72-.65 1.72h1.31zm1.97-2.28v3.41h-.47v-3.41zm2.7 3.4-.86-1.39h-.57v1.39h-.47v-3.41h1.17c.27 0 .5.04.69.13q.285.135.42.36c.09.15.14.32.14.51 0 .23-.07.44-.22.62s-.36.3-.64.36l.91 1.43zm-1.43-1.75h.69c.25 0 .45-.06.57-.18s.19-.28.19-.48-.06-.36-.19-.47-.32-.17-.58-.17h-.69v1.29zm6.28-1.65v.36h-.98v3.05h-.47v-3.05h-.99v-.36H22zm2.48 3.4-.86-1.39h-.57v1.39h-.47v-3.41h1.17c.27 0 .5.04.69.13q.285.135.42.36c.09.15.14.32.14.51 0 .23-.07.44-.22.62s-.36.3-.64.36l.91 1.43zm-1.43-1.75h.69c.25 0 .45-.06.57-.18s.19-.28.19-.48-.06-.36-.19-.47-.32-.17-.58-.17h-.69v1.29zm4.81 1h-1.57l-.29.76h-.5l1.31-3.39h.54l1.3 3.39h-.5zm-.13-.37-.65-1.72-.65 1.72h1.31zm4.33 1.12h-.47l-1.9-2.71v2.71h-.47v-3.41h.47l1.9 2.71v-2.71h.47zm1.31-.08c-.19-.08-.33-.19-.44-.33a.85.85 0 0 1-.17-.49h.5c.02.16.09.29.21.4s.3.16.53.16.4-.05.53-.16.19-.24.19-.41c0-.13-.04-.24-.11-.32a.7.7 0 0 0-.29-.18c-.12-.04-.27-.09-.46-.14q-.36-.09-.57-.18a1 1 0 0 1-.37-.28q-.15-.18-.15-.51c0-.19.05-.35.15-.49q.15-.21.42-.33c.18-.08.39-.12.62-.12.34 0 .62.08.83.24.22.16.34.37.37.64h-.52c-.02-.13-.09-.24-.22-.35q-.195-.15-.51-.15-.3 0-.48.15c-.12.1-.19.23-.19.4 0 .12.04.23.11.3.08.08.17.14.28.18s.26.09.46.14q.36.09.57.18a.82.82 0 0 1 .53.79c0 .17-.05.32-.14.47s-.23.26-.42.36c-.18.09-.4.14-.65.14s-.45-.04-.64-.12zm4.63-1.62c-.21.19-.52.28-.94.28h-.69v1.42h-.47v-3.41h1.17c.41 0 .72.09.93.28.21.18.32.43.32.72s-.1.52-.31.71zm-.36-.25c.12-.11.19-.26.19-.46 0-.42-.25-.63-.77-.63h-.69v1.25h.69c.26 0 .45-.05.58-.16m1.73 1.59h1.26v.36h-1.73v-3.41h.47zm3.9-.39h-1.57l-.29.76h-.5l1.31-3.39h.54l1.3 3.39h-.5zm-.14-.37-.65-1.72-.65 1.72h1.31zm4.33 1.12h-.47l-1.9-2.71v2.71h-.47v-3.41h.47l1.9 2.71v-2.71h.47zm3.03-3.4v.36h-.98v3.05h-.47v-3.05h-.99v-.36h2.45zm4.73 3.4-.47-.45c-.18.17-.36.3-.56.38s-.43.12-.68.12-.47-.04-.66-.13a1.16 1.16 0 0 1-.45-.36.9.9 0 0 1-.16-.55c0-.24.07-.45.22-.63s.36-.32.63-.43c-.11-.12-.19-.24-.24-.34a.77.77 0 0 1 .05-.73c.08-.11.19-.21.33-.27s.31-.1.5-.1.35.03.49.1.24.16.31.29.1.26.09.41h-.47c0-.13-.04-.24-.12-.31-.08-.08-.19-.11-.32-.11s-.25.04-.33.11c-.09.07-.13.17-.13.28 0 .1.03.19.09.28s.15.2.29.34l1.08 1.02.09-.14.35-.56h.51l-.42.69c-.06.1-.13.2-.21.31l.81.77h-.62zM54 90.45c.15-.07.29-.17.43-.32l-1.06-1.01c-.44.16-.66.41-.66.76 0 .19.07.35.22.48s.34.19.57.19c.19 0 .36-.03.5-.1m5.87-2.98v.36h-.98v3.05h-.47v-3.05h-.99v-.36h2.45zm2.48 3.4-.86-1.39h-.57v1.39h-.47v-3.41h1.17c.27 0 .5.04.69.13q.285.135.42.36c.09.15.14.32.14.51 0 .23-.07.44-.22.62s-.36.3-.64.36l.91 1.43zm-1.43-1.75h.69c.25 0 .45-.06.57-.18s.19-.28.19-.48-.06-.36-.19-.47-.32-.17-.58-.17h-.69v1.29zm3.15-1.29v1.14h1.32v.37h-1.32v1.17h1.47v.37H63.6v-3.41h1.94v.37h-1.47zm4.32 2.29h-1.57l-.29.76h-.5l1.31-3.39h.54l1.3 3.39h-.5zm-.14-.37-.65-1.72-.65 1.72h1.31zm3.72-2.28v.36h-.98v3.05h-.47v-3.05h-.99v-.36h2.45zm4.23.02v3.38h-.47v-2.52l-1.19 2.52h-.33l-1.2-2.53v2.53h-.47v-3.38h.51l1.33 2.8 1.33-2.8h.5zm1.27.34v1.14h1.32v.37h-1.32v1.17h1.47v.37H77v-3.41h1.94v.37h-1.47zm5.03 3.04h-.47l-1.9-2.71v2.71h-.47v-3.41h.47l1.9 2.71v-2.71h.47zm3.02-3.4v.36h-.98v3.05h-.47v-3.05h-.99v-.36h2.45zm2.02.8c.16-.26.38-.47.65-.62.28-.15.58-.23.91-.23.39 0 .74.09 1.03.27s.51.43.64.76h-.56c-.1-.21-.24-.36-.43-.48s-.41-.17-.67-.17-.48.05-.68.17c-.2.11-.36.27-.47.47s-.17.44-.17.72.06.51.17.71.27.36.47.47.43.17.68.17.49-.05.67-.16.33-.27.43-.47h.56c-.13.32-.35.58-.64.76s-.64.27-1.03.27c-.33 0-.64-.08-.91-.22a1.69 1.69 0 0 1-.89-1.52c0-.34.08-.63.24-.9m4.41 2.24h1.26v.36h-1.73v-3.41h.47zm2.24-3.04v3.41h-.47v-3.41zm3.64 3.4h-.47l-1.9-2.71v2.71h-.47v-3.41h.47l1.9 2.71v-2.71h.47zm1.27-3.4v3.41h-.47v-3.41zm.87.8c.16-.26.38-.47.65-.62.28-.15.58-.23.91-.23.39 0 .74.09 1.03.27s.51.43.64.76h-.56c-.1-.21-.24-.36-.43-.48s-.41-.17-.67-.17-.48.05-.68.17c-.2.11-.36.27-.47.47s-.17.44-.17.72.06.51.17.71.27.36.47.47.43.17.68.17.49-.05.67-.16.33-.27.43-.47h.56c-.13.32-.35.58-.64.76s-.64.27-1.03.27c-.33 0-.64-.08-.91-.22a1.69 1.69 0 0 1-.89-1.52c0-.34.08-.63.24-.9"/></g><defs><clipPath id="a"><path fill="#fff" d="M0 0h110.1v90.93H0z"/></clipPath></defs></svg>
