<svg width="103" height="42" viewBox="0 0 103 42" fill="none" xmlns="http://www.w3.org/2000/svg">
<g clip-path="url(#clip0_13_71)">
<path d="M11.7299 42H17.0473C16.1312 41.8341 15.2427 41.5094 14.4368 41.0464C13.5827 41.4886 12.6735 41.8134 11.7299 42Z" fill="#87AC8A"/>
<path d="M14.12 40.5143V10.8213C12.4118 9.70878 9.71179 9.59822 8.96102 9.59131V10.1303C9.91153 10.1718 10.5796 10.2892 10.9378 10.4827C11.5439 10.8006 11.847 11.4294 11.8539 12.3623L11.7299 38.9595C11.7299 39.8993 11.4131 40.535 10.7725 40.8667C10.3799 41.0671 9.73934 41.1708 8.83704 41.1915V41.6683C11.7024 41.6752 13.5965 40.7838 14.12 40.5005V40.5143Z" fill="#87AC8A"/>
<path d="M14.6779 40.5143V10.8213C16.386 9.70878 19.086 9.59822 19.8368 9.59131V10.1303C18.8863 10.1718 18.2182 10.2892 17.86 10.4827C17.2401 10.8006 16.9371 11.4294 16.9439 12.3623L17.061 38.9664C17.061 39.9062 17.3779 40.542 18.0184 40.8736C18.411 41.074 19.0516 41.1777 19.9539 41.1984V41.6752C17.1024 41.6752 15.1944 40.7838 14.6779 40.5074V40.5143Z" fill="#87AC8A"/>
<path d="M16.8407 9.31488H11.9572C12.8044 9.50145 13.6103 9.82623 14.3473 10.2754C15.1325 9.84696 15.9728 9.52219 16.8407 9.31488Z" fill="#87AC8A"/>
<path d="M2.12145 36.0158H8.09316C7.06 35.8223 6.06127 35.4492 5.15897 34.9033C4.20845 35.4215 3.18217 35.7947 2.11456 36.0158H2.12145Z" fill="#87AC8A"/>
<path d="M4.85588 16.08C3.29235 15.078 0.964281 14.9052 -9.18331e-06 14.8776V15.3406C0.93673 15.4304 1.57041 15.5755 1.88725 15.7552C2.4176 16.0731 2.67245 16.6811 2.67245 17.5726V32.9684C2.67245 33.8944 2.37628 34.5232 1.79082 34.8411C1.43954 35.0346 0.840301 35.1589 -0.00689697 35.2004V35.6634C1.6875 35.5874 3.34746 35.1382 4.84899 34.3504V16.0731L4.85588 16.08Z" fill="#87AC8A"/>
<path d="M7.95537 14.539H2.50024C3.44387 14.7186 4.35306 15.0572 5.17959 15.5548C6.05434 15.0849 6.9842 14.7394 7.95537 14.539Z" fill="#87AC8A"/>
<path d="M7.90027 24.1787V17.5864C7.90027 16.6742 8.19645 16.0523 8.79568 15.7275C9.15385 15.534 9.8013 15.4097 10.7312 15.3613V14.8707C7.89338 14.8707 5.99235 15.7966 5.47577 16.0938V34.3712C7.15639 35.4699 9.67732 35.6634 10.7312 35.6979V35.2142C9.8564 35.1866 9.22961 35.076 8.85767 34.8894C8.21711 34.5577 7.90027 33.922 7.90027 32.9822V25.6574H11.2064V24.1856H7.90027V24.1787Z" fill="#87AC8A"/>
<path d="M26.6764 36.0158H20.7047C21.7379 35.8223 22.7366 35.4492 23.6389 34.9033C24.5894 35.4215 25.6157 35.7947 26.6833 36.0158H26.6764Z" fill="#87AC8A"/>
<path d="M23.942 16.08C25.5055 15.078 27.8336 14.9052 28.7978 14.8776V15.3406C27.8611 15.4304 27.2274 15.5755 26.9106 15.7552C26.3871 16.0731 26.1254 16.6811 26.1254 17.5726V32.9684C26.1254 33.8944 26.4216 34.5232 27.007 34.8411C27.3583 35.0346 27.9575 35.1589 28.8047 35.2004V35.6634C27.1103 35.5874 25.4504 35.1382 23.9488 34.3504V16.0731L23.942 16.08Z" fill="#87AC8A"/>
<path d="M20.8493 14.539H26.2975C25.3539 14.7186 24.4516 15.0572 23.6251 15.5548C22.7503 15.0849 21.8205 14.7394 20.8493 14.539Z" fill="#87AC8A"/>
<path d="M20.8976 24.1787V17.5864C20.8976 16.6742 20.6014 16.0523 20.0021 15.7275C19.644 15.534 18.9965 15.4097 18.0667 15.3613V14.8707C20.9044 14.8707 22.8055 15.7966 23.3221 16.0938V34.3712C21.6414 35.4699 19.1205 35.6634 18.0667 35.6979V35.2142C18.9414 35.1866 19.5682 35.076 19.9333 34.8894C20.5738 34.5577 20.8907 33.922 20.8907 32.9822V25.6574H17.5776V24.1856H20.8907L20.8976 24.1787Z" fill="#87AC8A"/>
<path d="M15.2151 7.88449H12.1087C10.7243 7.88449 10.3799 7.87067 10.2559 7.72556C10.2008 7.65646 10.187 7.56662 10.2077 7.4837C10.2352 7.18656 10.2077 6.16386 10.2077 6.15004C10.0217 4.50542 9.47757 3.15794 8.60282 2.14214L8.53394 2.06613C8.42374 1.92793 8.45129 1.72753 8.58905 1.61697C8.58905 1.61697 8.60282 1.61006 8.60971 1.60315C8.6166 1.59624 8.63037 1.58933 8.64415 1.58933C9.56711 1.46495 10.2628 1.61006 10.6692 2.03849C10.8827 2.26653 11.0067 2.55675 11.0342 2.86771C11.6128 2.65349 12.2465 2.94372 12.4738 3.51727C12.6873 3.99407 12.6528 4.56761 12.398 4.85093C12.2396 4.98913 12.1845 5.20335 12.2396 5.39683C12.3911 5.65251 12.6735 5.80453 12.9697 5.79071C13.1212 5.79071 13.2176 5.76998 13.2727 5.69397C13.4243 5.47975 13.197 4.84402 12.9559 4.21519C12.5357 3.12339 13.1212 2.09377 13.5069 1.39584L13.5276 1.35438C13.9064 0.684097 14.3335 0.0345408 14.3404 0.0276306C14.361 -1.00846e-05 14.3886 -0.00692025 14.423 -1.00837e-05C14.4299 -1.00837e-05 14.4437 -1.00834e-05 14.4506 0.0138103C14.4506 0.0138103 14.4643 0.0207204 14.4643 0.0276306C14.4643 0.0276306 14.8914 0.684097 15.2702 1.35438L15.2978 1.39584C15.6835 2.09377 16.2689 3.11648 15.8488 4.20828C15.6008 4.83711 15.3873 5.46593 15.5319 5.68706C15.5802 5.76307 15.6766 5.79071 15.835 5.7838C16.1312 5.79071 16.4067 5.6456 16.5651 5.38992C16.6271 5.18953 16.5651 4.97531 16.4136 4.84402C16.1587 4.5607 16.1243 3.98716 16.3378 3.51036C16.5582 2.93681 17.1988 2.64658 17.7774 2.8608C17.8118 2.54984 17.9427 2.2527 18.1631 2.03158C18.5763 1.61006 19.2651 1.45804 20.1881 1.58242C20.2019 1.58242 20.2156 1.58242 20.2225 1.59624C20.3672 1.69989 20.4085 1.90029 20.3052 2.0454C20.3052 2.0454 20.2983 2.05231 20.2914 2.05922L20.2225 2.13523C19.3409 3.14412 18.8036 4.49851 18.6039 6.15004C18.6039 6.15004 18.5695 7.17965 18.6039 7.47679C18.6246 7.55971 18.6039 7.64955 18.5488 7.71865C18.4179 7.86376 18.0873 7.87067 16.696 7.87758H15.2151V7.88449Z" fill="#87AC8A"/>
<path d="M38.7714 24.8421V25.8509C38.7714 26.0859 38.7783 26.3139 38.8058 26.5489C38.8127 26.6525 38.8403 26.7493 38.8747 26.8391C38.9229 26.922 39.0125 26.9773 39.1089 26.9773L39.3018 26.998H39.4602C39.5015 26.998 39.5222 27.0118 39.5222 27.0464C39.5222 27.0809 39.4808 27.1086 39.3982 27.1086H37.6831C37.6005 27.1086 37.5591 27.0879 37.5591 27.0464C37.5591 27.0188 37.5798 26.998 37.6211 26.998H37.7382L37.8553 26.9773C37.9311 26.9635 37.9931 26.9082 38.0137 26.8391C38.0482 26.7423 38.0688 26.6456 38.0826 26.5489C38.1102 26.3208 38.1171 26.0859 38.1171 25.8509V24.0197C38.1171 24.0197 38.1033 23.9783 38.0826 23.9714H34.7696C34.7696 23.9714 34.7283 23.9852 34.7214 24.0059V25.844C34.7214 26.079 34.7283 26.307 34.7558 26.542C34.7627 26.6456 34.7903 26.7423 34.8247 26.8322C34.8729 26.9151 34.9624 26.9704 35.0589 26.9704C35.114 26.9704 35.176 26.9842 35.2448 26.9911H35.4102C35.4515 26.9911 35.4721 27.0049 35.4721 27.0395C35.4721 27.074 35.4308 27.1017 35.3482 27.1017H34.2806L34.0739 27.0879H33.6262C33.5436 27.0879 33.5022 27.0671 33.5022 27.0257C33.5022 26.998 33.5229 26.9773 33.5642 26.9773H33.6813L33.7984 26.9566C33.8742 26.9427 33.9362 26.8875 33.9568 26.8184C33.9913 26.7216 34.0119 26.6249 34.0257 26.5281C34.0533 26.3001 34.0601 26.0652 34.0601 25.8302V21.767C34.0601 21.6634 34.0257 21.5528 33.9844 21.463C33.9224 21.387 33.826 21.3317 33.7295 21.3248C33.6882 21.311 33.6469 21.304 33.5987 21.304H33.454C33.4127 21.304 33.392 21.2902 33.392 21.2557C33.392 21.2211 33.4334 21.2004 33.516 21.1935H35.1484C35.2311 21.1935 35.2724 21.2142 35.2724 21.2557C35.2724 21.2971 35.2517 21.311 35.2104 21.304H35.1415C35.1071 21.304 35.0658 21.3179 35.0313 21.3248C34.9418 21.3317 34.866 21.387 34.8178 21.463C34.7696 21.5597 34.7489 21.6634 34.742 21.7739V23.6328C34.742 23.6328 34.7558 23.6742 34.7765 23.6811H38.0826C38.0826 23.6811 38.1239 23.6673 38.1308 23.6466V21.7808C38.1308 21.6772 38.1033 21.5666 38.0551 21.4768C37.9931 21.4008 37.8966 21.3455 37.8002 21.3386C37.7589 21.3248 37.7176 21.3179 37.6693 21.3179H37.5316C37.4903 21.3179 37.4696 21.304 37.4696 21.2695C37.4696 21.2349 37.5109 21.2142 37.5936 21.2073H39.2329C39.3155 21.2073 39.3569 21.228 39.3569 21.2695C39.3569 21.311 39.3362 21.3248 39.2949 21.3179H39.2122C39.1778 21.3179 39.1364 21.3317 39.102 21.3386C39.0125 21.3455 38.9367 21.4008 38.8885 21.4768C38.8403 21.5735 38.8196 21.6772 38.8127 21.7878C38.8127 21.8499 38.8127 21.919 38.7989 21.9882C38.7852 22.0573 38.7989 22.154 38.7989 22.2715V24.8559H38.7852L38.7714 24.8421Z" fill="#87AC8A"/>
<path d="M42.05 21.387C42.0775 21.304 42.112 21.2142 42.1533 21.1382C42.1739 21.1036 42.1946 21.0829 42.2222 21.0829C42.2497 21.0829 42.2704 21.0967 42.291 21.1313C42.3324 21.2073 42.3668 21.2833 42.3944 21.3662C42.415 21.4146 42.4632 21.5459 42.539 21.7394C42.6148 21.9329 42.7043 22.1747 42.8145 22.458C42.9247 22.7414 43.0487 23.0523 43.1727 23.384L43.5584 24.3998C43.6824 24.7315 43.8063 25.0424 43.9234 25.3396C44.0405 25.6367 44.137 25.8855 44.2127 26.0859C44.2678 26.231 44.3367 26.3692 44.4125 26.5074C44.4607 26.5972 44.5227 26.6871 44.5916 26.77C44.6329 26.8253 44.688 26.8667 44.7431 26.9013C44.7844 26.922 44.8326 26.9427 44.8808 26.9566C44.9359 26.9773 44.991 26.9911 45.0462 26.998H45.1908C45.239 26.998 45.2666 27.0118 45.2666 27.0464C45.2666 27.0809 45.2528 27.0879 45.2183 27.0948C45.1839 27.1017 45.1495 27.1086 45.1081 27.1086H44.2885L43.889 27.0948L43.7168 27.0809C43.6755 27.0809 43.6548 27.0671 43.6548 27.0395C43.6548 27.0118 43.6686 26.998 43.7099 26.9842C43.7375 26.9704 43.7581 26.9496 43.7719 26.922C43.7857 26.8736 43.7788 26.8184 43.7581 26.7769L43.0349 24.849C43.0349 24.849 42.9936 24.8006 42.966 24.8006H41.2854C41.251 24.8006 41.2165 24.8282 41.2097 24.8628L40.7482 26.2517C40.6793 26.4176 40.6449 26.5972 40.638 26.7769C40.638 26.846 40.6724 26.9151 40.7344 26.9496C40.7964 26.9842 40.8653 27.0049 40.9341 27.0049H41.0099C41.0581 27.0049 41.0857 27.0188 41.0857 27.0533C41.0857 27.0879 41.0443 27.1155 40.9686 27.1155H39.4739C39.3775 27.1155 39.3293 27.0948 39.3293 27.0533C39.3293 27.0118 39.3499 27.0049 39.3982 27.0049C39.4326 27.0049 39.467 27.0049 39.5084 27.0049C39.5428 27.0049 39.5841 27.0049 39.6255 27.0049C39.7908 26.9911 39.9423 26.9082 40.0387 26.77C40.142 26.618 40.2247 26.4521 40.2867 26.2725L42.0569 21.387H42.05ZM42.8558 24.5173C42.8558 24.5173 42.8972 24.4965 42.8903 24.462L42.1464 22.3475C42.1051 22.2369 42.0637 22.2369 42.0293 22.3475L41.3336 24.462C41.3199 24.4965 41.3336 24.5173 41.3612 24.5173H42.8558Z" fill="#87AC8A"/>
<path d="M46.4237 24.8421V25.8509C46.4237 26.0859 46.4306 26.3139 46.4582 26.5489C46.4651 26.6525 46.4926 26.7493 46.5271 26.8391C46.5753 26.922 46.6648 26.9773 46.7612 26.9773L46.9541 26.998H47.1125C47.1538 26.998 47.1745 27.0118 47.1745 27.0464C47.1745 27.0809 47.1332 27.1086 47.0505 27.1086H46.1964L46.1 27.0948H45.3492C45.2666 27.0948 45.2253 27.074 45.2253 27.0326C45.2253 27.0049 45.2459 26.9842 45.2873 26.9842H45.4043L45.5214 26.9635C45.5972 26.9497 45.6592 26.8944 45.6799 26.8253C45.7143 26.7285 45.735 26.6318 45.7487 26.535C45.7763 26.307 45.7832 26.0721 45.7832 25.8371V21.7739C45.7694 21.5183 45.6799 21.3731 45.5146 21.3386C45.4732 21.3317 45.425 21.3179 45.3837 21.3179H45.2735C45.2322 21.3179 45.2115 21.304 45.2115 21.2695C45.2115 21.2349 45.2528 21.2142 45.3355 21.2073H46.8852C46.9679 21.2073 47.0092 21.228 47.0092 21.2695C47.0092 21.311 46.9885 21.3248 46.9472 21.3179H46.8646C46.8301 21.3179 46.7888 21.3317 46.7544 21.3386C46.6648 21.3455 46.589 21.4008 46.5408 21.4768C46.4926 21.5735 46.472 21.6772 46.4651 21.7878V24.8559H46.4306L46.4237 24.8421Z" fill="#87AC8A"/>
<path d="M48.2628 23.46V21.767C48.2628 21.6634 48.2352 21.5528 48.187 21.463C48.125 21.387 48.0286 21.3317 47.9253 21.3248C47.884 21.311 47.8426 21.304 47.8013 21.304H47.6636C47.6222 21.304 47.6016 21.2902 47.6016 21.2557C47.6016 21.2211 47.6429 21.2004 47.7255 21.1935H49.5233C49.7712 21.1935 50.0192 21.2142 50.2671 21.2557C50.5151 21.2902 50.7562 21.3939 50.9628 21.539C51.0179 21.5874 51.073 21.6357 51.1281 21.691C51.197 21.7601 51.2521 21.8361 51.3072 21.926C51.3554 22.0227 51.3898 22.1194 51.4174 22.2231C51.4587 22.3475 51.4794 22.4719 51.4725 22.5962C51.4725 22.9003 51.3967 23.2043 51.259 23.4807C51.073 23.8332 50.825 24.151 50.522 24.4067L51.4105 25.54C51.6791 25.8786 51.9202 26.1688 52.1544 26.4176C52.3128 26.6041 52.5057 26.7493 52.7192 26.8598C52.8432 26.9151 52.974 26.9566 53.1049 26.9842C53.1807 26.9842 53.2427 26.998 53.2909 27.0049C53.3391 27.0118 53.3804 27.0049 53.408 27.0049C53.4355 27.0049 53.4768 27.0188 53.4768 27.0533C53.4768 27.0809 53.4631 27.1017 53.4424 27.1017C53.3942 27.1086 53.3391 27.1155 53.2909 27.1155H52.7399C52.5677 27.1155 52.4024 27.1155 52.2302 27.0879C52.1131 27.0671 52.0029 27.0257 51.9064 26.9704C51.7205 26.8667 51.5552 26.7216 51.4174 26.5489C51.2659 26.3623 51.073 26.1135 50.8526 25.8164C50.7699 25.7058 50.6873 25.5814 50.6046 25.4778L50.3705 25.1461L50.1569 24.8628C50.0949 24.7799 50.0398 24.7108 50.0054 24.6555C49.9778 24.6278 49.9434 24.614 49.9021 24.6071L48.9447 24.5933C48.9102 24.5933 48.8896 24.614 48.8896 24.6555V25.8509C48.8896 26.0859 48.8965 26.3139 48.924 26.5489C48.9309 26.6525 48.9585 26.7493 48.9929 26.8391C49.0411 26.922 49.1307 26.9773 49.2271 26.9773C49.2822 26.9773 49.3442 26.9911 49.413 26.998H49.5784C49.6197 26.998 49.6403 27.0118 49.6403 27.0464C49.6403 27.0809 49.599 27.1086 49.5164 27.1086H47.8289C47.7462 27.1086 47.7049 27.0879 47.7049 27.0464C47.7049 27.0188 47.7255 26.998 47.7669 26.998H47.884L48.0011 26.9773C48.0768 26.9635 48.1388 26.9082 48.1664 26.8391C48.2008 26.7423 48.2215 26.6456 48.2283 26.5489C48.2559 26.3208 48.2628 26.0859 48.2628 25.8509V23.4669V23.46ZM48.8896 24.1441C48.8896 24.1856 48.9102 24.2201 48.9447 24.234C49.048 24.2823 49.1582 24.3169 49.2684 24.3238C49.4337 24.3445 49.599 24.3583 49.7643 24.3583C49.8608 24.3583 49.9641 24.3514 50.0605 24.3307C50.1638 24.31 50.2671 24.2685 50.3498 24.2063C50.5013 24.0888 50.6184 23.9368 50.6873 23.7572C50.7837 23.5153 50.8319 23.2596 50.825 23.0039C50.8526 22.5824 50.7217 22.1747 50.4669 21.843C50.2189 21.5597 49.8539 21.4077 49.475 21.4284C49.3579 21.4284 49.2409 21.4284 49.1582 21.4422C49.0893 21.4422 49.0204 21.463 48.9516 21.4768C48.9102 21.4906 48.8827 21.5252 48.8896 21.5666V24.1372V24.1441Z" fill="#87AC8A"/>
<path d="M54.2345 24.1441C54.2345 23.923 54.262 23.695 54.3103 23.4808C54.3585 23.2389 54.4411 23.0109 54.5445 22.7828C54.6547 22.5548 54.7924 22.3337 54.9508 22.1333C55.1161 21.926 55.3159 21.7394 55.5432 21.5874C55.7843 21.4215 56.046 21.2971 56.3215 21.2142C56.6383 21.1175 56.969 21.076 57.2996 21.076C57.7128 21.076 58.1261 21.1382 58.5187 21.2833C58.8769 21.4077 59.2075 21.6081 59.4899 21.8638C59.7654 22.1264 59.9858 22.4373 60.1373 22.7897C60.2958 23.1767 60.3784 23.5982 60.3715 24.0128C60.3715 24.4344 60.2958 24.8559 60.1373 25.2567C59.9996 25.6367 59.7861 25.9822 59.5105 26.2725C59.235 26.5696 58.8975 26.8045 58.5256 26.9704C58.1192 27.1431 57.6853 27.233 57.2445 27.2261C56.7692 27.2399 56.2939 27.1431 55.86 26.9428C55.5019 26.77 55.1781 26.5212 54.9233 26.2172C54.6822 25.927 54.4962 25.5884 54.386 25.229C54.2827 24.8766 54.2345 24.5104 54.2483 24.1441H54.2345ZM54.9715 23.9092C54.9715 24.3307 55.0335 24.7522 55.1643 25.1461C55.2746 25.4916 55.4605 25.8164 55.6947 26.0928C55.9151 26.3485 56.1837 26.5558 56.4868 26.694C56.7968 26.8391 57.1274 26.9082 57.4718 26.9082C57.6853 26.9082 57.8988 26.8736 58.1054 26.8115C58.3603 26.7354 58.6014 26.6042 58.8011 26.4245C59.0491 26.1965 59.2488 25.92 59.3797 25.6091C59.5519 25.1668 59.6345 24.69 59.6139 24.2201C59.6139 23.7986 59.5519 23.3771 59.4141 22.9763C59.297 22.6446 59.1179 22.3406 58.8838 22.0711C58.4636 21.6012 57.8644 21.3317 57.2376 21.3317C56.9276 21.3317 56.6177 21.3801 56.3284 21.4906C56.0598 21.6012 55.8187 21.7739 55.6258 21.9882C55.4123 22.2231 55.2539 22.4995 55.1506 22.7967C55.0266 23.1629 54.9715 23.5429 54.9784 23.9299V23.9161L54.9715 23.9092Z" fill="#87AC8A"/>
<path d="M61.2531 23.46V21.767C61.2531 21.6634 61.2256 21.5528 61.1774 21.463C61.1154 21.387 61.019 21.3317 60.9156 21.3248C60.8743 21.311 60.833 21.3041 60.7848 21.3041H60.647C60.6057 21.3041 60.585 21.2902 60.585 21.2557C60.585 21.2211 60.6263 21.2004 60.709 21.1935H61.2738L61.5975 21.2073H63.7121C63.7603 21.2073 63.8085 21.2004 63.8567 21.1866C63.8774 21.1797 63.8981 21.1659 63.9187 21.152C63.9325 21.1451 63.9463 21.1382 63.9669 21.1382C63.9945 21.1382 64.0151 21.1589 64.0151 21.2073C64.0151 21.2488 64.0083 21.2902 63.9945 21.3248C63.9738 21.4077 63.96 21.4906 63.9532 21.5736V21.6772C63.9532 21.7256 63.9532 21.7739 63.9394 21.8292C63.9256 21.8845 63.9394 21.9329 63.9256 21.9882C63.9256 22.0227 63.9256 22.0573 63.9118 22.0918C63.9118 22.1125 63.9049 22.1333 63.8912 22.1471C63.8912 22.1678 63.8636 22.1747 63.8498 22.1747C63.8154 22.1747 63.7947 22.1471 63.7947 22.0849C63.7947 22.0434 63.7947 21.9951 63.781 21.9467C63.7672 21.8914 63.7534 21.8361 63.7259 21.7809C63.6845 21.7118 63.6225 21.6565 63.5537 21.6219C63.4435 21.5597 63.3195 21.5321 63.1955 21.5321L61.997 21.5114C61.9488 21.5114 61.9281 21.539 61.9281 21.6012V23.771C61.9281 23.8194 61.9419 23.8401 61.9832 23.8401H63.3332C63.409 23.8401 63.4917 23.8194 63.5674 23.7986C63.6225 23.7848 63.6708 23.7433 63.7052 23.695C63.719 23.6742 63.7327 23.6604 63.7465 23.6397C63.7534 23.6259 63.7741 23.619 63.7878 23.619C63.8154 23.619 63.8223 23.6397 63.8223 23.6812C63.8223 23.7295 63.8085 23.7779 63.8016 23.8194C63.781 23.9161 63.7672 24.0128 63.7603 24.1096C63.7603 24.151 63.7603 24.1994 63.7465 24.2478V24.6278C63.7465 24.6624 63.7465 24.697 63.7465 24.7315C63.7465 24.7661 63.7259 24.7799 63.6983 24.7799C63.6708 24.7799 63.6432 24.7522 63.6432 24.7108C63.6432 24.6693 63.6432 24.6278 63.6294 24.5726C63.6294 24.5242 63.6157 24.4758 63.595 24.4275C63.5674 24.3584 63.5261 24.3031 63.471 24.2547C63.3884 24.1925 63.2919 24.151 63.1955 24.1441H62.0177C61.9832 24.1441 61.9626 24.1649 61.9626 24.2132V25.8855C61.9626 26.1204 61.9695 26.3485 61.997 26.5834C61.997 26.6871 62.0246 26.7838 62.0659 26.8737C62.1141 26.9566 62.2037 27.0119 62.3001 27.0119L62.4929 27.0326H62.6514C62.6927 27.0326 62.7134 27.0464 62.7134 27.081C62.7134 27.1155 62.672 27.1431 62.5894 27.1431H60.8743C60.7917 27.1431 60.7503 27.1224 60.7503 27.081C60.7503 27.0533 60.771 27.0326 60.8123 27.0326H60.9294L61.0465 27.0119C61.1223 26.998 61.1843 26.9428 61.2118 26.8737C61.2463 26.7769 61.2669 26.6802 61.2738 26.5834C61.3014 26.3554 61.3082 26.1204 61.3082 25.8855V24.8766L61.26 23.4462L61.2531 23.46Z" fill="#87AC8A"/>
<path d="M67.5004 24.8421V25.8509C67.5004 26.0859 67.5072 26.3139 67.5348 26.5489C67.5348 26.6525 67.5623 26.7493 67.6037 26.8391C67.6519 26.922 67.7414 26.9773 67.8379 26.9773L68.0307 26.998H68.1891C68.2305 26.998 68.2511 27.0118 68.2511 27.0464C68.2511 27.0809 68.2098 27.1086 68.1271 27.1086H66.4052C66.3225 27.1086 66.2812 27.0879 66.2812 27.0464C66.2812 27.0188 66.3019 26.998 66.3432 26.998H66.4603L66.5774 26.9773C66.6532 26.9635 66.7151 26.9082 66.7358 26.8391C66.7702 26.7424 66.7909 26.6456 66.7978 26.5489C66.8253 26.3208 66.8322 26.0859 66.8322 25.8509V21.7739C66.8185 21.5183 66.7289 21.3731 66.5636 21.3386C66.5223 21.3317 66.4741 21.3179 66.4259 21.3179H66.3156C66.2743 21.3179 66.2537 21.304 66.2537 21.2695C66.2537 21.2349 66.295 21.2142 66.3776 21.2073H67.9343C68.0169 21.2073 68.0583 21.228 68.0583 21.2695C68.0583 21.311 68.0376 21.3248 67.9963 21.3179H67.9136C67.8792 21.3179 67.8379 21.3317 67.8034 21.3386C67.7139 21.3455 67.6312 21.4008 67.5899 21.4768C67.5417 21.5735 67.521 21.6772 67.5141 21.7878C67.5141 21.85 67.5141 21.9191 67.5004 21.9882C67.4866 22.0573 67.5004 22.154 67.5004 22.2715V24.8559H67.4866L67.5004 24.8421Z" fill="#87AC8A"/>
<path d="M69.8904 27.2192C69.7114 27.2192 69.5323 27.2053 69.3532 27.1708C69.1741 27.1431 69.0019 27.0879 68.8435 27.0119C68.8022 26.998 68.7608 26.9635 68.7402 26.922C68.7264 26.8529 68.7195 26.7838 68.7264 26.7147C68.7264 26.5143 68.7264 26.3485 68.7402 26.1965C68.7539 26.0444 68.7539 25.9477 68.7608 25.8855C68.7677 25.8233 68.7884 25.7611 68.8228 25.7611C68.8573 25.7611 68.8779 25.7888 68.8779 25.844V25.9684C68.8779 26.0237 68.8848 26.079 68.8986 26.1343C68.9261 26.2656 68.9812 26.3968 69.057 26.5074C69.1259 26.6111 69.2223 26.694 69.3256 26.7562C69.4358 26.8184 69.5529 26.8667 69.6769 26.8944C69.8009 26.922 69.9318 26.9358 70.0557 26.9358C70.2279 26.9358 70.3932 26.9082 70.5517 26.8391C70.6825 26.7838 70.7996 26.7078 70.896 26.6042C70.9856 26.5074 71.0545 26.3968 71.1027 26.2725C71.1509 26.155 71.1716 26.0237 71.1716 25.8993C71.1716 25.7749 71.1578 25.6505 71.1233 25.5262C71.0889 25.4087 71.0407 25.2981 70.9718 25.1945C70.8892 25.077 70.7996 24.9664 70.6963 24.8628C70.5792 24.7522 70.4415 24.6278 70.2761 24.4827L69.9249 24.1925C69.7458 24.0474 69.5736 23.8885 69.4152 23.7157C69.2981 23.5844 69.1948 23.4393 69.1052 23.2873C69.0363 23.1629 68.9812 23.0247 68.9468 22.8865C68.9193 22.7552 68.9055 22.6239 68.9055 22.4926C68.9055 22.2922 68.9399 22.0987 69.0157 21.9191C69.0846 21.7463 69.2017 21.5943 69.3394 21.4699C69.4841 21.3386 69.6562 21.2419 69.8422 21.1797C70.0557 21.1106 70.2899 21.076 70.5172 21.076C70.6481 21.076 70.7858 21.076 70.9167 21.0968C71.0269 21.1106 71.1302 21.1244 71.2404 21.152C71.3162 21.1659 71.3713 21.1797 71.4126 21.1797C71.4471 21.1797 71.4815 21.1797 71.516 21.1797C71.5642 21.1797 71.5917 21.2004 71.5917 21.235C71.5917 21.2695 71.5917 21.3386 71.5779 21.4699C71.5642 21.6012 71.5642 21.8085 71.5642 22.0711C71.5642 22.1886 71.5435 22.2507 71.5091 22.2507C71.4746 22.2507 71.4677 22.2507 71.4608 22.2231C71.4608 22.1955 71.4471 22.1747 71.4471 22.1471C71.4402 22.078 71.4264 22.0158 71.4126 21.9467C71.3989 21.8776 71.3782 21.8154 71.3438 21.7532C71.3231 21.7187 71.3024 21.6841 71.2749 21.6496C71.2267 21.5943 71.1716 21.5459 71.1027 21.5114C71.0131 21.4561 70.9167 21.4146 70.8134 21.387C70.6688 21.3524 70.5172 21.3386 70.3657 21.3386C70.1177 21.3317 69.8767 21.4146 69.6838 21.5736C69.4978 21.7463 69.3945 21.9882 69.4083 22.2438C69.4083 22.3475 69.4221 22.4511 69.4496 22.5548C69.4841 22.6584 69.5323 22.7621 69.6011 22.845C69.6907 22.9625 69.7871 23.08 69.8973 23.1767C70.0213 23.2942 70.1728 23.4255 70.3588 23.5706L70.5792 23.7433C70.779 23.9023 70.9649 24.0681 71.144 24.2478C71.2749 24.386 71.392 24.538 71.4953 24.6969C71.5779 24.8282 71.633 24.9734 71.6744 25.1254C71.7295 25.3672 71.7364 25.616 71.695 25.8579C71.6744 25.9753 71.6399 26.0928 71.5917 26.2034C71.5366 26.3277 71.4677 26.4521 71.3851 26.5558C71.2955 26.6802 71.1785 26.7907 71.0545 26.8736C70.8892 26.9911 70.7032 27.081 70.5034 27.1293C70.2968 27.1777 70.0902 27.2053 69.8767 27.2053L69.8904 27.2192Z" fill="#87AC8A"/>
<path d="M74.829 24.8421V25.8509C74.829 26.0859 74.8359 26.3139 74.8634 26.5489C74.8703 26.6525 74.8979 26.7493 74.9323 26.8391C74.9805 26.922 75.0701 26.9773 75.1665 26.9773L75.3594 26.998H75.5178C75.5591 26.998 75.5798 27.0119 75.5798 27.0464C75.5798 27.081 75.5384 27.1086 75.4558 27.1086H73.7407C73.6581 27.1086 73.6167 27.0879 73.6167 27.0464C73.6167 27.0188 73.6374 26.998 73.6787 26.998H73.7958L73.9129 26.9773C73.9887 26.9635 74.0507 26.9082 74.0713 26.8391C74.1058 26.7424 74.1264 26.6456 74.1402 26.5489C74.1678 26.3208 74.1747 26.0859 74.1747 25.8509V21.5252L73.0175 21.539C72.9142 21.539 72.8109 21.539 72.7076 21.5528C72.6318 21.5597 72.5491 21.5736 72.4734 21.5943C72.3632 21.6219 72.2667 21.691 72.2047 21.7809C72.1634 21.85 72.1359 21.8983 72.1152 21.9329C72.1014 21.9605 72.0877 21.9951 72.0739 22.0227C72.0532 22.0711 72.0257 22.0987 71.9981 22.0987C71.9706 22.0987 71.9568 22.078 71.9568 22.0296C71.9568 21.9813 71.9706 21.926 71.9774 21.8776C71.9912 21.8016 72.0119 21.7118 72.0326 21.615C72.0532 21.5183 72.0739 21.4353 72.0877 21.3593C72.1014 21.2833 72.1152 21.235 72.1221 21.2211C72.129 21.2073 72.1428 21.1659 72.1565 21.1313C72.1703 21.0967 72.1841 21.076 72.1979 21.076C72.2392 21.076 72.2736 21.0967 72.3081 21.1175C72.3838 21.152 72.4596 21.1659 72.5422 21.1728L72.9004 21.2004H76.4063C76.4958 21.2004 76.5785 21.1866 76.6405 21.1728L76.7782 21.1451C76.7782 21.1451 76.8333 21.1451 76.854 21.1451C76.8747 21.1451 76.8884 21.1451 76.8884 21.1728C76.8884 21.1935 76.8884 21.2142 76.8884 21.2419V22.0987C76.8884 22.1678 76.8678 22.2024 76.8333 22.2024C76.8127 22.2024 76.7989 22.2024 76.792 22.1816C76.7782 22.1471 76.7714 22.1125 76.7714 22.0711V21.9882C76.7714 21.926 76.7438 21.8707 76.7162 21.8223C76.6818 21.767 76.6267 21.7187 76.5647 21.691C76.4752 21.6496 76.3787 21.615 76.2754 21.6012C76.1239 21.5736 75.9655 21.5597 75.8139 21.5597L74.829 21.5459L74.8152 24.8559L74.829 24.8421Z" fill="#87AC8A"/>
<path d="M78.8996 21.387C78.9272 21.304 78.9616 21.2142 79.003 21.1382C79.0236 21.1036 79.0443 21.0829 79.0718 21.0829C79.0994 21.0829 79.1201 21.0967 79.1407 21.1313C79.182 21.2073 79.2165 21.2833 79.244 21.3662C79.2647 21.4146 79.3129 21.5459 79.3887 21.7394C79.4644 21.9329 79.554 22.1747 79.6642 22.458C79.7744 22.7414 79.8984 23.0523 80.0155 23.384L80.4012 24.3929C80.5252 24.7246 80.6491 25.0355 80.7662 25.3327L81.0555 26.079C81.1106 26.2241 81.1795 26.3623 81.2553 26.5005C81.3104 26.5903 81.3655 26.6802 81.4343 26.7631C81.4757 26.8184 81.5308 26.8598 81.5928 26.8944C81.6341 26.9151 81.6823 26.9358 81.7305 26.9496C81.7856 26.9704 81.8407 26.9842 81.8958 26.9911H82.0405C82.0887 26.9911 82.1162 27.0049 82.1162 27.0395C82.1162 27.074 82.1025 27.0809 82.068 27.0879C82.0336 27.0948 81.9991 27.1017 81.9578 27.1017H81.1382L80.7387 27.0879L80.5665 27.074C80.5252 27.074 80.5045 27.0602 80.5045 27.0326C80.5045 27.0049 80.5252 26.9911 80.5596 26.9773C80.5871 26.9635 80.6147 26.9427 80.6216 26.9151C80.6354 26.8667 80.6285 26.8114 80.6078 26.77L79.8846 24.842C79.8846 24.842 79.8433 24.7937 79.8157 24.7937H78.142C78.1075 24.7937 78.0731 24.8213 78.0662 24.8559L77.6047 26.2448C77.5359 26.4107 77.5014 26.5903 77.4945 26.77C77.4945 26.8391 77.529 26.9082 77.591 26.9427C77.653 26.9773 77.7218 26.998 77.7907 26.998H77.8665C77.9216 26.998 77.9422 27.0118 77.9422 27.0464C77.9422 27.0809 77.9009 27.1086 77.8251 27.1086H76.3374C76.2341 27.1086 76.1859 27.0879 76.1859 27.0464C76.1859 27.0049 76.2134 26.998 76.2547 26.998C76.2892 26.998 76.3236 26.998 76.3649 26.998C76.4063 26.998 76.4407 26.998 76.482 26.998C76.6473 26.9842 76.7989 26.9013 76.8884 26.7631C76.9917 26.6111 77.0744 26.4452 77.1364 26.2655L78.8996 21.387ZM79.7124 24.5173C79.7124 24.5173 79.7537 24.4965 79.7468 24.462L79.003 22.3475C78.9616 22.2369 78.9203 22.2369 78.8859 22.3475L78.1902 24.462C78.1764 24.4965 78.1902 24.5173 78.2109 24.5173H79.7055H79.7124Z" fill="#87AC8A"/>
<path d="M82.991 26.0444C82.991 26.1965 82.9979 26.3347 83.0185 26.4452C83.0254 26.5351 83.0461 26.6249 83.0737 26.7147C83.0943 26.7769 83.1219 26.8253 83.1632 26.8736C83.1976 26.9082 83.2458 26.9358 83.301 26.9497C83.3767 26.9704 83.4525 26.9842 83.5351 26.9911H83.7004C83.7418 26.9911 83.7624 27.0049 83.7624 27.0395C83.7624 27.074 83.7142 27.1017 83.6247 27.1017C83.3905 27.1017 83.2183 27.1017 83.0668 27.0879H82.5226C82.378 27.0879 82.2196 27.1017 82.0405 27.1017C81.9578 27.1017 81.9165 27.081 81.9165 27.0395C81.9165 27.0119 81.9372 26.9911 81.9785 26.9911H82.1163C82.1782 26.9911 82.2402 26.9704 82.2953 26.9497C82.4055 26.9151 82.4813 26.8115 82.4882 26.7009C82.5226 26.4521 82.5364 26.2034 82.5295 25.9546V21.4699C82.5295 21.3662 82.5295 21.2626 82.5502 21.1589C82.564 21.1037 82.5846 21.076 82.6191 21.076C82.6535 21.076 82.6948 21.1106 82.7499 21.1728C82.805 21.235 82.8532 21.2833 82.8946 21.3248C82.9359 21.3662 83.0117 21.4561 83.1632 21.6219C83.3147 21.7878 83.5007 21.9882 83.728 22.2369L84.4994 23.0661L85.3742 24.0128C85.567 24.2201 85.7599 24.4344 85.9596 24.6486C86.1525 24.8628 86.3385 25.0632 86.5107 25.2498L86.9721 25.7473C87.103 25.8924 87.2063 25.9961 87.2614 26.0582L87.1719 22.078C87.1719 21.8983 87.1581 21.7118 87.1099 21.539C87.0755 21.4353 86.9859 21.3593 86.8757 21.3317C86.7999 21.3179 86.7242 21.3041 86.6415 21.3041H86.4762C86.4349 21.3041 86.4142 21.2833 86.4142 21.2488C86.4142 21.2142 86.4693 21.1935 86.5727 21.1935H87.6127C87.7229 21.1935 87.8744 21.1797 88.0329 21.1797C88.1224 21.1797 88.1706 21.2004 88.1706 21.235C88.1706 21.2695 88.1431 21.2902 88.0811 21.2902H88.0053C87.9709 21.2902 87.9295 21.3041 87.8951 21.311C87.7918 21.3248 87.6954 21.4008 87.6609 21.4975C87.6265 21.6634 87.6058 21.8361 87.6127 22.002L87.5989 26.5903V27.0602C87.5989 27.0602 87.592 27.1086 87.5783 27.1293C87.5714 27.1431 87.5576 27.1431 87.5438 27.1431C87.5232 27.1431 87.5025 27.1362 87.4887 27.1224C87.4543 27.1017 87.4198 27.074 87.3923 27.0464C87.351 27.0119 87.2959 26.9635 87.2339 26.8944L86.979 26.6387L86.7448 26.4038C86.6071 26.2656 86.4418 26.0928 86.242 25.8855L85.5739 25.2083C85.3397 24.9734 85.1262 24.7453 84.9196 24.5104L84.2446 23.7917L83.6453 23.1283C83.4663 22.921 83.3078 22.7483 83.1701 22.5963C83.0323 22.4442 82.9359 22.3337 82.8739 22.2646L82.9841 26.0168L82.991 26.0444Z" fill="#87AC8A"/>
<path d="M89.4587 23.46V21.767C89.4587 21.6634 89.4242 21.5528 89.3829 21.463C89.3209 21.3801 89.2245 21.3317 89.1212 21.3248C89.0798 21.311 89.0385 21.304 88.9972 21.304H88.8594C88.8181 21.304 88.7974 21.2902 88.7974 21.2557C88.7974 21.2211 88.8388 21.2004 88.9214 21.1935H90.1543C90.299 21.1935 90.4643 21.1797 90.6502 21.1797C90.9189 21.1728 91.1806 21.2142 91.4286 21.311C91.6076 21.3801 91.773 21.4906 91.9107 21.6219C92.014 21.7325 92.0967 21.8638 92.1449 22.002C92.1793 22.1125 92.2069 22.23 92.2069 22.3544C92.2069 22.4995 92.1862 22.6515 92.1449 22.7897C92.1036 22.921 92.0485 23.0385 91.9796 23.156C91.9107 23.2665 91.8349 23.3702 91.7454 23.4738C91.6627 23.5775 91.5663 23.6742 91.4768 23.7641C91.6352 23.8193 91.7936 23.8884 91.9383 23.9714C92.0967 24.0612 92.2482 24.1787 92.3722 24.3169C92.5099 24.4551 92.6201 24.6209 92.7028 24.8006C92.7923 24.9941 92.8337 25.2083 92.8337 25.4225C92.8337 25.6367 92.7923 25.844 92.7097 26.0375C92.627 26.2448 92.4962 26.4314 92.3377 26.5834C92.1587 26.7562 91.9451 26.8875 91.7179 26.9773C91.4355 27.0809 91.1393 27.1293 90.8431 27.1224H90.6089L90.2714 27.1086C90.1612 27.1086 90.0579 27.0948 89.9615 27.0879H89.0316C88.949 27.0879 88.9076 27.0671 88.9076 27.0257C88.9076 26.998 88.9283 26.9773 88.9696 26.9773H89.0867L89.2038 26.9566C89.2796 26.9427 89.3416 26.8875 89.3622 26.8184C89.3967 26.7216 89.4173 26.6249 89.4311 26.5281C89.4587 26.3001 89.4655 26.0652 89.4655 25.8302V23.46H89.4587ZM90.0854 23.6328C90.0854 23.6673 90.1061 23.7088 90.1405 23.7226L90.2852 23.7433C90.361 23.7433 90.4643 23.7572 90.6158 23.7572H90.8913C90.9533 23.7572 91.0153 23.7502 91.0704 23.7295C91.1186 23.7157 91.1599 23.695 91.2082 23.6673C91.2495 23.6328 91.2908 23.5982 91.3252 23.5568C91.4148 23.4531 91.4837 23.3425 91.5319 23.2113C91.587 23.0661 91.6076 22.9141 91.6076 22.7621C91.6076 22.5962 91.587 22.4373 91.5457 22.2784C91.5112 22.1264 91.4492 21.9743 91.3666 21.843C91.2839 21.7187 91.1737 21.6081 91.0428 21.5321C90.8913 21.4492 90.726 21.4077 90.5538 21.4146H90.3816C90.3127 21.4146 90.2439 21.4284 90.175 21.4492C90.113 21.463 90.0786 21.4906 90.0786 21.5321V23.6328H90.0854ZM90.0854 24.462V26.155C90.0854 26.2448 90.0854 26.3277 90.0992 26.3899C90.0992 26.4452 90.113 26.5005 90.1337 26.5558C90.1474 26.5972 90.175 26.6387 90.2094 26.6663C90.2507 26.7078 90.299 26.7354 90.3472 26.7631C90.4023 26.7907 90.4643 26.8114 90.5263 26.8253C90.5882 26.8391 90.6571 26.8529 90.7191 26.8598C90.7811 26.8598 90.8431 26.8736 90.8982 26.8736H91.036C91.153 26.8736 91.2701 26.8529 91.3803 26.8253C91.6559 26.7562 91.89 26.5696 92.0209 26.307C92.1036 26.1343 92.138 25.9477 92.1311 25.7611C92.1311 25.6298 92.1173 25.5054 92.0967 25.381C92.0691 25.2359 92.0347 25.0908 91.9796 24.9595C91.9176 24.8144 91.8418 24.6762 91.7454 24.5518C91.6421 24.4136 91.5181 24.2961 91.3735 24.1994C91.2633 24.1234 91.1462 24.0681 91.0222 24.0267C90.9257 23.999 90.8293 23.9852 90.726 23.9714C90.6847 23.9714 90.6434 23.9645 90.6089 23.9575H90.1199C90.1199 23.9575 90.0717 23.9783 90.0717 24.0128L90.0854 24.462Z" fill="#87AC8A"/>
<path d="M93.6671 23.46V21.9674C93.6671 21.8983 93.6671 21.8292 93.6533 21.767C93.6533 21.6634 93.6189 21.5528 93.5775 21.463C93.5155 21.387 93.4191 21.3317 93.3227 21.3248C93.2814 21.311 93.24 21.3041 93.1918 21.3041H93.0541C93.0127 21.3041 92.9921 21.2902 92.9921 21.2557C92.9921 21.2211 93.0334 21.2004 93.1161 21.1935H94.776C94.8587 21.1935 94.9 21.2142 94.9 21.2557C94.9 21.2971 94.8793 21.311 94.838 21.3041H94.7553C94.7209 21.3041 94.6796 21.3179 94.6451 21.3248C94.5556 21.3248 94.4729 21.3801 94.4316 21.4561C94.3834 21.5528 94.3627 21.6634 94.3559 21.767V24.5587C94.3559 24.8006 94.3696 25.0494 94.3972 25.2912C94.4178 25.4709 94.4592 25.6575 94.5143 25.8302C94.5556 25.9684 94.6245 26.0997 94.7002 26.2172C94.7691 26.3208 94.8449 26.4107 94.9344 26.4936C95.0928 26.6525 95.2857 26.7769 95.4992 26.846C95.699 26.9013 95.9056 26.922 96.1122 26.922C96.5806 26.922 97.0283 26.7147 97.3452 26.3554C97.5311 26.1135 97.662 25.8371 97.7102 25.5331C97.7722 25.1738 97.8066 24.8006 97.7997 24.4344V21.9605C97.7997 21.8914 97.7997 21.8223 97.786 21.7601C97.786 21.6565 97.7584 21.5459 97.7102 21.4561C97.6482 21.3801 97.5518 21.3248 97.4554 21.3179C97.414 21.3041 97.3727 21.2971 97.3245 21.2971H97.1867C97.1454 21.2971 97.1247 21.2833 97.1247 21.2488C97.1247 21.2142 97.1661 21.1935 97.2487 21.1866H98.7296C98.8122 21.1866 98.8536 21.2073 98.8536 21.2488C98.8536 21.2902 98.8329 21.3041 98.7916 21.2971H98.7089C98.6745 21.2971 98.6332 21.311 98.5987 21.3179C98.5092 21.3317 98.4334 21.3801 98.3852 21.4561C98.3439 21.5528 98.3163 21.6565 98.3094 21.7601C98.3094 21.8223 98.3094 21.8914 98.2957 21.9605C98.2819 22.0296 98.2957 22.1264 98.2957 22.2438V24.2962C98.2957 24.5104 98.2957 24.7246 98.2681 24.9457C98.2543 25.1599 98.2199 25.3672 98.1648 25.5815C98.1166 25.7818 98.0408 25.9753 97.9444 26.1619C97.848 26.3416 97.724 26.5074 97.5656 26.6456C97.4347 26.7631 97.29 26.8667 97.1385 26.9497C97.0008 27.0188 96.863 27.081 96.7184 27.1293C96.5875 27.1708 96.4566 27.1984 96.3189 27.2123C96.1949 27.2261 96.0709 27.233 95.9538 27.233C95.8849 27.233 95.7885 27.233 95.6645 27.2192C95.5268 27.2123 95.389 27.1846 95.2582 27.157C95.0997 27.1155 94.9413 27.0602 94.7967 26.9842C94.6314 26.9082 94.4798 26.8046 94.349 26.6733C94.2525 26.5765 94.163 26.466 94.0872 26.3554C93.9977 26.2241 93.9288 26.079 93.8737 25.9339C93.8048 25.7473 93.7566 25.5607 93.7291 25.3672C93.6946 25.1185 93.6808 24.8697 93.6808 24.614L93.6602 23.46H93.6671Z" fill="#87AC8A"/>
<path d="M100.631 24.8559C100.631 25.4294 100.644 25.8578 100.665 26.1343C100.658 26.3139 100.706 26.5005 100.803 26.6525C100.837 26.6871 100.872 26.7147 100.913 26.7354C100.968 26.7631 101.023 26.7769 101.085 26.7907C101.175 26.8045 101.264 26.8184 101.354 26.8253H101.74C101.926 26.8253 102.112 26.8184 102.297 26.7907C102.449 26.7769 102.587 26.7009 102.683 26.5834C102.738 26.5143 102.787 26.4383 102.821 26.3485C102.855 26.2725 102.876 26.1964 102.89 26.1135C102.89 26.0444 102.924 26.0099 102.959 26.0099C102.993 26.0099 103.007 26.0513 103.007 26.1273V26.2517C103.007 26.3208 102.993 26.3899 102.979 26.4659C102.966 26.542 102.952 26.6249 102.945 26.7009C102.931 26.77 102.917 26.8391 102.904 26.9082C102.89 26.9427 102.876 26.9842 102.862 27.0188C102.849 27.0464 102.828 27.0671 102.8 27.0809C102.759 27.1017 102.711 27.1086 102.663 27.1086H101.684L101.12 27.0948C100.954 27.0948 100.81 27.0809 100.686 27.074H100.004L99.7697 27.0879H99.563C99.4804 27.0879 99.4391 27.0671 99.4391 27.0257C99.4391 26.998 99.4597 26.9773 99.501 26.9773H99.6181L99.7352 26.9566C99.811 26.9427 99.873 26.8875 99.8936 26.8184C99.9281 26.7216 99.9488 26.6249 99.9625 26.5281C99.9901 26.3001 99.997 26.0652 99.997 25.8302V21.9674C99.997 21.8983 99.997 21.8292 99.9832 21.767C99.9832 21.6634 99.9556 21.5528 99.9074 21.463C99.8454 21.387 99.749 21.3317 99.6526 21.3248C99.6112 21.311 99.5699 21.304 99.5217 21.304H99.3839C99.3426 21.304 99.322 21.2902 99.322 21.2557C99.322 21.2211 99.3633 21.2004 99.4459 21.1935H101.182C101.264 21.1935 101.306 21.2142 101.306 21.2557C101.306 21.2971 101.285 21.311 101.244 21.304H101.133C101.085 21.304 101.037 21.311 100.989 21.3248C100.892 21.3248 100.81 21.3801 100.755 21.463C100.706 21.5597 100.686 21.6634 100.679 21.7739C100.679 21.8361 100.679 21.9052 100.665 21.9743C100.651 22.0434 100.665 22.1402 100.665 22.2576V24.8628H100.631V24.8559Z" fill="#87AC8A"/>
<path d="M39.4946 30.6121V32.7749H39.1984V31.7937H38.0344V32.7749H37.7382V30.6121H38.0344V31.5588H39.1984V30.6121H39.4946Z" fill="#87AC8A"/>
<path d="M41.3543 32.2912H40.3625L40.1765 32.7749H39.8597L40.6862 30.6259H41.0306L41.8503 32.7749H41.5334L41.3474 32.2912H41.3543ZM41.2648 32.0632L40.8515 30.9714L40.4383 32.0632H41.2648Z" fill="#87AC8A"/>
<path d="M42.5045 30.6121V32.7749H42.2084V30.6121H42.5045Z" fill="#87AC8A"/>
<path d="M44.2197 32.768L43.6755 31.8835H43.3174V32.768H43.0212V30.6052H43.7582C43.9304 30.6052 44.075 30.6328 44.1921 30.6881C44.3092 30.7434 44.3987 30.8194 44.4607 30.9161C44.5227 31.0129 44.5503 31.1234 44.5503 31.2409C44.5503 31.386 44.5021 31.5242 44.4125 31.6348C44.323 31.7453 44.1852 31.8214 44.0061 31.8628L44.5778 32.768H44.2197ZM43.3105 31.6624H43.7513C43.9097 31.6624 44.0337 31.6279 44.1163 31.5519C44.199 31.4758 44.2403 31.3722 44.2403 31.2478C44.2403 31.1234 44.199 31.0198 44.1232 30.9507C44.0475 30.8816 43.9235 30.847 43.7582 30.847H43.3174V31.6624H43.3105Z" fill="#87AC8A"/>
<path d="M47.2847 30.6121V30.8401H46.6648V32.7749H46.3686V30.8401H45.7418V30.6121H47.2916H47.2847Z" fill="#87AC8A"/>
<path d="M48.8551 32.768L48.311 31.8835H47.9528V32.768H47.6566V30.6052H48.3936C48.5658 30.6052 48.7104 30.6328 48.8275 30.6881C48.9446 30.7434 49.0342 30.8194 49.0962 30.9161C49.1582 31.0129 49.1857 31.1234 49.1857 31.2409C49.1857 31.386 49.1375 31.5242 49.0479 31.6348C48.9584 31.7453 48.8207 31.8214 48.6416 31.8628L49.2133 32.768H48.8551ZM47.9459 31.6624H48.3867C48.5451 31.6624 48.6691 31.6279 48.7518 31.5519C48.8344 31.4758 48.8758 31.3722 48.8758 31.2478C48.8758 31.1234 48.8344 31.0198 48.7587 30.9507C48.6829 30.8816 48.5589 30.847 48.3936 30.847H47.9528V31.6624H47.9459Z" fill="#87AC8A"/>
<path d="M50.9903 32.2912H49.9985L49.8125 32.7749H49.4957L50.3222 30.6259H50.6666L51.4862 32.7749H51.1694L50.9834 32.2912H50.9903ZM50.9077 32.0632L50.4944 30.9714L50.0811 32.0632H50.9077Z" fill="#87AC8A"/>
<path d="M53.6421 32.768H53.346L52.1475 31.0474V32.768H51.8513V30.6052H52.1475L53.346 32.3258V30.6052H53.6421V32.768Z" fill="#87AC8A"/>
<path d="M54.4687 32.7197C54.3516 32.6713 54.2551 32.6022 54.1863 32.5054C54.1174 32.4156 54.0829 32.312 54.0829 32.1945H54.3998C54.4136 32.2981 54.4549 32.3811 54.5307 32.4502C54.6064 32.5193 54.7235 32.5538 54.8682 32.5538C55.0128 32.5538 55.123 32.5193 55.2057 32.4502C55.2883 32.3811 55.3296 32.2981 55.3296 32.1945C55.3296 32.1116 55.3021 32.0425 55.2608 31.9941C55.2125 31.9457 55.1506 31.9043 55.0817 31.8766C55.0128 31.849 54.9095 31.8213 54.7924 31.7868C54.6409 31.7522 54.5238 31.7108 54.4342 31.6762C54.3447 31.6417 54.2689 31.5795 54.2 31.5035C54.1381 31.4275 54.1036 31.3169 54.1036 31.1856C54.1036 31.0681 54.1381 30.9645 54.2 30.8746C54.262 30.7848 54.3516 30.7157 54.4687 30.6604C54.5858 30.6121 54.7166 30.5844 54.8613 30.5844C55.0748 30.5844 55.247 30.6328 55.3847 30.7364C55.5225 30.8401 55.5983 30.9714 55.6189 31.1372H55.2952C55.2814 31.0543 55.2401 30.9852 55.1574 30.9161C55.0748 30.8539 54.9715 30.8194 54.8337 30.8194C54.7097 30.8194 54.6064 30.8539 54.5307 30.9092C54.4549 30.9714 54.4136 31.0543 54.4136 31.1649C54.4136 31.2409 54.4342 31.31 54.4824 31.3584C54.5307 31.4067 54.5858 31.4482 54.6546 31.4689C54.7235 31.4896 54.8199 31.5242 54.9439 31.5587C55.0955 31.6002 55.2194 31.6348 55.309 31.6762C55.3985 31.7108 55.4812 31.773 55.5432 31.8559C55.6052 31.9388 55.6396 32.0425 55.6396 32.1807C55.6396 32.2843 55.612 32.388 55.55 32.4778C55.4881 32.5676 55.4054 32.6436 55.2883 32.7058C55.1712 32.7611 55.0335 32.7957 54.8819 32.7957C54.7304 32.7957 54.5995 32.768 54.4756 32.7197H54.4687Z" fill="#87AC8A"/>
<path d="M57.4029 31.69C57.272 31.8075 57.0723 31.8697 56.8105 31.8697H56.3697V32.7749H56.0735V30.6121H56.8105C57.0654 30.6121 57.2651 30.6743 57.396 30.7917C57.5338 30.9092 57.5957 31.0612 57.5957 31.2478C57.5957 31.4344 57.5269 31.5795 57.4029 31.697V31.69ZM57.1756 31.5311C57.2514 31.462 57.2927 31.3653 57.2927 31.2409C57.2927 30.9714 57.1343 30.8401 56.8105 30.8401H56.3697V31.6348H56.8105C56.9758 31.6348 57.0998 31.6002 57.1756 31.5311Z" fill="#87AC8A"/>
<path d="M58.2707 32.54H59.0697V32.768H57.9745V30.6052H58.2707V32.54Z" fill="#87AC8A"/>
<path d="M60.7296 32.2912H59.7378L59.5518 32.7749H59.235L60.0615 30.6259H60.4059L61.2256 32.7749H60.9087L60.7228 32.2912H60.7296ZM60.647 32.0632L60.2337 30.9714L59.8204 32.0632H60.647Z" fill="#87AC8A"/>
<path d="M63.3884 32.768H63.0922L61.8937 31.0474V32.768H61.5975V30.6052H61.8937L63.0922 32.3258V30.6052H63.3884V32.768Z" fill="#87AC8A"/>
<path d="M65.2963 30.6121V30.8401H64.6764V32.7749H64.3802V30.8401H63.7534V30.6121H65.3032H65.2963Z" fill="#87AC8A"/>
<path d="M68.2925 32.768L67.9963 32.4847C67.8861 32.5953 67.769 32.6782 67.6381 32.7266C67.5073 32.7749 67.3695 32.8026 67.2111 32.8026C67.0527 32.8026 66.9149 32.7749 66.7909 32.7197C66.6669 32.6644 66.5774 32.5884 66.5085 32.4916C66.4396 32.3949 66.4052 32.2774 66.4052 32.1461C66.4052 31.9941 66.4534 31.8628 66.543 31.7453C66.6325 31.6279 66.7703 31.538 66.9425 31.4758C66.8736 31.3998 66.8254 31.3238 66.7909 31.2616C66.7565 31.1994 66.7427 31.1234 66.7427 31.0474C66.7427 30.9576 66.7703 30.8746 66.8185 30.7986C66.8667 30.7295 66.9356 30.6673 67.032 30.6259C67.1284 30.5844 67.2317 30.5637 67.3488 30.5637C67.4659 30.5637 67.5692 30.5844 67.6588 30.6328C67.7483 30.6812 67.8103 30.7364 67.8585 30.8125C67.9067 30.8885 67.9205 30.9783 67.9205 31.0681H67.6243C67.6243 30.9852 67.6037 30.9161 67.5486 30.8677C67.4935 30.8194 67.4315 30.7986 67.3419 30.7986C67.2524 30.7986 67.1835 30.8194 67.1284 30.8677C67.0733 30.9161 67.0458 30.9714 67.0458 31.0474C67.0458 31.1096 67.0664 31.1718 67.1009 31.2271C67.1353 31.2823 67.1973 31.3584 67.28 31.4413L67.9618 32.0908L68.0238 32.001L68.2443 31.6486H68.5611L68.2925 32.0908C68.258 32.153 68.2098 32.2152 68.1616 32.2843L68.6782 32.7749H68.2856L68.2925 32.768ZM67.5279 32.4985C67.6243 32.4571 67.7139 32.388 67.7965 32.2981L67.1284 31.6624C66.846 31.7661 66.7083 31.925 66.7083 32.1461C66.7083 32.2705 66.7565 32.3672 66.846 32.4502C66.9356 32.5331 67.0595 32.5676 67.2042 32.5676C67.3213 32.5676 67.4315 32.5469 67.521 32.4985H67.5279Z" fill="#87AC8A"/>
<path d="M71.2404 30.6121V30.8401H70.6205V32.7749H70.3244V30.8401H69.6976V30.6121H71.2473H71.2404Z" fill="#87AC8A"/>
<path d="M72.8108 32.768L72.2667 31.8835H71.9085V32.768H71.6124V30.6052H72.3494C72.5216 30.6052 72.6662 30.6328 72.7833 30.6881C72.9004 30.7434 72.9899 30.8194 73.0519 30.9161C73.1139 31.0129 73.1415 31.1234 73.1415 31.2409C73.1415 31.386 73.0932 31.5242 73.0037 31.6348C72.9142 31.7453 72.7764 31.8214 72.5973 31.8628L73.169 32.768H72.8108ZM71.9017 31.6624H72.3425C72.5009 31.6624 72.6249 31.6279 72.7075 31.5519C72.7902 31.4758 72.8315 31.3722 72.8315 31.2478C72.8315 31.1234 72.7902 31.0198 72.7144 30.9507C72.6318 30.8816 72.5147 30.847 72.3494 30.847H71.9085V31.6624H71.9017Z" fill="#87AC8A"/>
<path d="M73.8922 30.8401V31.5656H74.7257V31.8006H73.8922V32.5469H74.8221V32.7818H73.5961V30.619H74.8221V30.8539H73.8922V30.8401Z" fill="#87AC8A"/>
<path d="M76.6267 32.2912H75.6348L75.4489 32.7749H75.132L75.9586 30.6259H76.3029L77.1226 32.7749H76.8058L76.6198 32.2912H76.6267ZM76.5371 32.0632L76.1239 30.9714L75.7106 32.0632H76.5371Z" fill="#87AC8A"/>
<path d="M78.8859 30.6121V30.8401H78.266V32.7749H77.9698V30.8401H77.343V30.6121H78.8928H78.8859Z" fill="#87AC8A"/>
<path d="M81.5721 30.6259V32.768H81.2759V31.1718L80.5252 32.768H80.3116L79.554 31.1649V32.768H79.2578V30.6259H79.5747L80.415 32.4018L81.2553 30.6259H81.5721Z" fill="#87AC8A"/>
<path d="M82.3711 30.8401V31.5656H83.2045V31.8006H82.3711V32.5469H83.301V32.7818H82.075V30.619H83.301V30.8539H82.3711V30.8401Z" fill="#87AC8A"/>
<path d="M85.5464 32.768H85.2502L84.0517 31.0474V32.768H83.7556V30.6052H84.0517L85.2502 32.3258V30.6052H85.5464V32.768Z" fill="#87AC8A"/>
<path d="M87.4612 30.6121V30.8401H86.8413V32.7749H86.5451V30.8401H85.9183V30.6121H87.4681H87.4612Z" fill="#87AC8A"/>
<path d="M88.7423 31.1234C88.8456 30.9576 88.9834 30.8263 89.1556 30.7295C89.3278 30.6328 89.5206 30.5844 89.7341 30.5844C89.9821 30.5844 90.2025 30.6397 90.3885 30.7572C90.5744 30.8677 90.7053 31.0336 90.7949 31.2409H90.4367C90.3747 31.1096 90.2852 31.0128 90.1612 30.9368C90.0372 30.8608 89.8994 30.8332 89.7341 30.8332C89.5688 30.8332 89.4311 30.8677 89.3071 30.9368C89.1831 31.0059 89.0798 31.1096 89.0109 31.234C88.942 31.3653 88.9007 31.5173 88.9007 31.69C88.9007 31.8628 88.9351 32.0148 89.0109 32.1392C89.0867 32.2636 89.1831 32.3672 89.3071 32.4363C89.4311 32.5054 89.5757 32.54 89.7341 32.54C89.8926 32.54 90.0441 32.5054 90.1612 32.4363C90.2783 32.3672 90.3747 32.2636 90.4367 32.1392H90.7949C90.7122 32.3465 90.5744 32.5054 90.3885 32.616C90.2025 32.7266 89.989 32.7888 89.7341 32.7888C89.5206 32.7888 89.3278 32.7404 89.1556 32.6506C88.9834 32.5538 88.8456 32.4225 88.7423 32.2567C88.639 32.0908 88.5908 31.8973 88.5908 31.69C88.5908 31.4827 88.639 31.2893 88.7423 31.1234Z" fill="#87AC8A"/>
<path d="M91.5249 32.54H92.3239V32.768H91.2288V30.6052H91.5249V32.54Z" fill="#87AC8A"/>
<path d="M92.9439 30.6121V32.7749H92.6477V30.6121H92.9439Z" fill="#87AC8A"/>
<path d="M95.2444 32.768H94.9482L93.7497 31.0474V32.768H93.4536V30.6052H93.7497L94.9482 32.3258V30.6052H95.2444V32.768Z" fill="#87AC8A"/>
<path d="M96.0503 30.6121V32.7749H95.7541V30.6121H96.0503Z" fill="#87AC8A"/>
<path d="M96.5944 31.1234C96.6977 30.9576 96.8355 30.8263 97.0077 30.7295C97.1799 30.6328 97.3727 30.5844 97.5862 30.5844C97.8342 30.5844 98.0546 30.6397 98.2406 30.7572C98.4266 30.8677 98.5574 31.0336 98.647 31.2409H98.2888C98.2268 31.1096 98.1373 31.0128 98.0133 30.9368C97.8893 30.8608 97.7515 30.8332 97.5862 30.8332C97.4209 30.8332 97.2832 30.8677 97.1592 30.9368C97.0352 31.0059 96.9319 31.1096 96.863 31.234C96.7941 31.3653 96.7528 31.5173 96.7528 31.69C96.7528 31.8628 96.7873 32.0148 96.863 32.1392C96.9388 32.2636 97.0352 32.3672 97.1592 32.4363C97.2832 32.5054 97.4278 32.54 97.5862 32.54C97.7447 32.54 97.8962 32.5054 98.0133 32.4363C98.1304 32.3672 98.2268 32.2636 98.2888 32.1392H98.647C98.5643 32.3465 98.4266 32.5054 98.2406 32.616C98.0546 32.7266 97.8411 32.7888 97.5862 32.7888C97.3727 32.7888 97.1799 32.7404 97.0077 32.6506C96.8355 32.5538 96.6977 32.4225 96.5944 32.2567C96.4911 32.0908 96.4429 31.8973 96.4429 31.69C96.4429 31.4827 96.4911 31.2893 96.5944 31.1234Z" fill="#87AC8A"/>
</g>
<defs>
<clipPath id="clip0_13_71">
<rect width="103" height="42" fill="white"/>
</clipPath>
</defs>
</svg>
