<svg xmlns="http://www.w3.org/2000/svg" width="173" height="183" viewBox="0 0 173 183" fill="none"><path d="m172.46 0-48.509 15.864c-8.644-4.866-14.977-7.475-18.924-7.773a27 27 0 0 0-2.097-.075c-7.12 0-21.232 3.715-24.507 5.302-4.448 2.155-6.42 4.089-5.864 5.757a2.66 2.66 0 0 0 1.21 1.474l-4.442 2.473a1.2 1.2 0 0 0-.075-.622 1.15 1.15 0 0 0-.965-.667 1 1 0 0 0-.159-.008c-2.004.005-14.856 7.037-18.374 10.746-.51.533-1.486 1.605-2.17 2.349C43.49 39.28 36.67 43.635 31.62 45.8c-.973.418-1.937.815-2.908 1.229L.002 56.41v1.697l20.585-6.738c-2.27 1.61-4.64 3.712-7.18 6.66a473 473 0 0 1-2.86 3.284c-1.63 1.86-2.983 3.408-4.06 4.775l.08-.252L0 64.02v1.66l5.61 1.554c-1.585 2.18-2.288 3.88-2.06 5.676.467 3.48 5.696 12.36 15.878 13.689 1.558.203 3.13.304 4.703.304.339 0 .675-.009 1.008-.018l25.976 30.966.924 1.097s.008.024.011.038l6.328 7.55.043.023 16.176 19.28 4.796 5.72 5.056 6.023 2.27 20.83-25.063-29.874-2.832-3.371-4.142-4.943-1.056-1.265L.003 75.038v2.594l53.035 63.22 1.193 1.422 2.189 2.609 2.259 2.693 29.346 34.985L172.46 22.84v-3.623L88.41 178.23l-2.273-20.945.704-1.344 6.128-11.581 7.306-13.81.62-1.173.544-1.031 4.633-8.768 5.503-10.408a41 41 0 0 0 2.976-5.635l12.959-24.531c1.489-.843 3.03-1.648 4.547-2.45 5.079-2.661 10.324-5.415 13.086-9.264 2.41-2.734 4.596-7.358 6.18-11.328 1.1-2.309 2.126-4.567 2.991-6.467 1.029-2.262 1.839-4.048 2.152-4.54 1.121-1.75-1.54-5.74-2.38-6.922a34 34 0 0 0-3.009-3.617l7.865-14.879L172.46 8.355V6.22l-14.65 12.12-19.42 6.35q-6.885-4.477-12.553-7.755L172.46 1.691zM75.834 20.957l1.978-1.106-2.302-.142c-.05 0-1.252-.09-1.57-1.042-.223-.66.993-2.143 5.152-4.159 1.277-.617 4.184-1.57 7.682-2.484-.524.295-1.146.654-1.859 1.065L82.5 14.51c-.88.509-1.868 1.039-2.867 1.679-.5.33-1.01.66-1.514 1.057a6 6 0 0 0-.739.683c-.133.145-.246.31-.333.484-.06.113-.098.237-.116.362a.87.87 0 0 0 .145.617l.047.058s0 .008.026.028q.061.063.127.116c.035.023.067.047.104.067q.171.1.368.148.3.076.614.09.544.02 1.089-.038 1.048-.113 2.073-.348a22.6 22.6 0 0 0 3.504-1.094l.88 2.093.435 1.034q.045-.083.087-.165l.153-.243c.03-.044.058-.081.087-.122l-.428-1.03-.745-1.77.064-.029q.514-.234.985-.541c.266-.186.527-.35.822-.513.57-.33 1.167-.62 1.76-.904.594-.283 1.208-.55 1.81-.796q.456-.19.901-.356.226-.083.443-.165.134-.047.267-.081l.104.066c.153.093.304.165.452.246.298.151.593.284.88.412q.866.368 1.775.628h.018c.842 1.089 2.432 3.362 2.43 4.932a5 5 0 0 1-.56.834 8 8 0 0 1-.99 1.013 15 15 0 0 1-2.407 1.636q-.36.188-.689.426c-.026.02-.043.04-.07.06q.239-.369.56-.682.217-.204.451-.415.25-.253.458-.535c.287-.383.524-.8.704-1.237.19-.457.312-.935.362-1.425a3.3 3.3 0 0 0-.194-1.508 2.65 2.65 0 0 0-.959-1.214 3.6 3.6 0 0 0-1.317-.559l-.163-.037-.162-.026-.313-.044c-.205-.011-.405-.029-.593-.029h-.539l-.48.044c-.302.032-.557.08-.77.118-.42.09-.655.151-.655.151s.246.012.671.015l.762.037.463.04.504.064c.177.026.354.067.527.102l.273.075.136.038.136.049c.37.116.715.298 1.013.536.076.06.136.133.209.194.072.06.119.145.177.217.104.153.19.321.251.495.128.377.168.773.125 1.164-.04.414-.136.823-.284 1.213a6 6 0 0 1-.541 1.139 5 5 0 0 1-.34.472l-.42.469c-.257.315-.46.669-.599 1.045q-.078.218-.115.443v-.02c.023-.333.08-.666.176-.988a5 5 0 0 1 .177-.527q.052-.136.107-.266c.038-.087.078-.185.122-.28.18-.438.269-.899.269-1.368 0-.49-.101-.973-.304-1.424a2.64 2.64 0 0 0-1.025-1.18 2.4 2.4 0 0 0-.78-.292 2.5 2.5 0 0 0-.804 0c-.47.082-.912.255-1.3.513a5.3 5.3 0 0 0-.895.741c-.22.22-.423.458-.608.704-.177.223-.299.423-.403.59-.104.169-.177.305-.229.398l-.075.144.452-.434c.145-.133.321-.296.527-.475.205-.18.443-.377.704-.57q.421-.31.891-.548a3 3 0 0 1 1.043-.316c.35-.034.7.047.99.232.307.212.548.495.695.825.162.35.255.727.275 1.107.02.376-.023.753-.133 1.118q-.044.148-.092.292c-.032.096-.058.203-.087.304q-.077.301-.122.594a5 5 0 0 0-.038 1.109c.03.31.093.62.194.915.02.055.044.101.064.153q-.032.185-.029.368v.052q-.057-.063-.116-.139l-.052-.07a3 3 0 0 1-.284-.726 13 13 0 0 1-.266-1.607q-.05-.405-.113-.825a5 5 0 0 0-.197-.84 1.7 1.7 0 0 0-.55-.826 1.1 1.1 0 0 0-.568-.205 1 1 0 0 0-.29 0 2 2 0 0 0-.504.127l-.1.038-.032.014-.015.009-.026.014-.055.026q-.223.101-.423.232-.401.27-.715.623c-.4.463-.707.993-.9 1.56A7.5 7.5 0 0 0 87 26.06a9 9 0 0 0-.063.857v.087l-.055-.023a8 8 0 0 1-.319-.577 7.3 7.3 0 0 1-.576-1.555 5.5 5.5 0 0 1-.153-1.161v-.165q.001-.288.037-.576.029-.182.064-.356l.06-.22c.012-.041.02-.082.035-.12q.076-.209.177-.41l-.608-.698-1.251-1.437a.264.264 0 0 0-.325-.058.24.24 0 0 0-.115.293l1.335 3.443-2.49-2.823a.27.27 0 0 0-.36-.035.23.23 0 0 0-.075.278l1.332 3.046-2.18-2.586a.27.27 0 0 0-.36-.046.23.23 0 0 0-.084.275l.973 2.51a2 2 0 0 0-.116.224l-1.772-2.23a.27.27 0 0 0-.33-.067c-.113.058-.16.186-.113.296l.547 1.317c-.19.128-.37.273-.538.426l-1.057-1.19a.27.27 0 0 0-.362-.026.23.23 0 0 0-.076.263l.753 1.86q-.137.226-.246.466l-1.523-1.778a.27.27 0 0 0-.362-.035.23.23 0 0 0-.081.263l1.167 3.035-1.926-2.606a.266.266 0 0 0-.356-.06.23.23 0 0 0-.096.277l.88 2.366a1.5 1.5 0 0 0-.176.209l-1.595-2.077a.27.27 0 0 0-.36-.049.23.23 0 0 0-.092.26l1.115 3.232-1.973-2.742a.267.267 0 0 0-.356-.064.23.23 0 0 0-.098.275l.822 2.256q-.134.108-.252.232l-1.523-1.96a.265.265 0 0 0-.356-.056.23.23 0 0 0-.093.276l.84 2.308q-.094.105-.177.22l-1.546-2.062a.27.27 0 0 0-.359-.055.23.23 0 0 0-.093.275l1.338 3.385-2.435-2.8a.264.264 0 0 0-.325-.058.24.24 0 0 0-.115.292l.952 2.453a3 3 0 0 0-.223.304l-1.885-2.143a.27.27 0 0 0-.359-.034.23.23 0 0 0-.075.278l.958 2.195q-.078.117-.136.243l-1.662-1.992a.266.266 0 0 0-.324-.061.227.227 0 0 0-.116.292l1.03 2.664.154.397a2.3 2.3 0 0 1 .519-.99l.275.33v.058c0 .48.211 1.028.353 1.627q-.073.083-.136.174c-.13.182-.223.388-.275.602a1.6 1.6 0 0 0-.052.432c.011 1.152-.128 1.103-.128 1.103a7.3 7.3 0 0 0-.402-1.68 2.9 2.9 0 0 1-.189-.81 2.7 2.7 0 0 1 .032-.762l-.24-.29-1.856-2.33a.27.27 0 0 0-.362-.044.23.23 0 0 0-.084.27l1.358 3.373-2.4-2.812a.27.27 0 0 0-.363-.035.23.23 0 0 0-.078.27l.22.541q-.47-.296-.88-.547c-.492-.301-.907-.542-1.214-.721-.086-.093-.176-.177-.234-.246l-.133-.128q.36-.308.677-.66l.102-.07q.428-.253.897-.422.5-.188.965-.45a21 21 0 0 0 1.737-1.1c.539-.37 1.028-.732 1.442-1.045.238-.177.45-.342.632-.484l8.754-4.897zm23.034-2v-.021s2.021.825 1.87 2.143l-2.563 1.205a5.2 5.2 0 0 0 .652-1.356 3.6 3.6 0 0 0 .043-1.972zm4.601 3.593.559 1.538.078.208.055-.249.388-1.821.015-.064a1 1 0 0 1 .13.017c.229.02.44.12.591.281.237.26.353.66.411 1.086.058.484.052.973-.017 1.457l-.055.33.249.243c2.452 2.404 1.094 4.086 1.039 4.147l-.263.301.147.368c.371.906.414 1.636.128 2.163-.212.365-.562.64-.982.768l-.623.147.087.594c.079.486.05.985-.087 1.462a3 3 0 0 1-1.343 1.723l-.325.165c0-.049 0-.098-.011-.147-.015-.148-.044-.29-.073-.435l-.084-.414a15 15 0 0 1-.136-.802 8 8 0 0 1-.069-1.627q.035-.518.153-1.025c.038-.056.073-.105.119-.166a8 8 0 0 1 .585-.63c.24-.235.527-.496.831-.774l.235-.217q.134-.117.252-.246c.173-.194.318-.412.425-.646a3.54 3.54 0 0 0 .316-1.561 3.1 3.1 0 0 0-.527-1.668 3 3 0 0 0-.298-.37l-.177-.166c-.064-.055-.136-.104-.206-.165a3 3 0 0 0-.208-.148l-.177-.1-.092-.053-.047-.026-.034-.02h-.015l-.029-.012a2.33 2.33 0 0 0-1.291-.211 2.45 2.45 0 0 0-.962.347 5 5 0 0 0-.721.533c-.211.185-.405.368-.594.547a7.7 7.7 0 0 1-1.106.916c-.098.057-.176.107-.275.153l-.15.067-.148.055-.145.055-.15.037-.145.04-.148.021a3.4 3.4 0 0 1-1.089-.05 4.3 4.3 0 0 1-.692-.196q.293-.001.576-.064a6.4 6.4 0 0 0 1.173-.394 7 7 0 0 0 2.071-1.387q.439-.421.77-.926c.049-.084.104-.166.151-.25.046-.083.092-.173.13-.251q.107-.232.214-.455.204-.442.406-.825.193-.376.379-.672a4 4 0 0 1 .353-.472c.084-.096.186-.177.296-.244a1 1 0 0 1 .089-.043 1 1 0 0 0-.098.012 1.3 1.3 0 0 0-.397.165 3 3 0 0 0-.51.402 6 6 0 0 0-.553.611q-.276.353-.559.78c-.095.144-.176.289-.275.436l-.136.206c-.046.067-.095.13-.147.2a6 6 0 0 1-.721.759 9 9 0 0 1-.88.677 8 8 0 0 1-.968.556q-.487.241-1.005.412a2.8 2.8 0 0 1-.932.098 4.5 4.5 0 0 1-.901-.145 7 7 0 0 1-.733-.22c.186-.017.406-.038.603-.072q.364-.066.72-.165a6.4 6.4 0 0 0 1.368-.545 5.1 5.1 0 0 0 1.172-.869q.257-.256.47-.547c.144-.2.249-.385.37-.573.122-.188.238-.354.37-.527.134-.174.273-.34.415-.507a6 6 0 0 1 .455-.48c.159-.151.324-.302.495-.444q.261-.213.544-.397.284-.186.594-.33a4 4 0 0 0-.66.23 7 7 0 0 0-1.202.718c-.177.138-.365.286-.539.44-.174.153-.333.318-.495.486-.16.165-.307.347-.455.527-.144.182-.275.359-.405.515q-.2.24-.44.444a5.4 5.4 0 0 1-2.288 1.111q-.316.075-.64.122c-.217.03-.411.044-.672.064-.255.02-.51.064-.755.124-.03 0-.064.02-.093.03a1.4 1.4 0 0 1 .214-.522q.17-.25.411-.437a4.5 4.5 0 0 1 .582-.374c.438-.266.87-.544 1.28-.848q.626-.456 1.173-.988c.368-.359.698-.753.985-1.173h.029l.005-.011 4.703-.733h.026c.102 0 .276.223.354.4l.142.38.078.213zm14.007 8.989-10.596 3.46q.028-.307.015-.617a2.97 2.97 0 0 0 1.309-1.219c.446-.805.469-1.792.075-2.939.652-1.04 1.028-3.099-1.124-5.366a6.3 6.3 0 0 0-.066-1.79l4.616-1.508q.639.621 1.364 1.474v.005c.353 1.295 1.491 3.78 4.41 8.5zm9.603 7.688-.038.246a1.5 1.5 0 0 1-.176-.474q.091.107.214.228m-.177-.892c.076-.367.244-.715.495-1.007l-.231 1.421c-.029-.04-.064-.08-.09-.115a1.7 1.7 0 0 1-.156-.261l-.018-.035zm2.824 7.802c-3.698 1.59-10.266 4.85-12.719 8.771-1.885.13-9.698.866-14.123 4.35-.035-.988-.292-2.186-1.132-3.13.446-1.055 1.164-3.134.353-4.101-.136-.165-.272-.304-.394-.431-.527-.554-.602-.638-.176-1.338.686-1.121.663-2.323.59-2.934.742-.686 1.133-1.636 1.075-2.612.388-.472 1.17-1.578 1.233-2.878a3.5 3.5 0 0 0 1.182-1.946c.113-.646 0-1.31-.327-1.891.379-.313.706-.684.961-1.092l12.108-3.956a208 208 0 0 0 2.884 4.422c2.794 4.188 5.693 6.962 8.485 8.766m21.07-7.167c.579-.093.967.026 1.153.347a.8.8 0 0 1 .092.267c0 .17-.078.332-.217.443a1.5 1.5 0 0 1-.232.176l-.011-.026-.128.05-.153.054-.046.02-.05.015-.113.038-.127.04-.07.023-.072.02-.316.09-.364.093-.409.093c-.142.032-.292.058-.446.09-.153.032-.315.058-.483.087l-.51.084-.527.078-.55.072-.568.067q-.575.063-1.158.115l-.293.027-.289.026-.579.046c-.38.029-.759.052-1.124.075q-.548.034-1.057.055c-.339.015-.649.03-.941.04-1.17.044-1.937.053-1.937.053s.773.014 1.937 0c.289 0 .608 0 .941-.014l1.057-.027 1.124-.043.579-.029.292-.017.296-.018a73 73 0 0 0 1.164-.087l.57-.052.559-.058.353-.04c-.912.165-1.966.295-3.15.408a71 71 0 0 1-9.174.275 41 41 0 0 1-1.975-.139l-.084-.376.425.026.22.011c.073 0 .142 0 .215.01l.405.014h1.254l.475-.01-.475-.008c-.15 0-.336 0-.544-.014l-.333-.015a4 4 0 0 1-.371-.02l-.403-.026c-.072 0-.141-.009-.214-.017l-.22-.018-.452-.043-.116-.513c1.089.09 2.288.15 2.966.174l.924.032c1.277.043 2.869.098 4.065.11 1.489.017 4.049-.09 4.066-.09.159 0 3.907-.058 4.706-.59.437-.293.388-.54.319-.661l-.027-.032c0-.02-.017-.04-.026-.055-.147-.258-.648-.417-1.222-.388h-.104c-6.817.35-9.078.081-9.823-.11-.88-.223-1.856-.414-2.803-.602-1.3-.255-2.528-.495-3.345-.788-1.146-.414-1.92-.365-2.429.165a2 2 0 0 0-.507 0 .84.84 0 0 0-.744.562.53.53 0 0 0 .052.443c.011.017.029.038.038.052.011.018 0 .026.014.038.159.228.385.408.649.524l-.498.9-.058-.02-.116-.04-.113-.044-.22-.09a9 9 0 0 1-.811-.402l-.093-.052-.087-.055-.176-.107c-.107-.076-.214-.148-.313-.223-.035-.026-.061-.052-.096-.078l-.11-.652c.383.223.884.116 1.124-.243a.734.734 0 0 0-.258-1.052.87.87 0 0 0-.819-.026.8.8 0 0 0-.241.186l-.052-.307a1.8 1.8 0 0 1 .504-.391c1.251-.64 3.649-.29 7.333 1.077 1.595.59 4.503 1.306 9.272 1.347a45 45 0 0 0 6.223-.333zm-1.645-.186q-.674-.668-1.439-1.245h-.006a20 20 0 0 0-.843-.62 3 3 0 0 0-.353-.223.82.82 0 0 1 .556.064c.527.238 1.961 1.57 2.41 1.995zm2.641 2.117.093.087.127.104q.072.058.157.122c.055.04.116.087.176.127.061.04.128.09.2.13l.104.064.108.061.107.058.11.055q.108.056.217.101c.069.032.142.058.208.087l.099.038.069.023c-.854-.06-1.749-.776-2.198-1.19q.28-.13.527-.304c.313.316 1.318 1.271 2.172 1.393.021 0 .041.008.061.014a.6.6 0 0 1-.174.061l-.049-.012-.127-.026-.162-.043-.09-.023-.099-.032c-.063-.023-.136-.044-.208-.072-.07-.03-.145-.055-.217-.087l-.113-.05-.11-.052-.11-.052-.108-.058-.205-.116a1 1 0 0 1-.177-.118c-.049-.04-.113-.076-.162-.11l-.133-.099-.099-.078-.084-.072.082.075zm-20.879.466h.006l-.084-.367.379.084c.177.04.339.063.51.098.168.032.342.055.51.078l.252.038.249.029c.141.014.275.032.411.043l-.125.339a25 25 0 0 1-2.111-.339zm1.946.71-.86 2.369a26 26 0 0 1-.458-.223l-.561-2.444a24 24 0 0 0 1.879.298m-.13-.883q-.124-.016-.249-.038l-.249-.044a9 9 0 0 1-.501-.095c-.168-.038-.336-.067-.501-.11s-.322-.078-.478-.125l-.258-1.12c.116.052.214.087.281.11h.006q.031.142.101.272a.1.1 0 0 1 .02.026l.035.067c.093.162.238.29.414.367.232.11 1.043.206 1.981.287l-.177.47q-.213-.028-.431-.065zm.53-1.278h-.015l-.029-.008-.043-.012a.6.6 0 0 0-.177-.026.36.36 0 0 0-.269.119.23.23 0 0 0-.038.24q.002.014.012.03v.014l.014.014.012.015c.006.005.011.014.02.017a.1.1 0 0 0 .044.026.1.1 0 0 0 .046 0 .2.2 0 0 0 .104-.032 1 1 0 0 0 .093-.058 1.4 1.4 0 0 0 .153-.145s0 .018-.023.053a1 1 0 0 1-.081.139.5.5 0 0 1-.081.09.33.33 0 0 1-.142.078.28.28 0 0 1-.206-.026q-.026-.014-.049-.03l-.017-.014-.017-.014-.021-.02-.017-.02-.035-.044a.4.4 0 0 1-.069-.22.48.48 0 0 1 .254-.426.7.7 0 0 1 .267-.087.8.8 0 0 1 .281.014l.069.018.026.009h.029l.116.037.446.165.139.052q-.144-.059-.29-.124-.152-.069-.301-.145c-.199-.098-.402-.206-.599-.307-.2-.104-.397-.208-.591-.301a3 3 0 0 0-.287-.125 1 1 0 0 0-.136-.043h-.133a1 1 0 0 0-.13 0 .3.3 0 0 0-.116.023.25.25 0 0 0-.151.113.24.24 0 0 0-.014.183.4.4 0 0 0 .095.176.6.6 0 0 0 .166.128h.011l.026.011.023.009h.021a.2.2 0 0 0 .086.017q.039.002.076-.008a.2.2 0 0 0 .061-.038.4.4 0 0 0 .084-.116.8.8 0 0 0 .06-.206l.012-.075a.7.7 0 0 1-.006.301.4.4 0 0 1-.069.157.3.3 0 0 1-.084.07.24.24 0 0 1-.116.037.5.5 0 0 1-.128 0l-.034-.009h-.084a.8.8 0 0 1-.235-.136.64.64 0 0 1-.176-.246.46.46 0 0 1 0-.342.5.5 0 0 1 .275-.26.9.9 0 0 1 .362-.067h.136l.046.009q.09.017.177.043.167.053.324.127c.209.093.408.197.611.302l.591.315q.293.154.576.29c.319.16.657.287 1.005.38l-.093-.033.023-.005a3 3 0 0 1-.396-.186l-.194-.113c-.064-.04-.134-.08-.194-.124a7 7 0 0 1-.733-.57c-.058-.05-.113-.1-.177-.148-.063-.05-.11-.099-.159-.148l-.295-.272a3 3 0 0 0-.267-.232l-.055-.038-.017-.008h-.009l-.035-.012a.4.4 0 0 0-.124-.023.16.16 0 0 0-.093.026.2.2 0 0 0-.058.07.3.3 0 0 0-.037.139v.052a.4.4 0 0 1-.015-.217.24.24 0 0 1 .194-.197.6.6 0 0 1 .177 0l.046.008h.047q.047.016.095.04.176.089.333.206.166.12.336.255l.177.136.176.14c.119.092.235.188.354.28.118.093.24.183.353.273l.035.026-.015-.02-.049-.076c-.014-.026-.017-.026-.026-.04l-.02-.038-.015-.035v-.038l-.029-.063c-.014-.044-.037-.081-.055-.122a.4.4 0 0 0-.064-.098.35.35 0 0 0-.13-.125.14.14 0 0 0-.116 0 .1.1 0 0 0-.04.026v-.009s.014-.02.023-.029l.02-.017.029-.017a.2.2 0 0 1 .041-.015h.049a.4.4 0 0 1 .214.102q.052.043.099.095.025.028.046.055l.046.061c.015.02.061.081.09.124l.012.015v.015l.023.026c.014.02.035.037.052.055q.113.117.249.217l.07.052.075.05q.076.05.153.092.163.088.333.153.163.064.339.084a.6.6 0 0 0 .145 0 .3.3 0 0 0 .104-.04.2.2 0 0 0 .064-.084l.014-.04v-.03l.018-.064a.21.21 0 0 0-.041-.196.28.28 0 0 0-.185-.081.44.44 0 0 0-.295.092l-.035.032v-.009s.008-.023.014-.032a.5.5 0 0 1 .087-.11.46.46 0 0 1 .542-.031.4.4 0 0 1 .13.165.5.5 0 0 1 .038.2q-.001.05-.012.1l-.012.053-.011.04a.5.5 0 0 1-.125.209.5.5 0 0 1-.234.125l-.055.011c-.026.02-.049.04-.078.06a1 1 0 0 1-.122.07 1.3 1.3 0 0 1-.327.122 2 2 0 0 1-.411.052 3 3 0 0 1-.693-.075q-.118-.027-.24-.058a7 7 0 0 1-.466-.15 11 11 0 0 1-.446-.174l-.107-.044zm3.779-.327a.4.4 0 0 0-.064-.098 1 1 0 0 0-.165-.14l-.055-.037-.02-.014h.095c.087 0 .177.017.258.049a.5.5 0 0 1 .162.11.4.4 0 0 1 .104.214v.055q.063-.045.134-.08a.9.9 0 0 1 .333-.114.8.8 0 0 1 .205 0 .7.7 0 0 1 .154.032 1.6 1.6 0 0 1 .912-.162q.09.012.177.038c.173.052.336.142.463.263l.061.064.017.02.015.015.023.029.159.014h.185a1 1 0 0 0 .177-.017.7.7 0 0 0 .217-.067q.027-.012.052-.02l.044-.023c0 .017-.009.031-.015.046 0 .014-.017.032-.029.052q-.022.03-.046.055a.5.5 0 0 1-.165.11c-.017.006-.035.015-.052.018l-.055.014a1 1 0 0 1-.116.012c-.038 0-.075 0-.116-.01q-.056-.004-.107-.02h-.023l.017.03.058.034a7 7 0 0 0 .741.397q.163.076.336.125.17.052.354.043a.5.5 0 0 0 .144-.038l.029-.017.015-.009.014-.008.029-.024.026-.026.015-.014.032-.04c.014-.024.029-.041.043-.064a.4.4 0 0 0 .055-.13.24.24 0 0 0 0-.114.3.3 0 0 0-.075-.101.54.54 0 0 0-.264-.124.34.34 0 0 0-.24.029l-.012.008-.026.03-.02.02-.014.02a.2.2 0 0 0-.041.09.2.2 0 0 0 .052.165.3.3 0 0 0 .113.069h-.003a.3.3 0 0 1-.15-.04.27.27 0 0 1-.142-.21.4.4 0 0 1 .02-.164c0-.015.012-.026.02-.04l.021-.038.02-.032v-.009l.017-.02a.5.5 0 0 1 .186-.113.78.78 0 0 1 .657.122.6.6 0 0 1 .177.205q.016.032.029.064.008.034.014.07v.138a.6.6 0 0 1-.087.24.6.6 0 0 1-.069.105l-.035.04-.012.032-.011.012-.049.046q-.024.02-.053.04l-.029.018-.029.018-.055.029h-.246l-.02.023h-.429l-.063-.018a2 2 0 0 1-.362-.185 3 3 0 0 1-.287-.206 3.4 3.4 0 0 1-.336-.315q.022.083.026.165c0 .06-.006.124-.026.182a.49.49 0 0 1-.373.304.64.64 0 0 1-.426-.064 1 1 0 0 1-.093-.066l-.026-.026.038.009q.052.013.104.023a.7.7 0 0 0 .154 0 .5.5 0 0 0 .176-.052.4.4 0 0 0 .078-.052.23.23 0 0 0 .087-.148.2.2 0 0 0 0-.087.3.3 0 0 0-.035-.101.4.4 0 0 0-.057-.105l-.035-.052-.044-.052-.026-.029-.011-.008-.047-.047a1 1 0 0 0-.33-.205l-.061-.024-.06-.017a2 2 0 0 0-.496-.058h-.202a1 1 0 0 1 .092.058l.05.038.043.04a.6.6 0 0 1 .078.09.54.54 0 0 1 .093.475.7.7 0 0 1-.443.469l-.565-.017s-.029-.015-.043-.026a.3.3 0 0 1-.047-.038.42.42 0 0 1-.121-.232.44.44 0 0 1 .159-.434.3.3 0 0 1 .125-.055.25.25 0 0 1 .113 0 .4.4 0 0 1 .124.066l.035.035-.044-.017a.3.3 0 0 0-.121-.02.2.2 0 0 0-.076.02.16.16 0 0 0-.06.055.27.27 0 0 0-.055.188c0 .072.029.14.081.191h.02s.012.012.02.015c.015.008.029.011.044.017h.124a.5.5 0 0 0 .243-.104.4.4 0 0 0 .148-.22.26.26 0 0 0-.038-.226q-.018-.026-.04-.052l-.023-.026-.026-.02a1 1 0 0 0-.125-.087.64.64 0 0 0-.405-.058q-.067.01-.133.029-.123.038-.235.092h-.012l-.046.102v.02l-.012.02-.028.038s-.018.026-.029.037l-.035.044-.038.04-.037.038c-.029.023-.053.046-.082.067a1.2 1.2 0 0 1-.26.142 1 1 0 0 1-.165.049 1.2 1.2 0 0 1-.252.017.4.4 0 0 1-.096-.017l.021-.012.06-.035c.047-.029.116-.069.189-.124a1.7 1.7 0 0 0 .335-.301l.027-.03s.014-.02.023-.028l.023-.03s.017-.022.026-.037l.029-.037.011-.018v-.008q.02-.03.035-.061a.24.24 0 0 0 .035-.105.16.16 0 0 0-.012-.092zm8.166.962q.239.064.487.063a1 1 0 0 0 .11-.011l.052-.012.023-.008h.012a1 1 0 0 0 .101-.053q.022-.011.04-.029l.038-.034a.35.35 0 0 0 .09-.165.26.26 0 0 0-.02-.165.33.33 0 0 0-.116-.128.2.2 0 0 1-.038-.02l-.02-.009-.02-.008-.044-.015-.043-.009a.5.5 0 0 0-.316.035.2.2 0 0 0-.055.038.2.2 0 0 0-.067.098v.052a.18.18 0 0 0 .053.145.1.1 0 0 0 .034.03l.012.008h-.015a.1.1 0 0 1-.04-.026.2.2 0 0 1-.081-.154v-.061a.2.2 0 0 1 .02-.063.4.4 0 0 1 .043-.064.47.47 0 0 1 .241-.122h.255l.055.015h.026l.026.011q.029.01.055.024.11.06.176.165c.032.052.05.113.053.173a1 1 0 0 1 .388-.29.9.9 0 0 1 .402-.077h.11l.107.014.218.032.454.07q.235.039.469.069l.244.032h.011l.087-.017a1.2 1.2 0 0 0 .327-.105l.061-.037a.2.2 0 0 0 .046-.044.1.1 0 0 0 .029-.046l.009-.023a.2.2 0 0 0 0-.058v-.026q.008.012.012.026a.1.1 0 0 1 .008.04v.052a.12.12 0 0 1-.02.064.4.4 0 0 1-.04.058q-.026.03-.055.058l-.061.05-.078.051c.115.009.228.018.338.018q.205.007.406-.032c.014 0 .032 0 .043-.012l.041-.017s.026-.009.037-.017h.012l.02-.015a.5.5 0 0 0 .122-.104.2.2 0 0 0 .052-.122q0-.03-.012-.058a.14.14 0 0 0-.029-.049.35.35 0 0 0-.202-.101.7.7 0 0 0-.157 0h-.043l.04-.012a.5.5 0 0 1 .166-.026c.092 0 .182.032.251.087q.031.029.053.066a.2.2 0 0 1 .026.087.3.3 0 0 1-.055.18.6.6 0 0 1-.134.145l-.02.014-.011.009-.05.026q-.025.014-.052.023l-.052.02q-.217.06-.443.064-.234.005-.469-.012a13 13 0 0 1-.478-.052c-.159-.02-.316-.049-.472-.075l-.324-.058a.4.4 0 0 1-.012.154.2.2 0 0 1-.043.08.2.2 0 0 1-.073.064.3.3 0 0 1-.084.032l-.04.009h-.255c-.017 0-.029 0-.043-.009l-.035-.008h.194a.4.4 0 0 0 .066-.015l.035-.009.032-.014.046-.017a.2.2 0 0 0 .035-.047.3.3 0 0 0 .012-.052.3.3 0 0 0-.018-.101l-.029-.067-.156-.029-.104-.02h-.096a.9.9 0 0 0-.353.038c-.162.057-.31.15-.435.266v.009a.5.5 0 0 1-.118.24.8.8 0 0 1-.217.156.4.4 0 0 1-.079.026h-.33v-.005h-.2a2 2 0 0 1-.211-.04 4 4 0 0 1-.507-.166h-.014s-.012.009-.015.014l-.023.02a.45.45 0 0 1-.177.085q-.085.022-.176.014a.38.38 0 0 1-.278-.13.2.2 0 0 1-.038-.116c0-.032 0-.067.012-.098a.3.3 0 0 1 .043-.105c-.069-.037-.142-.075-.205-.112a.57.57 0 0 0-.365-.056 1.7 1.7 0 0 0-.333.087l-.096.038h.064a.5.5 0 0 1 .176.017.4.4 0 0 1 .163.09l.029.035v.023l.008.014.012.02.017.041a.2.2 0 0 1 .012.087.17.17 0 0 1-.029.09.22.22 0 0 1-.128.081.44.44 0 0 1-.185.009q-.035-.001-.069-.012l.063-.023.067-.029a.3.3 0 0 0 .078-.04c.023-.012.041-.03.046-.053q.006-.03-.014-.058-.001-.008-.012-.017v-.023l-.011-.015-.015-.017a.3.3 0 0 0-.084-.043.5.5 0 0 0-.113-.015h-.124c-.081.009-.159.026-.232.038l-.133.026a9 9 0 0 0-.284.185l-.15.102s.043-.05.124-.128a4 4 0 0 1 .629-.5q.152-.1.318-.183.183-.088.382-.136.105-.028.215-.032h.22c.069.011.142.026.208.043l.104.032c.035.017.07.029.102.046q.048.027.095.058l.047.035.04.04q.08.088.107.197a.34.34 0 0 1 0 .174q.24.087.484.148zm-17.253-.23-.079-.491c.053.032.096.063.148.095l.177.11c.035.018.063.038.095.052l.102.052q.416.218.854.389l.232.086q.057.023.118.041l.119.04.029.01-.177.32a7.3 7.3 0 0 1-1.616-.703zm1.401 1.046-.657 1.185c-.145-.102-.29-.2-.435-.304q-.005-.008-.011-.012l-.243-1.425c.428.223.88.409 1.343.556zm-1.378-3.753.052.704a.45.45 0 0 1-.336-.217.4.4 0 0 1-.049-.209.5.5 0 0 1 .231-.252q.049-.016.102-.029zm.42.745a.53.53 0 0 0 .243-.287c.003.27-.226.49-.513.492a.52.52 0 0 1-.463-.258.4.4 0 0 1-.041-.124.586.586 0 0 0 .774.176m-.31-.768a.52.52 0 0 1 .454.206.42.42 0 0 1-.22.483.5.5 0 0 1-.165.05l-.069-.736zM98.329 72.058q.229-.14.437-.307.278-.214.527-.458.287-.295.527-.625c.084-.116.177-.238.255-.365q.116-.194.232-.4.117-.207.208-.428c.061-.148.131-.296.186-.45q.081-.232.144-.469.078-.234.122-.477c.029-.165.061-.33.087-.484.014-.081.032-.165.038-.243l.017-.243.029-.475c0-.079 0-.157.011-.235.012-.078 0-.153-.011-.229 0-.115-.012-.228-.018-.338l.125.104q.652.471 1.179 1.06c.321.376.541.822.634 1.297.081.484.069.976-.035 1.454q-.083.37-.214.727l-.133.362c-.044.118-.105.246-.154.367l-.643 1.483q-.35.756-.611 1.546c-.02.07-.043.14-.058.22a2 2 0 0 0-.037.235v.183a2.7 2.7 0 0 0-.82-.145 8.3 8.3 0 0 1 1.089 1.048l.017.029.067.093c.046.063.09.127.136.182l.261.33c.078.105.15.191.217.296q.2.291.313.622c.069.215.101.438.098.66q-.014.347-.11.687-.1.361-.258.7c-.987-1.386-3.197-2.426-3.197-2.426 1.497 1.028 2.45 2.763 2.968 3.97.012.044.027.09.035.133a9 9 0 0 1 .22 2.05c0 .458-.037.918-.104 1.37l-.055.34-.017.08a8 8 0 0 0-.157-1.222 7.6 7.6 0 0 0-.501-1.558 8.3 8.3 0 0 0-.944-1.601c-.194-.26-.408-.516-.631-.765a9 9 0 0 0-.718-.718 14 14 0 0 0-1.017-.846 6 6 0 0 1-.029-.26c-.005-.096 0-.243-.011-.377-.012-.133 0-.266.035-.408q.025-.218.08-.434.026-.11.056-.223c.02-.076.052-.148.078-.223q.078-.234.191-.455.111-.234.249-.455.286-.469.652-.891c.11-.145.263-.302.396-.46l.414-.482c.273-.33.542-.66.791-.996q.382-.499.704-1.034.313-.513.527-1.071c.127-.339.214-.692.252-1.051.011-.165.014-.33.011-.481a2.5 2.5 0 0 0-.046-.426 6 6 0 0 0-.084-.362c-.029-.11-.075-.205-.107-.295q-.022-.067-.044-.125l-.052-.104-.084-.165-.075-.136v.153c0 .099.014.238 0 .417 0 .087 0 .186-.009.293s-.026.217-.04.33-.047.243-.076.368c-.026.127-.075.258-.121.39a2.3 2.3 0 0 1-.177.412q-.053.102-.104.209c-.051.107-.084.138-.125.21a10 10 0 0 1-.596.876q-.348.447-.739.912-.391.468-.796.947c-.133.165-.266.321-.4.48-.133.16-.26.319-.396.504q-.203.26-.374.547l-.162.281-.078.142-.064.148a4 4 0 0 0-.223.582 3.4 3.4 0 0 0-.136.582 7 7 0 0 1-.04.284c-.015.093 0 .185 0 .278a3.5 3.5 0 0 0 .121.993q.018.059.04.113a27 27 0 0 0-1.7-1.1l-.187-.116-.177-.116a3 3 0 0 1-.316-.252 3.5 3.5 0 0 1-.527-.585 4.4 4.4 0 0 1-.66-1.381 7.3 7.3 0 0 1-.252-1.428 11 11 0 0 1-.029-1.268c.012-.382.035-.718.06-.996.056-.556.108-.88.108-.88s-.046.069-.119.208q-.161.296-.29.605a8.1 8.1 0 0 0-.62 2.32 6.6 6.6 0 0 0 .021 1.647c.093.643.313 1.263.652 1.828.185.307.414.59.674.845a4.6 4.6 0 0 0 .65.533l.095.064-.313-.076a5 5 0 0 1-.672-.182 6 6 0 0 1-.672-.246l-.324-.148a3 3 0 0 1-.307-.174 3 3 0 0 1-.295-.182l-.267-.206a2 2 0 0 1-.237-.22 2 2 0 0 1-.212-.226c-.06-.078-.124-.156-.176-.231l-.142-.235a2 2 0 0 1-.11-.223 2.5 2.5 0 0 1-.18-.565q-.019-.117-.026-.234v-.084s0 .029-.009.084q-.008.12 0 .24a2.6 2.6 0 0 0 .2.837c.038.084.079.165.119.258s.104.174.16.26q.082.14.193.261.1.14.226.258l.258.249q.138.12.29.229.147.118.306.22l.328.194c.434.243.894.449 1.372.61l.336.12c.11.037.217.058.325.092l.602.157c.185.052.362.075.513.107l.248.046c.079.055.16.104.238.165.527.374 1.057.75 1.523 1.153.466.385.904.802 1.306 1.248.374.414.707.86.996 1.33a9 9 0 0 1 .672 1.331q.24.596.409 1.213.14.513.217.904a5 5 0 0 1-.177.48c-.093.212-.177.43-.278.638q-.151.312-.321.617c-.113.202-.238.4-.365.593l-.168.246c.095-.269.194-.55.284-.848q.177-.574.295-1.161a6 6 0 0 0 .119-1.332 3 3 0 0 0-.122-.753 1.9 1.9 0 0 0-.443-.773 1.74 1.74 0 0 0-.843-.493 2 2 0 0 0-.243-.052c-.096-.017-.136-.017-.2-.026h-.2l-.176-.012c-.478-.031-.973-.06-1.434-.127a3.5 3.5 0 0 1-.64-.139.97.97 0 0 1-.469-.278 1.8 1.8 0 0 1-.29-.518 13 13 0 0 1-.234-.66 46 46 0 0 0-.46-1.4 4 4 0 0 0-.785-1.407 2.2 2.2 0 0 0-.73-.506 2.6 2.6 0 0 0-.854-.189 9 9 0 0 0-1.573.093c-.498.058-.981.107-1.453.122a8 8 0 0 1-1.385-.067 2.2 2.2 0 0 1-1.091-.556 3.9 3.9 0 0 1-.739-.938 7 7 0 0 1-.478-1.022 12 12 0 0 1-.527-1.915 19 19 0 0 1-.176-1.068c1.813 1.123 3.316 2.988 3.593 3.817-.173-.64-.938-3.116-2.719-4.28a19 19 0 0 1-.99-.698c.28.107.58.176.88.208.177.017.354.038.539.05.185.008.373.025.553.022q.513.01 1.025-.028c.325-.024.626-.058.89-.087a4 4 0 0 1 .685-.04.95.95 0 0 1 .464.138q.151.091.27.223c.063.058.095.093.095.093l-.03-.125a1.1 1.1 0 0 0-.15-.35 1.13 1.13 0 0 0-.512-.414 3 3 0 0 0-.802-.209c-.284-.043-.583-.078-.88-.116-.3-.037-.626-.078-.957-.124l-.489-.076c-.177-.026-.353-.06-.527-.086a2.8 2.8 0 0 1-.82-.27 3.3 3.3 0 0 1-.72-.504 5.3 5.3 0 0 1-.612-.669 11 11 0 0 1-.912-1.43c-.24-.449-.434-.84-.57-1.118s-.212-.44-.212-.44 0 .043-.014.127a2 2 0 0 0-.015.362q-.006.648.128 1.283a6.3 6.3 0 0 0 .463 1.393c.162.759.675 2.366 2.175 3.246l.087.053c.026.341.064.724.127 1.152q.14.996.44 1.96.18.558.444 1.08c.19.383.443.736.747 1.046.336.345.77.59 1.254.707q.73.131 1.474.136c.5.008 1.001-.023 1.505-.058a9 9 0 0 1 1.463-.029c.437.026.84.22 1.118.536.272.359.469.764.579 1.19.139.469.257.93.388 1.404.064.238.13.478.217.724.087.273.22.533.394.768.17.211.394.382.651.495a5 5 0 0 1-.88-.437 4.3 4.3 0 0 1-1.144-1.08 4.2 4.2 0 0 1-.411-.707c-.029-.06-.06-.145-.087-.212l-.087-.214a6 6 0 0 0-.214-.472 3.3 3.3 0 0 0-.663-.892 2.3 2.3 0 0 0-1.072-.553 3.6 3.6 0 0 0-1.138-.046 12 12 0 0 0-1.03.165 13 13 0 0 1-1.912.284c-.541.049-1.057-.281-1.407-.666a5.8 5.8 0 0 1-.88-1.26 12 12 0 0 1-.54-1.19 15 15 0 0 1-.567-1.799s.046.316.177.863c.06.273.145.603.257.976q.19.636.455 1.245c.206.493.48.96.814 1.382q.297.362.704.62c.298.188.651.29 1.013.29a14 14 0 0 0 1.995-.177c.652-.082 1.327-.166 1.857 0 .257.075.486.217.663.408 0 .008.014.023.026.032a.8.8 0 0 1 .066.173c.073.362.093.736.058 1.104q-.044.678.038 1.358a3.5 3.5 0 0 0 .347 1.115c.067.133.128.223.206.353q.443.704 1 1.338c.199.22.413.417.616.611q.3.29.588.594c.382.408.741.83 1.094 1.26l.264.33c.084.1.153.2.229.3q.205.3.353.626c.093.206.165.423.217.64q.069.313.076.634c.005.391-.05.78-.163 1.153-.182.58-.46 1.13-.822 1.627-.107.151-.2.261-.272.348q-.335-.704-.704-1.384l-.116-.197a28 28 0 0 0-1.52-2.453 26 26 0 0 0-1.95-2.473 21 21 0 0 0-2.287-2.21 19 19 0 0 0-2.64-1.844l-.69-.397c-.116-.067-.232-.13-.339-.197l-.324-.2a16 16 0 0 1-1.254-.863q-.599-.461-1.132-.987a8.7 8.7 0 0 1-.944-1.124 7 7 0 0 1-.704-1.26 10 10 0 0 1-.46-1.387c-.064-.24-.128-.486-.206-.738a4 4 0 0 0-.316-.776 2 2 0 0 0-.211-.307 22 22 0 0 1-.577-4.347c-.144-3.443-2.58-5.056-3.327-5.195 1.196.846 1.975 2.108 2.158 3.501.257 1.946.402 4.127.556 5.16l-.235-.165-.785-1.595v1.03l-1.022-1.844-.278.825c-.017-.017-.038-.029-.055-.046-.07-.055-.136-.119-.206-.177l-.489-1.329-.145.785-.13-.11-.556-1.465-.264.715-.176-.165-.272-1.625-.403.959q-.043-.049-.09-.093l-.454-2.247-.299 1.45c-.058-.063-.11-.13-.165-.193l-.443-2.285v-1.002l.113.104q.718.618 1.561 1.08c.513.284.993.522 1.384.785.36.235.675.521.936.851q.083.117.165.223c.055.07.09.151.133.22l.124.206c.04.067.064.136.093.2.125.25.2.458.255.6l.087.217s0-.079-.026-.23a4.5 4.5 0 0 0-.11-.648q-.024-.106-.052-.22c-.018-.078-.053-.153-.085-.24-.031-.087-.054-.165-.095-.258-.038-.093-.087-.174-.136-.266a3.8 3.8 0 0 0-.892-1.104 15 15 0 0 0-1.332-.967 9 9 0 0 1-1.32-1.063c-.102-.107-.206-.214-.308-.33l-.127-.153c-.04-.052-.075-.11-.116-.165a2.5 2.5 0 0 1-.316-.718 4.5 4.5 0 0 1-.028-1.712l.037-.29q.175.275.397.519c.27.292.593.538.953.724l.142.066.072.032.064.026.263.107.527.212c.353.139.704.275 1.057.417.354.142.672.29.985.443.153.078.304.165.449.243q.218.117.41.26.184.133.354.282l.165.142c.052.049.096.1.142.15s.09.102.133.148.076.104.11.153l.105.148q.043.076.078.148a2.7 2.7 0 0 1 .307.871l.026.125s0-.044-.015-.128-.014-.208-.052-.364a3 3 0 0 0-.176-.545c-.024-.052-.044-.107-.07-.165-.029-.058-.06-.104-.093-.165-.034-.058-.063-.113-.101-.165l-.124-.165c-.044-.055-.087-.116-.134-.165l-.156-.165a3 3 0 0 0-.353-.33c-.122-.11-.264-.203-.4-.307-.136-.105-.29-.197-.443-.29a15 15 0 0 0-.964-.536c-.333-.168-.675-.341-1.014-.506l-.504-.252-.249-.128-.064-.032-.052-.032-.107-.063a2.6 2.6 0 0 1-.704-.637 3.8 3.8 0 0 1-.663-1.54 6 6 0 0 1-.084-.54q.017-.446-.031-.889v-.112l.011-.11h-.04a5 5 0 0 0-.105-.496 2 2 0 0 0-.075-.237 2 2 0 0 0-.087-.235c-.032-.078-.064-.165-.096-.231l-.049-.096.828.072-1.146-.718c-.03-.063-.052-.127-.078-.194a6 6 0 0 1-.238-.718l-.075-.356c-.026-.116-.035-.232-.052-.345a6.6 6.6 0 0 1-.047-1.262 8 8 0 0 1 .267-1.622c.043-.148.07-.22.07-.22a4.6 4.6 0 0 0-.42.796 6.3 6.3 0 0 0-.493 2.329 6 6 0 0 0 .04.784l.03.177-.232-.145-.096-.06a5.7 5.7 0 0 1-.44-1 7 7 0 0 1-.145-.504 4 4 0 0 1-.052-.246c-.014-.08-.032-.165-.043-.24-.03-.165-.04-.31-.058-.452a3 3 0 0 1-.026-.397c0-.121-.017-.225-.015-.312 0-.177-.011-.281-.011-.281s-.064.08-.162.243a3 3 0 0 0-.151.295 4 4 0 0 0-.15.406 4 4 0 0 0-.102.504c-.014.09-.014.185-.02.28a3 3 0 0 0 0 .296c0 .035.009.067.011.101-1.37-2.021-.527-4.538-.2-5.343q.131.096.267.192c.09.063.2.136.304.197q.3.186.623.338.151.076.298.133c.095.038.185.079.272.105s.165.055.235.078l.176.05.157.04-.142-.075c-.046-.02-.102-.053-.165-.084l-.2-.125-.217-1.095-.255.773-.272-1.459-.301.924-.079-.078v-1.657l-.425 1.141-.076-.101.096-2.01s-.362.776-.585 1.274q-.045-.072-.087-.145l.394-2.36-.73 1.674c-.046-.107-.093-.214-.13-.321.24-1.17.608-2.91.608-2.91l-.84 2.079c-.394-1.944.403-3.313.45-3.392l.517-.825-1.013-.165c-1.13-.185-1.715-1.297-1.72-1.306l-.51-1.02q.012-.203.029-.425c.038-.588.087-1.271.116-2.013q.034-.585 0-1.172a3.6 3.6 0 0 0-.125-.626l.49.568a.265.265 0 0 0 .359.037.23.23 0 0 0 .08-.272l-1.296-3.217.999 1.25q-.03.172-.035.346c0 1.27 1.245 2.965.142 4.737v.012s1.17-1.06 1.372-2.288c.325-.342 1.057-1.21 1.002-2.12v-.177l.105.125a.24.24 0 0 0 .176.087c.435 1.41 1.078 3.046.064 4.778 0 0 1.897-1.813 1.74-3.66-.156-1.848.826-2.905.826-2.905s-1.437.788-1.382 2.308-.124 1.454-.124 1.454a9.7 9.7 0 0 0-.59-2.195 3.84 3.84 0 0 1-.3-1.752q.029-.319.117-.629c.026-.09.046-.185.08-.275q.124-.312.316-.59.096-.149.209-.284-.134.074-.255.165l-.353-.91 2.288 2.636c.243.837.602 1.763.666 2.748l-.076.177c-.043.09-.095.182-.144.272-.05.09-.12.188-.177.287-.058.098-.136.19-.206.29-.07.098-.15.196-.226.297-.075.102-.176.197-.254.301l-.273.316c-.185.217-.365.434-.55.66s-.353.46-.527.701a5.6 5.6 0 0 0-.443.75q-.097.193-.162.394-.073.193-.11.397-.037.19-.05.385v.362c0 .113.038.22.053.33s.055.194.084.281q.08.219.185.429c.127.225.209.344.209.344s0-.148-.038-.388c0-.124-.015-.27-.012-.437v-.258c0-.093.023-.182.035-.278.012-.095.043-.194.07-.292.026-.099.057-.2.104-.302a3 3 0 0 1 .144-.304c.053-.101.116-.205.177-.31.061-.104.145-.208.215-.315l.24-.319.527-.66q.265-.335.527-.675c.07-.087.136-.182.2-.272q-.033.066-.07.13a7.3 7.3 0 0 0 1.266-1.7 4.5 4.5 0 0 1-.785 2.274s2.337-1.946 2.31-4.092c-.025-2.065 1.104-3.203 1.188-3.287a.3.3 0 0 0 .209-.003c.133.649.197 1.341-.035 2.042q-.389.27-.68.631-.284.366-.435.794-.149.421-.211.866c-.087.576-.11 1.135-.177 1.676a7.5 7.5 0 0 1-.324 1.552q-.122.36-.29.707c-.052.11-.119.22-.177.33l-.185.31c-.249.42-.507.8-.762 1.152-.254.354-.503.65-.735.91a9 9 0 0 1-.652.637 5 5 0 0 1-.463.35 2 2 0 0 1-.177.105q.1-.04.191-.093.262-.148.496-.33.366-.283.695-.606c.249-.248.527-.541.799-.877a16.5 16.5 0 0 0 1.25-1.758c.134-.231.253-.475.354-.72q.305-.78.438-1.602c.095-.553.153-1.115.269-1.648.08-.51.301-.99.637-1.399a2.6 2.6 0 0 1 .58-.477c.115-.064.222-.128.332-.18s.264-.11.365-.154c.704-.26 1.364-.495 1.984-.718.09.388.176.785.231 1.185l-.063.04-.16.105-.063.043-.087.055q-.173.106-.353.229a5 5 0 0 0-.655.547 2.8 2.8 0 0 0-.516.73q-.191.406-.231.846-.035.405.011.81c0 .055.015.105.02.165a13 13 0 0 0-.912 2.378c-.526 2.024-1.937 1.763-1.937 1.763s2.06.365 2.598-.973c.275-.683.39-1.152.512-1.49.052.355.099.714.128 1.07.043.481.064.953.055 1.44-.012.237-.02.475-.04.712l-.047.353a4 4 0 0 1-.058.35 5 5 0 0 1-.177.69c-.04.113-.072.229-.118.33l-.148.33a4.4 4.4 0 0 1-.852 1.176 3.6 3.6 0 0 1-1.27.814 3.5 3.5 0 0 0 1.407-.675 4.6 4.6 0 0 0 1.04-1.152l.193-.33q.066-.127.119-.255v.017c.02.145.035.321.055.521s.035.423.05.66q.023.357.01.774-.004.42-.057.84-.058.434-.177.857c-.049.139-.087.28-.144.414-.03.066-.053.136-.084.205l-.102.194q-.047.1-.107.191c-.04.064-.072.128-.116.186-.093.116-.177.24-.272.347l-.145.165-.16.15a4 4 0 0 1-.332.282 6 6 0 0 1-1.083.651c-.122.058-.238.12-.353.165l-.334.142c-.11.047-.217.079-.315.116-.197.073-.374.145-.519.186-.144.043-.263.09-.353.115l-.035.015.24-.145a8 8 0 0 0 .681-.446c.275-.203.513-.443.704-.718.226-.33.356-.707.38-1.095a3.1 3.1 0 0 0-.177-1.184 5.5 5.5 0 0 0-.501-1.08q-.151-.248-.319-.495l-.176-.244-.177-.223q-.083-.108-.165-.211-.067-.095-.125-.188a1.22 1.22 0 0 1-.081-1.155c.107-.25.258-.482.443-.684q.45-.5.996-.907c.273-.2.438-.31.438-.31q-.27.066-.527.166-.297.114-.577.257a4.3 4.3 0 0 0-.703.446 2.9 2.9 0 0 0-.684.75q-.157.258-.226.542a1.8 1.8 0 0 0-.031.628q.044.324.194.617.07.144.159.278l.165.235.16.228.15.22c.101.145.188.304.284.455q.27.447.46.93c.119.292.188.6.206.909.008.28-.052.559-.177.814q-.192.37-.484.675c-.087.098-.176.185-.263.275a1.53 1.53 0 0 0 .006-1.268 1.8 1.8 0 0 0-.376-.521l-.128-.123-.14-.104a2 2 0 0 0-.303-.188l-.145-.078-.142-.073c-.101-.046-.177-.098-.263-.145a4 4 0 0 1-.25-.15 5 5 0 0 1-.475-.33c-.069-.064-.144-.119-.21-.183-.067-.063-.134-.124-.192-.188a2 2 0 0 1-.177-.194 3 3 0 0 1-.147-.197 2.6 2.6 0 0 1-.23-.397 3 3 0 0 1-.141-.373c-.038-.116-.055-.223-.078-.313-.03-.177-.044-.29-.044-.29l-.037.07q-.057.099-.096.206-.06.167-.093.341a2 2 0 0 0-.02.47q.024.283.122.553a2 2 0 0 0 .301.567q.192.286.449.524c.087.076.176.157.27.23.092.069.19.144.292.205.101.06.2.124.312.18.11.054.223.112.319.15l.304.11q.126.044.243.107l.116.058.102.066q.1.062.19.137.085.07.163.15.07.078.13.165.108.16.177.34.057.148.092.3.026.121.038.243c-.07.067-.139.137-.203.2-.176.165-.312.313-.428.435-.116.124-.194.234-.25.304a1 1 0 0 0-.078.116l.116-.081c.073-.053.189-.122.33-.215l.209-.124c.096.153 1.069 1.813-.012 4.482 0 0 1.637-2.75 1.249-4.477.06 0 .118 0 .176-.014l.394-.055q.214-.034.423-.09.23-.052.452-.13.49-.165.932-.426.24-.14.452-.31.057-.042.116-.092l.029.04c.052.067.115.165.202.29q.13.187.272.457.082.138.145.284c.05.102.09.209.133.319s.076.228.113.347q.057.18.07.368c0 .064.012.127.017.188.006.064 0 .128 0 .191q-.004.194-.043.386a1.4 1.4 0 0 1-.055.188 1.3 1.3 0 0 1-.064.19l-.087.186-.037.081-.064.11-.116.226c-.043.075-.087.133-.127.2l-.128.2-.142.205-.573.837a10 10 0 0 0-.527.875 4 4 0 0 0-.22.452q-.104.226-.177.46l-.035.113c0 .04-.014.078-.023.116l-.043.229c-.02.147-.018.3-.026.44-.006.139.032.275.049.4q.04.175.101.347c.032.098.076.197.134.284.046.08.092.165.13.228.095.125.177.218.231.281l.084.096s-.037-.177-.118-.452c0-.072-.02-.15-.032-.24a1.2 1.2 0 0 1-.02-.272v-.302c0-.104.026-.214.052-.33s.058-.223.11-.339c.052-.115.084-.205.139-.312.006.046.011.092.023.136l.064.33q.04.165.098.33c.038.107.07.22.116.33s.101.212.15.319q.158.321.363.617l.095.153.102.14c.063.095.133.187.2.286.266.38.526.767.77 1.164.243.397.474.802.666 1.213q.292.6.492 1.234c.058.206.119.408.165.61.043.204.087.4.101.595s.053.385.055.57c0 .185.02.365 0 .539-.02.17 0 .339-.02.495s-.029.304-.043.446c-.04.278-.084.521-.12.72-.092.398-.141.624-.141.624s.067-.224.188-.614q.077-.296.177-.719.035-.21.078-.446c.03-.159.038-.33.058-.495s.026-.356.032-.547a7 7 0 0 0-.012-.59c-.011-.204-.043-.41-.063-.623-.02-.215-.079-.426-.122-.643a9 9 0 0 0-.42-1.318 16 16 0 0 0-.597-1.291 23 23 0 0 0-.431-.78c.455.047 1.552.32 2.036 1.865.617 1.967.411 2.56 1.164 3.505a13.3 13.3 0 0 1-.298-4.084c.185-2.383-2.772-3.408-3.968-3.417 0-.017 0-.035-.014-.052-.02-.093-.055-.185-.064-.278-.008-.093-.023-.182-.032-.272q-.018-.131-.011-.267v-.254c0-.09.02-.165.032-.246q0-.062.014-.12c0-.04.02-.078.029-.115q.03-.112.055-.22c.017-.073.05-.14.075-.206q.07-.19.165-.37v-.015c.151-.2.299-.4.446-.614q.064-.092.128-.194l.049-.055q.034-.035.07-.067l.028-.026-.037-.037q.165-.266.304-.545l.058-.113s.014-.029.011-.017v-.014l.015-.035.026-.067.101-.272q.046-.139.064-.28.031-.14.04-.279.024-.271-.014-.541c-.014-.087-.02-.174-.043-.258l-.07-.24a2 2 0 0 0-.087-.23c-.035-.075-.064-.147-.098-.214-.081-.13-.145-.26-.232-.373a3.6 3.6 0 0 0-.5-.568 5 5 0 0 0-.453-.365c-.13-.09-.24-.153-.315-.197q-.024-.007-.04-.02l.075-.058c.069-.063.133-.133.2-.2q.201-.204.37-.434c.058-.075.104-.165.156-.237q.08-.118.145-.244c.012-.026.02-.052.035-.078l.09.145c.104.185.214.365.31.553l.136.281c.043.093.078.185.115.278l.024.058.063.05c.076.054.16.12.235.184l.234.194q.232.2.455.409l.14.133c.286 1.127.76 4.028-.986 6.892 1.4-1.648 2.106-3.718 1.981-5.82.035.043.07.08.107.124.067.078.122.165.177.24.055.076.128.165.177.244l.176.249c.058.084.11.165.162.257q.04.066.082.128l.075.136.055.098c-.014.055-.029.11-.035.165a2 2 0 0 0-.029.293v.104s.023-.029.07-.078c.046-.05.11-.127.194-.22q.126-.137.304-.304c.06-.055.124-.113.194-.165.072-.052.145-.113.223-.165q.408-.283.869-.484c-.44.475-.64 1.11-.548 1.732.24 1.3.354 1.963-.127 2.624-.061-.116-.125-.232-.177-.342s-.156-.255-.231-.37c-.076-.117-.154-.227-.226-.331a8 8 0 0 0-.406-.495 4 4 0 0 0-.394-.403l.209.504.22.574c.084.22.165.472.255.744q.059.206.124.425.065.222.116.455.116.484.177.976c0 .087.014.165.026.258.011.092 0 .165.011.255q.007.255-.011.515v.13l-.02.128a3 3 0 0 0-.038.255c-.032.182-.075.376-.11.567a21 21 0 0 0-.237 1.74c-.015.195-.027.38-.035.568-.006.185 0 .374 0 .553s.014.36.029.533q.047.495.176.976.055.216.136.423l.079.194.092.177.087.164c.03.056.07.099.102.142q.084.128.194.235.084.087.176.165c.061.04.107.078.15.107l.125.081-.078-.121-.093-.142-.095-.2a1.4 1.4 0 0 1-.096-.255l-.046-.145c-.012-.052-.02-.104-.035-.165-.014-.06-.02-.11-.034-.165l-.02-.182c0-.064-.015-.128-.021-.194-.003-.067 0-.136 0-.203q-.013-.449.026-.898l.046-.495c.015-.165.038-.342.07-.515.092-.66.223-1.358.353-2.062.938.825 3.197 3.075 3.264 6.006 0 0 .428-3.915-3.078-7.445v-.226c0-.105-.02-.206-.03-.307q-.012-.152-.034-.298c-.015-.099-.04-.195-.061-.29a6.4 6.4 0 0 0-.55-1.523l-.012-.026c.197-.166.527-.528.608-1.251.064-.542-.118-1.153-.052-1.813.058.495.232 1.187.721 1.691.866.895 1.466 2.039 1.008 2.991 0 0 .718-.932.208-2.345.736-1.141.079-2.366-.104-2.763-.182-.397.293-.825.293-.825s-.797.249-.394 1.236a1.47 1.47 0 0 1-.191 1.483c-.56-1.074-1.133-1.978-.215-3.281l.148-.05c.136-.043.275-.08.411-.127.136-.046.293-.104.435-.165a2.04 2.04 0 0 0 .185 1.164q.041.105.101.2c.076.133.148.243.223.362s.136.226.194.342q.166.297.284.61.078.237.113.482.013.091.012.188.016-.093.02-.188a2.5 2.5 0 0 0-.035-.504 4 4 0 0 0-.176-.698 6 6 0 0 0-.142-.385c-.052-.134-.116-.258-.157-.374a1 1 0 0 1-.06-.182 2 2 0 0 1-.067-.539q.01-.31.133-.602.06-.149.15-.284l.035-.02a8 8 0 0 0 1.005-.684c.105-.08.2-.165.296-.243l-.081.139q-.117.226-.203.46a3.4 3.4 0 0 0-.133.504q-.018.134-.023.267 0 .135.017.269.035.225.104.443.066.199.165.385c.061.113.125.206.162.278a.5.5 0 0 1 .061.209q.005.082 0 .165v.06l.038-.049a1 1 0 0 0 .101-.147c.05-.09.07-.189.067-.287a3 3 0 0 0-.035-.342 6 6 0 0 1-.026-.356v-.402c0-.064.014-.122.017-.18s.03-.127.038-.191q.05-.2.127-.408c.02-.07.05-.14.079-.206.029-.067.052-.139.084-.209q.086-.209.176-.408c.116-.266.223-.518.313-.741s.16-.411.206-.545c.046-.133.07-.217.07-.217a2 2 0 0 0-.19.145l-.135.122c-.058.02-.125.043-.206.078l-.443.18-.541.231-1.286.559-.322-.295.12.379-.192.081-.313-.295.119.373-.165.07a1 1 0 0 1-.102.037l.047-.043-.429-.339.154.47q-.023.005-.044.017c-.046.02-.092.032-.142.049l-.454-.533.15.637-.176.064-.493-1.086.177 1.202-.264.101-.046.02-.614-1.624.342 1.752c-.026.014-.055.023-.084.04q-.163.082-.319.177c-.19-.495-.752-1.906-.802-1.978-.049-.072.354 1.596.496 2.166q-.197.14-.377.295l-.993-3.142.579 3.577a2 2 0 0 0-.142.185 2.7 2.7 0 0 0-.287.55q-.028.078-.049.151a1.7 1.7 0 0 0-.078-.295c-.032-.099-.06-.197-.096-.296l-.124-.286a3 3 0 0 0-.142-.281l-.101-.177-.226-4.686-.223 4.014a4 4 0 0 0-.16-.197q-.102-.126-.208-.243a2 2 0 0 1-.093-.101v-4.75l-.443 4.31c-.127-.114-.255-.23-.388-.33l-.214-.166.469-4.613-.924 4.09a4 4 0 0 0-.118-.186c-.064-.09-.128-.183-.195-.267l.65-4.034-1.04 3.585c-.02-.023-.047-.049-.067-.072q.134-.334.22-.678.056-.26.081-.52c0-.088.02-.175.023-.258.003-.087 0-.166 0-.252q0-.464-.084-.924l.073-.484-.096.368a7 7 0 0 0-.185-.724 6 6 0 0 0-.258-.66 5 5 0 0 0-.255-.484 2 2 0 0 0-.11-.18c.081-.193.142-.39.212-.587.078-.243.118-.495.176-.742.058-.246.064-.495.099-.755.046-.496.063-1 .055-1.5a17 17 0 0 0-.105-1.495c-.052-.492-.118-.987-.141-1.442-.05-.417.014-.84.188-1.225.214-.365.524-.672.898-.898q.113-.072.231-.144a6.63 6.63 0 0 1-1.025 3.863s2.92-2.615 3.148-5.54q.07-.073.142-.145.504-.602.935-1.254.387-.603.843-1.164l.11-.124.046.483c0 .058.084 1.222.084 1.222l.756-2.117.026 1.584.704-2.143.043-.014c.026.397.13 1.891.145 1.795.014-.092.44-1.282.704-2.032l.15-.03-.19 1.799.784-1.868h.376l.617.023-.055-.533a6 6 0 0 1-.029-.518l.012-.017v-.244h-.006a9 9 0 0 1 .127-1.537c.281-.455.65-.855 1.09-1.179l-1.2 2.942 1.99-3.313c.22-.058.452-.08.68-.07l-2.371 4.336 3.127-4.132c.04.165.078.338.119.51l.052.228-2.253 3.394 2.464-2.551q.082.268.177.535l-1.607 1.813 1.888-1.309q.07.125.153.24c0 .01.015.018.024.027l-.91 1.054 1.153-.797c0 .041.011.079.02.116s.015.07.032.134l.072.02-.446.69.76-.595.312.093-.307.741.634-.695.374.11-.142.548.402-.484.423-.04q.187.105.385.188.476.215.993.313.139.022.281.04c.05.038.09.07.148.107.255.171.536.31.828.412.394.139.811.205 1.234.194h.177l.07-.01q.119.084.257.14a2.4 2.4 0 0 0 1.028.165q.321-.013.634-.07c.116-.017.209-.043.33-.066l.136-.018q.067-.012.136-.008h.142c.047 0 .096.017.142.026q.144.03.284.084a1.93 1.93 0 0 1 .924.842l.04.07.026.075q.034.076.061.148.043.151.055.307a.4.4 0 0 1 0 .153c0 .05 0 .105-.011.151q-.029.153-.09.298l-.038.099v.02l-.02.046-.099.206q-.092.208-.176.426a6.5 6.5 0 0 0-.385 1.812 8 8 0 0 0 .11 1.828c.029.147.052.292.087.437.034.148.063.298.104.429.038.13.072.269.104.402.035.136.067.25.09.37.116.441.104.901-.035 1.339-.136.396-.431.767-.689 1.14-.064.096-.133.189-.185.279l-.087.133c-.032.052-.055.098-.084.148q-.153.27-.244.558c-.098.31-.139.635-.115.959a2.1 2.1 0 0 0 .194.79 2 2 0 0 1-.021-.208 2.74 2.74 0 0 1 .325-1.404 4.5 4.5 0 0 1 .703-.904c.151-.165.313-.33.481-.524.183-.209.336-.44.461-.684a2.4 2.4 0 0 0 .243-.86v-.037l.078.104c1.167 1.538-.177 2.569-.46 2.76l-.325.211.023.374c.073 1.285-1.057 2.484-1.071 2.493l-.232.243.052.316c.11.727-.197 1.454-.805 1.917l-.388.26.11.435s.296 1.286-.37 2.369c-.284.411-.44.889-.46 1.378-.064-.055-.128-.11-.177-.165-.177-.165-.33-.339-.475-.495a25 25 0 0 1-.655-.802c-.153-.197-.24-.313-.24-.313A8 8 0 0 0 99 50.388q.203.288.443.55.206.23.446.426c.133.443.449.779.744 1.092l.281.304q.087.373.104.753v.107a9.8 9.8 0 0 1-.764 2.345l-.206.435.217.194a8 8 0 0 1-.142.243l-.055.087q.002 0 .07-.075c.046-.052.107-.116.176-.206l.099.087c.04.032.069.072.107.107l-.096.165-.055.104.096.078c.278.226.53.481.747.76.478 1.363.078 2.927.075 2.95l-.68 2.549c0-.018-.012-.032-.017-.05-.096-.266-.16-.414-.16-.414s-.011.165-.014.44v.8c0 .107-.012.22-.015.33 0 .231-.011.483-.014.747 0 .263-.038.541-.058.825s-.075.576-.099.872l-.026.223c-.011.075-.029.148-.043.22-.029.147-.061.292-.087.443a4 4 0 0 1-.104.44c-.044.145-.078.29-.116.432-.038.141-.096.28-.142.42-.046.138-.09.275-.15.402q-.09.192-.163.385c-.049.128-.124.243-.176.362a4 4 0 0 1-.177.342c-.06.107-.122.211-.177.313-.13.19-.24.379-.353.53-.113.15-.217.29-.307.4a3 3 0 0 1-.217.245 1 1 0 0 0-.081.087 3 3 0 0 0 .42-.208zm1.653 13.185c-.008.364-.055.73-.144 1.085a10 10 0 0 1-.307 1.043c-.235.66-.498 1.268-.748 1.798-.133.281-.263.545-.388.782-.02-.08-.037-.165-.06-.246a4.6 4.6 0 0 0-.834-1.52 5 5 0 0 0-.296-.33l-.29-.305c-.393-.405-.799-.825-1.233-1.21a20 20 0 0 0-.66-.573c-.223-.186-.44-.357-.634-.539a10.4 10.4 0 0 1-1.057-1.202 5 5 0 0 1-.215-.307 3 3 0 0 1-.176-.312 3.3 3.3 0 0 1-.226-.66 7 7 0 0 1-.14-1.304 6 6 0 0 0-.092-.912q.082.142.148.292a3 3 0 0 1 .145.403l.075.223c.026.075.043.145.078.226q.178.478.46.915a5.3 5.3 0 0 0 1.347 1.427 6 6 0 0 0 1.613.826 6 6 0 0 0 1.544.284l.02-.015c.42.02.84-.014 1.25-.101q.397-.083.762-.24.056.235.053.474zm-57.72-8.598c.298.136.739.33 1.271.614q.944.487 1.822 1.074l.272.194c.759.724 2.227 2.128 3.075 2.925.108.133.215.258.322.397-1.132-.693-4.943-3.064-4.943-3.064l4.312 4.598-4.973-3.83 3.756 4.734-4.914-4.489.982 2.025a3.22 3.22 0 0 0-2.586-.293l-.385-.36-.223.592c-.038.017-.078.031-.119.052l-.093.043-.284-.483-.11.677-.2.096-.584-.527v.802l-.145.064-.663-.782v1.068l-.162.067-.678-1.054-.165 1.39-.304.116-.608-1.367-.093 1.619-.255.086-.822-1.624.107 1.865-.298.09-.976-1.871v2.157l-.235.067-1.14-2.812s-.03 2.12-.021 3.104l-.156.038c-.389-.927-1.286-2.945-1.286-2.945l.353 3.032-.243-.044-1.642-4.022s.205 2.262.336 3.637a4 4 0 0 1-.354-.165c-.544-1.387-1.384-3.475-1.384-3.475l.177 2.528c-.602-.753-.863-1.833-.431-3.396 1.549-5.604 6.955-10.698 7.309-13.348l.005.006c.403-.09.817-.136 1.234-.139q.437 0 .863.076c.243.07.576.165.959.295l.292.145.038-.032c1.34.466 3.104 1.219 3.944 2.169 0 0 1.26 1.952 1.071 4.836L41.8 76.436l.463.206zm5.832-.391.924.654-.301-.066a20 20 0 0 0-.623-.591zM37.982 65.232a6.4 6.4 0 0 0-1.868-.27q-.418.001-.83.05a106 106 0 0 0 3.063-5.899l29.161-9.539c-.495 1.793-.553 4.275 1.15 6.177-2.34.29-6.475 1.463-9.721 5.913a25 25 0 0 0-7.373-1.094c-5.178 0-9.745 1.57-13.582 4.662m16.952-22.359h-.005l.014.032q-.444.153-.932.301c.159-.121.315-.243.469-.376s.275-.243.411-.368v.052a1.1 1.1 0 0 0 .043.362zm4-.622a14.6 14.6 0 0 1 1.79-2.062q.364-.091.694-.267c-.092.66 0 1.306.585 1.747a2.66 2.66 0 0 0 1.584.486c.776 0 1.523-.272 2.091-.767.356.385.79.698 1.277.92-.402 1.066-.843 3.16.475 5.604l-28.188 9.22c.266-.628.512-1.242.724-1.821 1.563-4.312 7.555-9.113 10.35-9.721v-.01c2.261-.494 7.627-1.812 8.618-3.324zm2.479-11.314c-.087-.114-.177-.215-.255-.308.263.186.587.415.952.684s.76.562 1.179.889l.918 2.273-2.053-2.398v-.008a7.4 7.4 0 0 0-.744-1.133zm3.223 2.426a1.4 1.4 0 0 0-.177.38l-.353-.87c.176.151.353.305.51.467h-.007l.024.02zm-1.483 5.551a8.4 8.4 0 0 0 .365-1.38l.029-.218c.092-.66.095-.92-.081-1.153a7 7 0 0 0-.035-.825 5.8 5.8 0 0 0-.258-1.291l1 1.167a20 20 0 0 0-.114 2.215 17 17 0 0 0 .267 3.212 1.8 1.8 0 0 1-.744.165 1.2 1.2 0 0 1-.69-.192c-.237-.176.073-1.129.258-1.7zm4.885-7.236a2 2 0 0 1 .04-.22c.056-.217.154-.423.284-.611.041-.055.079-.108.125-.165l.211.24a2.9 2.9 0 0 0-.011 2.013 1.3 1.3 0 0 0-.046.234v.067a.5.5 0 0 0-.012.11c0 .953-.104.912-.104.912a6 6 0 0 0-.119-.683l-.044-.166a5 5 0 0 0-.176-.538 2 2 0 0 1-.113-.385 2.3 2.3 0 0 1-.032-.826v.015zm.073-1.434.37.42q-.077.044-.144.096zm.008 3.947c.09.49.038.994-.15 1.46a2 2 0 0 0 0-.252 3.4 3.4 0 0 1 .15-1.208m.626-3.197.33.374q-.119.36-.133.738c-.061-.33-.107-.71-.038-.857zm2.974-1.016-.443-1.12.562.75q-.075.179-.12.37m1.005-1.335q.064-.1.142-.188l.223.29a3 3 0 0 0-.51 1.592c-.046.988.394 2.155.6 3.417-.038.423-.117.4-.117.4a9.6 9.6 0 0 0-.587-2.187c0-.034 0-.066-.012-.098l-.16-.4a3.7 3.7 0 0 1-.118-1.39c.023-.22.07-.44.14-.651q.032-.102.069-.2.13-.31.33-.58zm-.252-.7.382.494a2 2 0 0 0-.165.105zm1.677 2.168a5.5 5.5 0 0 1 .272-1.407l-.304-.826.092-.098a1 1 0 0 0-.107.052l-.153-.414.634.877.57.791.704.988c.029.037.07.063.113.08-.13.064-1.709.872-1.766 2.552-.061 1.752-.264 1.668-.264 1.668a12 12 0 0 0-.209-1.483 3.93 3.93 0 0 1 .736-2.371c.055-.076.099-.125.099-.125q-.07.038-.134.081a3.3 3.3 0 0 0-.773.744q-.118.164-.211.342-.028.058-.052.116a4.3 4.3 0 0 1-.015-2.557l.767.987zm-.548-1.523q.067-.124.142-.25l.298.817zm2.285-.055h-.006l-.703-2.06.81 1.058q-.105.296-.121.605c-.003.133 0 .267.02.397m.51-1.274c.026-.07.046-.14.075-.206q.135-.287.353-.527c.038-.043.067-.09.11-.13 0 0-.052.026-.133.07l-.191-.51 1.512 2.038a2.3 2.3 0 0 0-.585.426c-.177.17-.319.368-.423.582q-.164.335-.177.707c-.04 1.175-.177 1.117-.177 1.117a7.5 7.5 0 0 0-.335-1.723 3 3 0 0 1-.151-1.199q.025-.33.133-.648H76.4zm1.949-.655-.617-1.601.764.889q-.104.348-.147.71zm.709 4.251a100 100 0 0 0-2.073.875l-.206.098c.347-.48.544-1.045.565-1.624a3.4 3.4 0 0 1 .315-1.483c.116-.26.278-.504.478-.715l.287.388c.145.77.397 1.598.634 2.464zm.2-4.839c.011-.075.029-.147.043-.223a5.3 5.3 0 0 1 .348-1.1 5 5 0 0 1 .246-.472q.164-.287.37-.547l.754 1.813-.189-1.776.927 1.164v.073c.012.712.411 1.639.455 2.626a3.94 3.94 0 0 0-1.37 2.58 4 4 0 0 0-.026.464v.507c0 .231 0 .431-.015.61a9 9 0 0 1-.405.403 30 30 0 0 0-.16-.825q-.09-.406-.208-.846c-.107-.382-.231-.77-.38-1.143a6.5 6.5 0 0 1-.448-2.616 6 6 0 0 1 .064-.689v.006zm-.055-1.836.127.145q-.02.028-.046.055l-.078-.197zm6.226.192.043.165q.117.378.275.738.278.635.666 1.213.163.24.307.432l-.069-.032c-.093-.046-.197-.093-.301-.153-.104-.058-.217-.12-.33-.189a7 7 0 0 1-.68-.469c-.105-.09-.22-.176-.32-.272-.098-.096-.176-.165-.26-.258a.224.224 0 0 0 .06-.26l-1.4-3.197 2.009 2.284zm-.125-2.204-.405-1.046.507.582q-.052.2-.096.409H85.3zm-2.499 6.88q-.228.264-.417.536c-.133.044-.315.113-.55.197q.067-.365.16-.683c.385-.415 1.233-1.451 1.16-2.416v-.272q.001-.325.076-.643c.081-.37.249-.72.492-1.022l.6.718c.04.078.084.165.13.246.064.125.148.24.226.365s.176.238.266.36a7.7 7.7 0 0 0 .91.94l.057.044-.15.032a8 8 0 0 0-.811.234c-.133.052-.26.093-.394.154-.133.058-.272.116-.38.174l-.176.087c-.078.04-.133.078-.2.115l-.194.12q-.09.061-.176.132l-.177.136-.156.151q-.08.074-.157.15v-.011l-.136.165zm.255-3.715a1.6 1.6 0 0 0-.27.825c0 .035-.01.067-.01.102a3.4 3.4 0 0 1-.044.9l-.052.038a6.4 6.4 0 0 0-.38-1.436 2 2 0 0 1-.115-.357 2.5 2.5 0 0 1-.067-.889c0-.052.011-.101.02-.147.04-.252.133-.495.266-.716q.079-.12.174-.231a1.6 1.6 0 0 0-.211.15l-.316-.825.545.651s.003-.005.005-.005l1.112 1.332a2.1 2.1 0 0 0-.654.61zm10.489 2.16h.006q.138-.054.28-.092c.079-.02.166-.03.247-.044l.026.018a1.2 1.2 0 0 1-.56.118m10.413 3.096a2.2 2.2 0 0 0-.353-.906 2.6 2.6 0 0 0-1.451-1.066 2.2 2.2 0 0 0-.437-.07c-.072 0-.142-.008-.217-.008l-.209.02a1 1 0 0 0-.202.04l-.194.055-.296.11q-.264.093-.541.154c-.296.067-.6.078-.9.032l.141-.035.185-.05.177-.063c.058-.02.124-.052.188-.078l.177-.087a7 7 0 0 0 1.309-.912 9 9 0 0 1 1.222-.927 1.44 1.44 0 0 1 1.257-.136c.052.015.107.044.162.064l.046.006h.009l.032.017.092.052.177.102c.055.031.087.066.133.098s.084.064.128.098l.124.122c.084.078.159.168.223.26.267.377.423.814.455 1.266.043.435-.006.875-.142 1.292a2.4 2.4 0 0 1-.466.77c-.07.081-.136.165-.206.243-.356.403-.68.831-.976 1.275q.053-.159.113-.307l.078-.186.018-.046.017-.04v-.038l.035-.099q.085-.248.118-.51v-.26q0-.126-.026-.252m2.456-8.992s-.014-.02-.023-.029a2.42 2.42 0 0 0-1.743-.77c1.508-.628 3.234-1.254 3.95-1.254.315 0 .9.24 1.668.794zM67.395 31.692a1.5 1.5 0 0 0-.275.194l-.38-.979.658.785zM22.67 77.557c-2.838.877-7.57 1.193-8.514 3.194-.191.405-.385.814-.527 1.21l-.66-1.317-.354 2.088-.243-.165-.556-2.772-.863 1.74-.194-.153v-3.121l-1.335 1.914q-.078-.077-.156-.165l.964-3.374-2.169 2.039-.122-.15 2.288-4.11-3.237 2.823-.151-.231 2.331-4.732s-2.235 1.76-3.423 2.783a8.5 8.5 0 0 1-.764-2.32c-.342-2.56 2.004-5.236 6.678-10.573.857-.978 1.83-2.09 2.864-3.295 5.12-5.94 9.58-8.256 13.958-10.086 1.222-.51 2.438-.988 3.66-1.483a38.3 38.3 0 0 0 6.493-3.527 54 54 0 0 0 6.336-4.935l-.116 1.344.99-2.157q.243-.23.48-.464c.134.516.354 1.367.398 1.327.043-.041.654-1.773.993-2.737.093-.096.177-.194.275-.29l.214 1.318 1.613-3.215.313-.315-.28 2.21 2.25-4.034q.085-.07.176-.137v2.546l1.662-3.739c.055-.034.104-.07.16-.107v2.354l1.69-3.428.284-.174v1.978l1.156-2.667c.148-.087.295-.165.443-.258l.284.964.863-1.618c4.303-2.404 8.635-4.405 9.014-4.243.177-.026 1.168.53-.205 1.33l-2.992 2.591-.315.232a.39.39 0 0 0 .011-.362c-.205-.33-1.083-.2-1.969.28-.608.33-1.057.745-1.205 1.075-.64.27-1.233.626-1.76 1.06-1.092.854-1.798 1.758-1.57 2.01.177.205.927-.084 1.784-.66l.191-.11.05.031q.066.046.188.14l-.128 1.546.519-.79v1.105l.428-.643v.806l.336-.357v.701l.307-.27v.525l.238-.255v.516l.254-.122v.284l.293.063q.042.149.075.293c.023.095.035.203.046.301q-.004.378.03.756c0 .09-.012.182-.024.272-.011.09-.026.2-.043.298l-.038.166a.85.85 0 0 0-.19.315l-.143.408.081.073c-.023.055-.043.11-.07.156-.063.136-.11.229-.132.272l-.018.038a4 4 0 0 0-.156-.35 5 5 0 0 0-.287-.484 8 8 0 0 0-.738-.927 14.5 14.5 0 0 0-1.605-1.462l-.559-.437q-.102-.08-.153-.125a.3.3 0 0 1-.046-.05q.012.032.037.059.04.056.125.15l.258.305-.047 1.647.313-1.045.16 1.317.222-.808.128.959.266-.594v.692l.223-.356.13.446.11-.197.012-.008c.154.257.29.527.403.802q.09.217.153.443a3 3 0 0 1 .101.556q.005.076 0 .15a1.6 1.6 0 0 1-.04.377l-.012.05v.028a1 1 0 0 0 0 .11v.04a1.4 1.4 0 0 1-.556.253h-.246l-.208.194c-.055.052-1.396 1.309-2.15 2.455-.176.27-.764.591-1.583.93l-.047-.052a1 1 0 0 1 .012-.154c.038-.217.09-.431.165-.64q.24-.681.553-1.338c.414-.889.88-1.769 1.382-2.635l.008-.017a.085.085 0 0 0-.032-.116l-.689-.403c0-.034 0-.069-.008-.104v-.023l-.652-1.483.394 1.454-.04-.026.043.038.014.058a5 5 0 0 1-.075.68l-.032.165c-.012.055-.032.11-.046.165-.035.11-.055.22-.102.33l-.124.319-.154.307a3 3 0 0 1-.176.298l-.09.148-.102.139c-.127.191-.28.368-.428.544a5 5 0 0 1-.486.495 6 6 0 0 1-.261.238c-.084.072-.177.156-.267.229l-.275.22-.286.208c-.194.136-.388.273-.594.397q-.307.186-.614.368-.311.18-.634.339-.322.166-.649.315-.325.152-.663.29-.334.139-.672.27-.338.127-.68.242a10 10 0 0 1-.663.206l-.137.046a.93.93 0 0 0-.576.811c-3.38 1.602-8.352 5.954-9.837 10.043-.321.89-.733 1.86-1.187 2.85a64 64 0 0 1-.956 2.006 118 118 0 0 1-3 5.624c-1.176 1.853-2.485 3.762-3.362 4.59-1.955 1.853-4.605 6.756-7.443 7.634zm34.8-40.342.484.408c-.177.209-.342.423-.51.634 0-.043.012-.087.017-.127h.006c0-.064.015-.122.02-.186v-.185c.01-.18 0-.362-.014-.541zm-6.785 77.525L27.224 86.766a36.9 36.9 0 0 0 13.393-3.774h-.003a2.25 2.25 0 0 1 1.008-.26c2.024 0 3.255 3.707 3.322 4.624.037.528.388 1.379 1.057 2.966.967 2.308 2.287 5.47 2.661 8.27.165 1.243.203 2.389.24 3.501.096 2.801.191 5.439 2.323 8.517a14.6 14.6 0 0 0-.539 4.133zm65.383-17.694q.086-.895.159-1.772c.38-4.59.704-8.552 5.737-12.62a32 32 0 0 1 2.748-1.964l-8.647 16.356zm9.907-18.74q-.49.29-.968.583l-.813-.869-.626 1.773-.507-1.535s-.683 2.354-.787 2.426c-.105.073-.414-2.667-.414-2.667l-.834 3.617-.368-4.028-1.173 5.407-.177-4.286-1.152 5.751-.756-2.957v4.005q-.07.105-.136.212l-1.057-1.784.512 2.74c-.043.078-.081.164-.118.237l-.959-.965.466 2.074-.958-.27.527 1.524-.043.165-.852-.736.626 1.648c-.044.188-.079.38-.116.568l-1.286-1.095 1.124 2.056q-.043.292-.079.585l-1.749-1.45 1.584 2.979-.031.36-2.337-2.063 2.157 4.147q-.02.222-.046.446l-3.07-3.36 2.78 5.657q-.02.133-.046.266l-3.6-4.715 3.128 6.554-.09.165-3.959-5.398 3.261 6.715-.127.247-3.698-4.862a19 19 0 0 1-1.246-2.708 12.7 12.7 0 0 0 2.068-1.897q.643-.74 1.164-1.564c.084-.136.177-.272.255-.414l.235-.4q.238-.415.46-.825a39 39 0 0 0 1.61-3.38 63 63 0 0 0 1.286-3.347c.388-1.083.75-2.125 1.121-3.072q.487-1.3 1.169-2.526a8.7 8.7 0 0 1 1.301-1.763v-.006a7.3 7.3 0 0 1 1.262-1.045c.102-.064.194-.125.284-.177 2.111 1.318 4.752 2.537 6.472 2.873l-.671.38zm6.483-12.92q-.265-.066-.527-.136.282.065.568.104l-.041.029zm24.106-44.964-6.722 12.721a47 47 0 0 0-6.371-5.123 529 529 0 0 0-3.344-2.22l16.439-5.378zm-19.852 4.815q.86.553 1.732 1.127 2.04 1.334 4.182 2.768a44 44 0 0 1 6.53 5.314l1.234 1.274c.9.97 1.737 1.993 2.502 3.058 2.302 3.25 2.577 5.129 2.345 5.491-.353.541-1.034 2.042-2.064 4.312-1.269.029-3.959.443-6.913 3.006a9.6 9.6 0 0 1-2.699-.229 9.5 9.5 0 0 0 1.903.973l-.122.119a10 10 0 0 1-3.614-.148 9 9 0 0 0 2.641 1.208c-.026.032-.052.058-.078.09a10.2 10.2 0 0 1-4.341-.02 8.6 8.6 0 0 0 3.31 1.349c-.029.04-.055.087-.087.124a10.2 10.2 0 0 1-5.571.33c1.572 1.028 2.991 1.39 4.155 1.44a10.14 10.14 0 0 1-6.513.72c1.906 1.249 3.588 1.512 4.862 1.431l-.02.02c-3.539 1.903-6.996.386-6.996.386 1.836 1.647 3.588 1.905 4.752 1.821-.035.029-.064.058-.096.09-4.378 1.21-6.944-.66-6.944-.66 1.161 2.287 3.096 2.733 4.465 2.719l-.191.148c-4.329.15-5.87-1.41-5.87-1.41.055 1.771 1.072 2.634 2.288 3.034-2.991-.9-3.741-2.152-3.741-2.152-.594 1.648.087 2.694 1.184 3.362-2.464-1.054-3-2.073-3-2.073-.935 1.44-.492 2.493.51 3.255-2.132-1.236-2.526-2.27-2.526-2.27-.75 1.01-.767 1.87-.37 2.591-1.584-1.207-1.877-2.203-1.877-2.203-.66 1.14-.59 2.093-.15 2.87-1.486-1.295-1.761-2.401-1.761-2.401-.95 2.01-.052 3.426 1.1 4.344-2.528.098-4.943.18-3.764 2.047q.204.31.466.57-.742.624-1.349 1.365a11.5 11.5 0 0 0-1.509 2.426 21 21 0 0 0-1.083 2.945c-.307 1.034-.582 2.111-.881 3.206a69 69 0 0 1-.97 3.33 38 38 0 0 1-1.259 3.333c-.119.273-.244.548-.368.814l-.197.411c-.061.133-.127.258-.194.388q-.396.766-.904 1.471a11.4 11.4 0 0 1-2.409 2.424 13.5 13.5 0 0 1-2.89 1.62c-.941.381-1.917.683-2.916.897a22 22 0 0 1-4.616.495 16 16 0 0 1-1.775-.078c.582.104 1.17.18 1.76.22 1.234.095 2.476.093 3.71-.012-.608.834-1.619 2.688-.214 3.081 1.818.51 2.913-2.035 5.398-2.18 2.363-.14 7.184 5.195 5.919 6.151l-1.115-1.883.176 2.068c-.112 0-.231 0-.353-.014l-.967-1.689v1.57q-.192-.03-.394-.07l-.903-2.064.031 1.882-.741-.174-1.158-1.943c1.286-.785-1.02-2.406-1.547-.97s-1.271 5.36-2.557 4.778c0 0-1.089-.203-.744-.805s-.851-1.793-1.737-1.289-2.132.409-1.51 1.199c.623.791 2.06 1.483 2.604 2.635.545 1.153 2.523.936 2.818-.39a15.6 15.6 0 0 1 1.184-3.238c.936 1.263 2.844 2.343 1.474 2.473-1.407.127-1.633 1.208.464 1.141 2.099-.064 2.131 1.318 1.407 1.68-.721.362-3.206 0-2.737 1.601.47 1.601-.234 2.887-1.088 3.956-.354.446-.51 1.068-.568 1.647a20 20 0 0 0-4.503 6.574c-2.818 6.802-2.149 5.621-2.149 5.621s4.159-5.743 6.956-8.239l-12.388 23.462-5.717 10.819-.733-.871c-.263-1.309-.787-3.886-.999-4.77l.044.087-.09-7.813-1.335 3.852-.078-5.332-1.11 2.636q-.03-.057-.054-.113v-4.55l-1.057 2.479-.03-.052-.158-.284-.177-3.64-.724 2.071-.191-.331-.2-2.965-.672 1.596-.162-.246v-2.598l-.828 1.39-.287-1.39-.353.51c-.29-.38-.56-.727-.805-1.025a74 74 0 0 0-.643-.771c-.365-.42-.588-.66-.588-.66s.191.255.501.709c.15.232.342.507.541.834.2.328.426.696.664 1.101.234.405.48.851.732 1.318.255.466.51.973.756 1.502.125.261.258.528.382.8.125.272.244.553.365.825l.186.42.176.426c.116.286.229.57.354.857.225.573.422 1.152.634 1.723.211.57.37 1.141.55 1.688.18.545.307 1.086.452 1.59.144.504.243.987.353 1.433q.077.334.15.638l.07.295c.023.093.038.191.055.284q.106.544.177.941c.046.26.084.437.11.576l-4.24-5.053-15.756-18.786a3.36 3.36 0 0 0 1.847-.712c1.092-.93-3.431-3.394-3.926-4.651v.032c-.501-1.257.744-.932.744-.932 1.242 2.418 4.575 2.977 5.218 1.581.643-1.393-3.727-2.609-5.968-4.373-2.242-1.761-.704-4.885.596-4.286q.227.106.475.151c2.421 1.931 4.51 5.337 6.722 6.055s3.08 1.772 4.068 4.491c1.584 4.37 10.538 9.23 14.61 5.613 1.703-1.509.353-2.013-1.955-2.355l-.512-.952-.177.857-.154-.021-.486-.975-.177.892-.144-.018-.594-1.234-.353 1.124-.194-.023-.724-1.358-.235 1.236c-.075-.008-.145-.02-.223-.029l-.527-1.401-.33 1.268-.258-.043-.938-1.547-.278 1.295c-.099-.023-.191-.049-.287-.073l-.842-1.914-.177 1.593a7 7 0 0 1-.365-.151l-.721-1.581s-.023.643-.026 1.17a2.6 2.6 0 0 1-.811-.825c-2.143-3.568-2.699-6.415-5.83-7.376-2.24-.689-3.709-3.521-5.895-5.233 0-.032.011-.061.014-.09.099-1.022-1.393-.886-2.435-1.534-1.043-.652.249-1.535-.744-3.444-.994-1.905-2.786.331-2.337 1.483.37.964-.863 1.923-2.03 1.176l.57-2.493-1.202 1.891-.02-.027 1.112-3.839-1.538 2.024c0-.238.03-.484.064-.736l1.862-4.216-.336.457c.403-1.141.597-2.345.336-3.469-.895-3.863-6.22-9.281-6.403-11.6-.182-2.32 1.193 1.89 2.847 2.235.721.15 1.283-.649 1.514-1.717l.493.782c.19.307.385.614.576.92.096.166.197.313.304.467.107.153.206.313.316.463q.646.922 1.393 1.778a19.4 19.4 0 0 0 3.344 3.058 19 19 0 0 0 3.872 2.143c1.277.527 2.61.927 3.976 1.196a24.6 24.6 0 0 0 3.684.437 27.3 27.3 0 0 0 5.499-.33 18 18 0 0 0 2.03-.428q-1.018.205-2.053.298a28 28 0 0 1-3.953.093l-1.555-1.043-.212.892h-.066l-1.43-.886-.235.637a11 11 0 0 1-.42-.087l-.863-1.063-.293.79c-.19-.051-.379-.11-.573-.164l-1.008-1.153-.19.753c-.177-.064-.34-.133-.51-.2l-1.278-1.404v.843l-.084-.041c-.127-.064-.257-.136-.385-.2l-.947-1.572-.243.892c-.104-.067-.214-.134-.319-.2l-1.042-2.444-.264 1.497c-.092-.073-.185-.14-.275-.214l-.034-.032-1.303-3.383-.29 1.894c-.064-.066-.125-.139-.191-.211l-1.193-4.214-.267 2.384q-.057-.077-.11-.154l-1.233-4.83-.371 2.082-.052-.107-.423-.854-.805-3.933-.316 1.691a32 32 0 0 1-.315-.634c-.62-1.21-1.234-2.377-1.894-3.48a25 25 0 0 0-2.022-2.952 54 54 0 0 0-.99-3.382l-1.25-.35 1.056 1.06h-1.506a24.5 24.5 0 0 0-3.14-2.111l-.063-.038c.574-2.265.658-5.58-1.529-9.47a20.2 20.2 0 0 1 9.021-2.021c2.52-.009 5.021.394 7.393 1.187l.559.215.321-.475a15 15 0 0 1 1.66-2.033l-.507 1.813 1.538-2.763c.176-.15.362-.293.544-.429l-.365 1.466 1.382-2.143c.176-.105.338-.2.51-.293l-.453 1.854 1.938-2.537-.296 2.143 1.506-2.54.296-.075.266 2.473.762-1.523c.385 1.057.756 2.342.753 3.356.049 2.102.787 4.141 2.11 5.84q.245.373.513.736a25 25 0 0 0 2.033 2.372q1.087 1.125 2.282 2.163 1.192 1.044 2.502 1.96.166.113.345.23c.115.075.24.144.31.197.165.121.295.275.385.451.2.377.298.863.422 1.356.12.506.273 1.007.464 1.494.2.495.455.97.756 1.419a10.3 10.3 0 0 0 2.23 2.33c.428.331.862.644 1.323.936l.353.218c.116.072.229.133.342.202l.68.4a18.6 18.6 0 0 1 2.47 1.775q1.165.991 2.17 2.125a25 25 0 0 1 1.864 2.378q.857 1.243 1.57 2.566.353.66.672 1.338c.211.451.411.915.573 1.355l.226.617.553-.33.34-.209q.169-.101.32-.229c.102-.084.212-.165.305-.246l.278-.266c.092-.09.176-.188.254-.284l.125-.145.11-.15c.072-.102.15-.2.217-.305l.194-.315c.064-.104.116-.214.177-.322.06-.107.11-.217.16-.33.048-.113.1-.22.144-.33s.093-.223.13-.339c.038-.115.084-.225.116-.338s.075-.23.104-.345l.087-.348c.015-.07.03-.133.044-.202.142-.14.29-.275.428-.42.177-.191.354-.37.519-.57.168-.2.333-.392.486-.6.154-.209.301-.414.446-.626.145-.211.272-.434.397-.66.124-.226.243-.446.353-.678q.159-.348.304-.7c.099-.235.177-.475.243-.721.067-.244.134-.496.189-.733l.075-.37.058-.374q.1-.749.095-1.506a10 10 0 0 0-.124-1.5 9 9 0 0 0-.151-.742 10 10 0 0 0-.095-.37c-.021-.064-.038-.128-.061-.194.249-.446.443-.918.582-1.405q.118-.439.127-.892c0-.312-.052-.622-.15-.92a3.4 3.4 0 0 0-.42-.826c-.078-.124-.177-.246-.267-.359l-.26-.31a1.4 1.4 0 0 1-.316-.538 1.2 1.2 0 0 1 .047-.603q.233-.744.55-1.462l.614-1.494c.049-.128.101-.246.15-.38l.139-.4q.136-.404.223-.825a4.4 4.4 0 0 0 0-1.723 3.5 3.5 0 0 0-.816-1.56 8 8 0 0 0-1.309-1.127c-.105-.078-.209-.154-.322-.246a1 1 0 0 1-.113-.102 1 1 0 0 1-.069-.11 1.27 1.27 0 0 1-.084-.645 5.5 5.5 0 0 1 .385-1.474q.027-.066.055-.128l1.057-1.283c3.345-4.08 12.015-5.041 14.34-5.23-2.716 3.386-4.494 7.35-5.175 11.535h.061c.104-.218 4.761-15.626 15.948-17.474 1.422 1.711 3.483 2.855 5.771 3.203 0 0-2.039-2.922-1.627-5.934 2.18 1.263 8.096 3.921 14.493.206l-1.61-1.587-.246.938-.935-.987-.785 1.335-.956-1.587-1.158 1.24-.625-2.126-1.448 1.69a37 37 0 0 1-.727-.182l-1.124-3.037-1.52 2.25q-.28-.096-.559-.2l-.77-3.354q.888.083 1.867.13a71 71 0 0 0 9.235-.277c3.099-.299 4.906-.71 5.951-1.112.658.64 1.318 1.071 1.955 1.28.733.237 1.179.095 1.338.026a.436.436 0 0 0 .31-.432c-.015-.08-.081-.272-.443-.321-.721-.104-1.657-.988-1.938-1.28a.85.85 0 0 0 .249-.64 1 1 0 0 0-.136-.42c-.33-.576-1.002-.608-1.448-.556-.289-.397-1.407-1.83-3.063-2.789-1.057-.614-3.594-2.36-5.914-4.335-2.111-1.798-4.575-3.866-5.334-6.099a3 3 0 0 0-.127-.31l.298.192zm-30.864 79.599a11 11 0 0 0-1.682-.319c.371-.643.788-1.184 1.231-1.456 0 .011.237 1.007.451 1.775m30.274-79.428c1.248 2.922 3.466 4.625 5.487 6.345 2.34 1.987 4.903 3.756 5.972 4.376 1.407.825 2.429 2.021 2.817 2.53-.194.027-.443.053-.729.079h-.003c-.325-.313-1.938-1.836-2.537-2.105a.93.93 0 0 0-.88.029c-.021 0-.041-.006-.058-.006-.536.072-3.481.243-8.129-3.66-1.187-.997-2.021-2.04-2.464-3.096a4.7 4.7 0 0 1-.362-2.531q.055-.383.176-.753c0 .04-.014.078-.023.116-.058.37-.072.747-.04 1.117h-.015a4.7 4.7 0 0 0 .168.968c.035.11.058.223.096.33l.127.33q.058.174.142.339.157.345.353.675c.064.11.133.223.2.33l.052.084c.02.034.038.055.055.084l.119.165.234.33.27.31c.092.104.176.214.278.307.101.092.197.194.298.292.191.2.414.377.626.559l.159.136.168.13.333.255c.11.09.226.165.341.246l.345.238c.226.165.466.298.704.446s.469.272.703.402q.702.387 1.373.687c.217.107.443.194.655.283.104.044.208.09.312.128l.31.113.296.107c.095.032.194.06.286.09.189.058.354.121.527.165-.176-.04-.344-.11-.527-.165-.092-.032-.188-.058-.284-.096l-.295-.11-.304-.116c-.104-.04-.208-.087-.316-.13-.208-.093-.431-.18-.648-.29q-.666-.31-1.358-.697c-.226-.137-.464-.267-.693-.415s-.463-.29-.689-.449l-.339-.24a9 9 0 0 1-.336-.249l-.327-.258-.165-.13-.156-.139c-.206-.185-.423-.362-.611-.562l-.29-.292c-.101-.096-.176-.203-.269-.304l-.258-.307-.232-.33-.115-.165c-.021-.027-.035-.053-.052-.079l-.05-.084c-.066-.11-.13-.223-.194-.33a6 6 0 0 1-.333-.66 3 3 0 0 1-.136-.33l-.119-.33c-.034-.11-.06-.22-.089-.33a3 3 0 0 1-.076-.319 6 6 0 0 1-.078-.614 4.3 4.3 0 0 1 .159-1.514 3.5 3.5 0 0 1 .371-.843q.038-.064.064-.099zm-.136-.628h-.038c-.177.223-.898.973-1.124 2.522-.13.924 0 1.865.38 2.728q.155.355.353.69a9.8 9.8 0 0 0 2.239 2.56c2.713 2.278 4.867 3.176 6.2 3.53 1.259.33 2.067.266 2.354.208a19.4 19.4 0 0 1 2.314 1.79 52 52 0 0 1-4.095.124c-4.709-.04-7.57-.741-9.128-1.318-3.857-1.427-6.295-1.763-7.677-1.054-.663.339-1.086.927-1.259 1.75-.105.451-.032.923.202 1.328q.115.193.27.363l-.128.787a29 29 0 0 1-.463-.515l-.828-4.706-.635 2.948q-.265-.347-.527-.698l-.677-4.798-.527 3.11-.391-.576-.487-4.874-1.034 2.51c-.208-.33-.414-.671-.613-.999-.027-.043-.05-.084-.079-.127l-.55-3.808-.495 2.056-.518-.878-.594-3.755-.55 1.795-.354-.57c-.086-.142-.176-.278-.26-.418l-.469-3.625-.62 1.963a34 34 0 0 0-.443-.628l-.585-2.343-.478.947c-.124-.153-.246-.307-.371-.452l-.223-1.954-.419 1.213c-.163-.177-.322-.353-.484-.518q-.63-.665-1.335-1.26c-1.234-1.037-2.354-1.625-3.246-1.625-1.596 0-5.427 1.75-6.093 2.056 1.216-1.1 2.511-2.893 2.296-5.438.197-.116.362-.217.501-.295q.156-.091.322-.165l.118-.047-.124.03a3 3 0 0 0-.353.124c-.299.127-.73.33-1.292.53q-1.013.375-2.065.628c-.402.101-.834.191-1.3.28a5.6 5.6 0 0 1-1.387.08 11.4 11.4 0 0 1-3.133-.676q-.831-.3-1.628-.674a14 14 0 0 1-.8-.411 6 6 0 0 1-.37-.223 1 1 0 0 1-.124-.087l-.038-.044a.6.6 0 0 0-.148-.098l.04-1.127s-.45.66-.738 1.127l-.214.055c0-.464-.02-1.182-.02-1.182l-.944 1.506-.272.101.075-1.317-.854 1.619c-.055.02-.11.043-.177.066v-1.21l-.834 1.566-.133.058v-.95l-.802 1.318q-.213.098-.426.206l-.078-.921-.904 1.439-.353.203.124-1.104-1.088 1.7c-.055.032-.11.058-.177.087V15.94l-.736 1.404c-.101.044-.202.09-.304.128l-.234-1.153-.866 1.546c-.104.035-.212.064-.319.099l-.188-1.181-1.303 1.604-.052.014-.214.05-.145-1.208-.985 1.45a10 10 0 0 1-.544.09q-.451.06-.907.058c-.121 0-.246-.014-.365-.037q.074-.14.177-.26.27-.319.585-.592.657-.566 1.376-1.062c.94-.66 1.87-1.251 2.725-1.828a191 191 0 0 0 4.031-2.838q.265-.193.492-.356c5.105-1.306 11.3-2.499 15.522-2.499q1.053 0 1.981.07l-.006.005c3.602.273 9.388 2.624 17.282 7.006.623.344 1.254.7 1.903 1.07q5.348 3.058 11.882 7.267z" fill="#87ac8a"/><path d="M145.749 36.58c-.125-.026-.264-.043-.409-.078l-.263-.066.26.07c.145.037.284.057.406.083q.22.048.446.07c.02 0 .037-.006.052-.009a5 5 0 0 1-.492-.07M89.48 80.354s-.322 3.493 1.971 5.531c2.178 1.94 3.748 5.03 3.872 6.247-.052-.846-.394-4.52-2.43-6.525-2.313-2.276-3.417-4.285-3.414-5.256zM61.63 29.008h.046l-.078.049.032-.043m-11.37 71.432v-.076l.018.079-.017-.006zm42.995-86.398c-.008-.018-.043-.058-.09-.122q.036.032.061.07.037.063.02.04m4.518 52.821a6.5 6.5 0 0 0-1.057-1.106 9 9 0 0 0-1.181-.837q-.569-.339-1.17-.62l-.27-.128c-.084-.043-.176-.08-.251-.121l-.209-.113-.188-.128a1.9 1.9 0 0 1-.539-.599 2 2 0 0 1-.226-.623 2.3 2.3 0 0 1-.046-.449v-.165a1 1 0 0 0-.084.148 2 2 0 0 0-.174 1.242c.07.354.226.69.46.974q.098.118.212.231l.243.212c.09.072.154.121.243.185l.25.182c.33.235.666.475 1.002.73.333.255.66.527.967.817q.456.427.825.924a4.5 4.5 0 0 1 .672 1.291l.046.136.032.136c.044.183.073.365.096.548q.044.543-.02 1.085-.075.51-.21 1.005a13 13 0 0 1-.132.452c-.047.145-.099.281-.142.408-.102.258-.185.484-.258.666-.072.183-.139.33-.177.435s-.06.156-.06.156l.13-.113c.081-.075.208-.185.353-.33s.319-.33.504-.564c.09-.116.177-.244.281-.374.104-.133.177-.287.278-.44s.177-.33.266-.504.151-.377.226-.57c.14-.435.218-.884.235-1.336a4.4 4.4 0 0 0-.217-1.47 4.8 4.8 0 0 0-.716-1.37m-23.911-8.002q.028.158.061.31.06.3.165.59.05.14.116.279c.043.09.075.18.125.26q.254.476.616.88.157.182.333.34.157.146.325.275c.107.08.2.165.3.223.102.058.186.116.267.165q.188.117.388.211l.142.07-.101-.116c-.064-.075-.168-.177-.284-.316l-.194-.229q-.096-.128-.214-.275a3 3 0 0 1-.223-.318 5 5 0 0 1-.605-1.202 7 7 0 0 1-.134-.475 5 5 0 0 1-.078-.504l-.026-.257c-.009-.093 0-.177 0-.267-.009-.177.017-.359.026-.541s.058-.365.078-.55.084-.368.128-.554c.043-.182.101-.353.159-.538s.136-.383.206-.57l.101-.273q.053-.147.101-.29c.064-.19.12-.385.177-.573.058-.188.095-.38.139-.562.043-.182.072-.368.101-.544q.043-.267.067-.521a6 6 0 0 0 .029-.496q.013-.43-.026-.857-.028-.33-.102-.66a2.6 2.6 0 0 0-.176-.547v.15c0 .099-.017.235-.035.411a7 7 0 0 1-.096.626c-.043.24-.107.507-.176.796l-.125.45c-.043.155-.095.312-.144.471-.05.16-.11.33-.177.495-.064.165-.127.34-.191.513-.064.174-.142.347-.215.527q-.057.132-.118.264c-.04.086-.078.188-.119.283-.075.186-.153.374-.226.562-.072.188-.133.42-.2.629-.066.208-.092.422-.136.634-.043.211-.06.431-.066.645a5 5 0 0 0 0 .646q.016.16.029.316m9.64 16.915s-2.438-4.286-1.723-6.89c0 0-2.111 4.121 1.723 6.89m7.995-31.163a1.2 1.2 0 0 0-.176-.24 1 1 0 0 0-.11-.096q-.001.072.02.14.035.144.11.272a1.3 1.3 0 0 0 .177.243q.05.052.11.095a.6.6 0 0 0-.02-.139 1 1 0 0 0-.11-.275m.283.342a.5.5 0 0 0 .084.075.53.53 0 0 0-.035-.321.6.6 0 0 0-.115-.188.3.3 0 0 0-.084-.073.5.5 0 0 0-.012.107q.002.11.043.212.045.1.12.188m.222-.22a.35.35 0 0 0 .018.237q.01.03.029.053a.3.3 0 0 0 .02-.056.34.34 0 0 0-.046-.287q-.014.027-.02.059m-8.74-9.962a6 6 0 0 1 .405-.093 2 2 0 0 1 .231-.046q.12-.024.247-.04.129-.023.257-.032c.09-.01.177-.024.273-.027q.282-.018.564-.011.287.01.574.05l.283.048.302.058q.308.058.605.093.295.034.567.046.257.014.513 0c.258-.006.516-.043.765-.104q.144-.035.272-.104a1.6 1.6 0 0 1-.284 0c-.09 0-.197-.012-.322-.026a11 11 0 0 1-.41-.058c-.302-.05-.65-.116-1.02-.197l-.568-.128-.298-.07-.324-.063a4.2 4.2 0 0 0-1.283.017 4 4 0 0 0-.565.134 4 4 0 0 0-.483.18q-.2.085-.386.193-.143.075-.278.165a2 2 0 0 0-.223.174s.099-.035.273-.087a9 9 0 0 1 .313-.087m5.629 8.112q.104-.066.2-.145.114-.082.214-.177.112-.096.212-.205c.072-.07.136-.148.202-.23.067-.08.125-.164.177-.24s.113-.165.165-.246q.14-.221.252-.457l.043-.093c.218.168.487.27.768.29.68.008.666-.411.651-1.049a2.7 2.7 0 0 0-.304-1.045l-.15-.68a.9.9 0 0 0 .703.017c.365-.188.996 1.22.527 2.015-.469.797.962 1.912.88.611-.08-1.303.733-2.227.936-2.646a1.75 1.75 0 0 0 .177-.782s1.181.133 1.384-.475c.206-.608-.51-1.135-2.152.292 1.234-2.438-.88-3.738-.88-3.738.405.483 1.12 3.191-.426 3.46-.952.165-1.242.084-1.381.223l-.365-1.647.185 2.53a1 1 0 0 0-.115-.11l-.87-1.879.412 1.578a2 2 0 0 0-.234-.08l-.88-1.402.393 1.242-.122-.055-.15-.067-.794-.923s.186.46.307.747a6 6 0 0 0-.266-.076l-.57-.495.254.411a5.3 5.3 0 0 0-1.283-.133c-.82.032-1.494.102-2.062.426s-.602.449-.96.66c-.357.209-1.11.394-1.243.678a1 1 0 0 1-.394.423c.353-.041.38-.218.617-.4q.436-.27.924-.452c-.105.57-.78.933-.78.933.568-.064.994-.678 1.194-1.017s.095-.31.527-.478c.434-.168.422-.124 1.164-.315.741-.189 3.052.547 3.208 1.343.157.797.542.84.542.84l-.339.423c-.026-.373-.104-.961-.353-1.074-.374-.165-.354.058-.646-.267-.295-.324-1.037-1.607-2.916-.59s-1.607 1.387-1.914 1.433-.299.339-.527.229c-.232-.11-.296-.25-.484-.145-.188.104-.234-.116-.353.07-.119.185.353.564.556.413.205-.15.692-.092 1.286.232.593.325 1.694.104 2.337.052.599-.049 1.665.698 2.287.475a.4.4 0 0 0 .194.194l-.15.194c-.073.096-.177.183-.26.281-.085.099-.2.188-.305.284a4 4 0 0 1-.353.272c-.125.09-.238.177-.354.255s-.243.165-.367.232c-.125.066-.24.139-.354.2-.113.06-.225.115-.324.165-.411.2-.704.31-.704.31s.304-.067.744-.215c.108-.038.23-.075.354-.124.124-.05.258-.096.388-.154s.272-.119.411-.182c.136-.064.275-.14.414-.212a5 5 0 0 0 .403-.24c.13-.084.257-.165.373-.258s.235-.176.33-.272c.096-.093.2-.18.281-.266s.15-.177.218-.25q.02-.025.037-.052a4 4 0 0 1-.055.174c-.02.058-.058.165-.09.25a2 2 0 0 1-.115.248c-.044.084-.084.165-.134.246a4 4 0 0 1-.147.23 2 2 0 0 1-.157.202 2 2 0 0 1-.153.174l-.142.139-.119.098-.104.087.124-.064.142-.072.177-.113m-1.069-2.569a6.5 6.5 0 0 0-1.407-.058l-.119.01-.19-.262-.065.287h-.072l-.223-.446-.107.484h-.029l-.16-.742s-.112.496-.156.707l-.037-.023c-.05-.33-.177-1.213-.177-1.213l-.101.923a1.9 1.9 0 0 1-.273-.556c-.034.336.053.675.25.959a4 4 0 0 1-.354 0 1.38 1.38 0 0 1-.84-.374c.247-.029.632-.518.829-.715s1.497-1.199 2.513-.987c1.017.208.715 2.01.715 2.01m11.757 2.788a.7.7 0 0 0 .053-.15 1 1 0 0 0-.136.092c-.174.15-.313.336-.406.541a.7.7 0 0 0-.046.151 1 1 0 0 0 .133-.093 1.5 1.5 0 0 0 .406-.541m.037.295a.4.4 0 0 0-.136.105.34.34 0 0 0-.075.147.2.2 0 0 0 0 .09.38.38 0 0 0 .298-.284c.026-.014.035-.046.017-.07-.014-.022-.049-.031-.075-.017a.05.05 0 0 0-.023.03m-.203-.78q.038-.126.047-.257a1.2 1.2 0 0 0-.223.156 2 2 0 0 0-.354.417 1.8 1.8 0 0 0-.225.495 1 1 0 0 0-.047.258q.119-.066.22-.157c.14-.121.26-.263.362-.416q.153-.233.226-.496" fill="#87ac8a"/><path d="M87.426 55.63c-.631.434-.782 1.676-.397 1.876.423.217.99-.895 1.138-1.103.102-.145.493-.197.811-.186q-.06.066-.133.154a4 4 0 0 0-.177.284 1 1 0 0 0-.15.115 2 2 0 0 0-.354.409 2 2 0 0 0-.176.31 3 3 0 0 0-.145.367c-.02.064-.035.136-.05.203q-.027.105-.037.212-.03.217-.02.44c0 .075 0 .147.017.22.018.072.026.145.038.217a2.5 2.5 0 0 0 .417.924l.116.136q.1.115.217.217a3 3 0 0 0 .37.252s0-.078-.028-.2c-.012-.058-.026-.133-.047-.211-.02-.078-.026-.165-.046-.267q-.034-.148-.052-.3c-.015-.105-.044-.212-.05-.331-.005-.116-.031-.223-.034-.342 0-.058 0-.116-.015-.174s0-.115 0-.176a2 2 0 0 1-.008-.185l.026.06c.017.038.043.07.06.105l.134.214q.155.208.333.4.183.19.397.35.213.163.443.301c.263.165.527.301.802.434a3 3 0 0 0-.177.322 6.4 6.4 0 0 0-.614 1.746 4.8 4.8 0 0 0-.078 1.28c.032.513.182 1.014.44 1.468q.217.38.542.69l.159.15.139.122.263.234c.354.33.704.66 1.034 1.005.33.348.655.7.956 1.06.301.356.582.724.828 1.089.46.646.814 1.352 1.048 2.1q.135.448.165.915 0 .105.012.202v.191c0 .116-.012.23-.026.342a5 5 0 0 1-.096.484l-.043.173.119-.139q.17-.205.295-.437.204-.365.304-.77c.087-.35.122-.713.107-1.072a5 5 0 0 0-.217-1.26 7 7 0 0 0-.544-1.317 10 10 0 0 0-.817-1.277 12.7 12.7 0 0 0-2.175-2.247l-.307-.244-.15-.11-.116-.092a2.3 2.3 0 0 1-.382-.4 2.9 2.9 0 0 1-.464-1.008 5.2 5.2 0 0 1-.162-1.077 9 9 0 0 1 0-.964c.015-.29.035-.547.055-.762.017-.127.03-.234.04-.33l.913.432c.295.144.576.283.831.44.463.263.86.62 1.158 1.042a3 3 0 0 1 .385.811q.04.11.061.223c.038.136.058.25.073.33l.023.116q.002-.001.026-.116.045-.16.058-.33.017-.12.017-.246.005-.146-.011-.293a2.5 2.5 0 0 0-.16-.7 2.9 2.9 0 0 0-.443-.76 4 4 0 0 0-.718-.677 7 7 0 0 0-.88-.553c-.304-.165-.62-.313-.924-.463s-.605-.293-.88-.443c-.136-.078-.272-.154-.394-.235a2 2 0 0 1-.177-.121c-.052-.04-.052-.035-.084-.058l-.092-.076c-.099-.084-.197-.188-.293-.28a3 3 0 0 1-.234-.302 1.78 1.78 0 0 1-.302-1.23 3 3 0 0 1 .105-.481c.034-.09.06-.165.087-.223h.011q.013.252.087.495.105.327.292.62.223.348.528.637c.104.104.231.191.353.292.121.102.263.174.402.264q.433.249.904.42l.217.08q.113.044.223.08l.223.077.2.078.202.076.2.087c.064.029.134.057.2.084l.191.09q.375.168.721.384c.116.064.212.145.322.209s.194.148.286.223q.13.108.252.232l.12.116.1.121q.188.223.336.472.121.2.22.411.088.184.128.284c.026.067.046.104.046.104l.026-.11q.04-.157.052-.318a2.6 2.6 0 0 0-.159-1.164q-.034-.088-.072-.18c-.026-.06-.064-.121-.093-.18a3 3 0 0 0-.229-.364c-.087-.122-.19-.232-.292-.354a2.6 2.6 0 0 0-.353-.33 4 4 0 0 0-.394-.295l-.209-.14-.22-.124-.22-.121a4 4 0 0 0-.232-.107 6 6 0 0 0-.472-.2l-.243-.09-.232-.067-.226-.066-.225-.067c-.134-.046-.275-.075-.403-.124-.127-.05-.26-.09-.385-.14a6 6 0 0 1-.353-.153 9 9 0 0 1-.33-.165 4.3 4.3 0 0 1-.562-.376c-.04-.032-.084-.064-.122-.099l-.11-.101c-.075-.064-.13-.136-.194-.2a1.6 1.6 0 0 1-.177-.223c.328.035.66-.009.965-.127q.313-.192.588-.435l-.053-.304-.278.272.053-.48-.446.559.298-.921-.828.813.62-1.056-1.058 1.056.962-1.68-1.312 1.414 1.312-2.236s-1.257 1.608-1.312 1.608c-.096 0-.02-.301.052-.6.023-.032.043-.058.07-.09.052-.063.104-.133.176-.202.122-.14.27-.29.432-.446.365-.345.782-.64 1.233-.88q.379-.201.788-.348.423-.152.863-.25l.47-.1h.072a1 1 0 0 1 .153.031q.196.07.385.157c.14.064.267.13.443.2q.086.034.177.055.034.007.07.011h.164l.053-.014.043-.018c.093-.04.153-.078.223-.113.133-.072.252-.147.37-.214.12-.066.232-.133.322-.18q.06.022.122.053c.217.098.42.188.596.272.177.084.34.153.47.214.176.075.289.125.353.154a3.7 3.7 0 0 1 .209.831q.03.264.022.53c0 .06 0 .11-.011.139-.012.029 0 .04 0 .04-.044.093-.087.186-.128.27a7 7 0 0 1-.269.495 2.5 2.5 0 0 1-.848-.081c-.704-.2-4.168-.122-3.837.321.266.362 1.329.133 1.902.301-.014.023-.029.04-.043.067a3 3 0 0 0-.134.26 3 3 0 0 0-.115.316c-.018.055-.032.113-.047.165a3.3 3.3 0 0 0-.09.556v.377q.008.178.038.353.029.158.081.307c.015.046.03.093.047.133q.026.06.058.116a1.2 1.2 0 0 0 .31.408v-1.552c0-.05 0-.101.011-.15 0-.102.017-.203.026-.304.009-.102.023-.2.029-.299s.02-.165.032-.246c0 .038 0 .07.017.11q.031.16.084.316c.035.113.084.231.136.356l.09.188q.044.097.104.188.114.194.244.377c.043.058.087.122.136.18q.075.086.15.165.14.16.307.303.145.132.31.24.073.055.145.1l.139.075c.078.04.162.078.243.113.075.026.136.04.188.055q.08.022.163.032s-.05-.064-.134-.157c-.043-.046-.092-.104-.147-.165-.055-.06-.116-.136-.177-.209s-.133-.147-.206-.234-.144-.165-.214-.258-.15-.176-.217-.275c-.038-.046-.07-.096-.11-.142s-.07-.098-.104-.145a4 4 0 0 1-.136-.194.56.56 0 0 0 .602.061c.724-.33 1.262.165 1.76-.026q.084.149.177.319c.104.188.223.402.342.637l.206.425-.035.067.08.035.012.026v.043c0 .154-.017.33-.037.495l-.044.273a2 2 0 0 1-.066.28 3 3 0 0 1-.365.814l-.084.128-.102.121-.095.125c-.038.038-.078.072-.116.113l-.113.116-.15.139a10 10 0 0 0-.837.895 5.7 5.7 0 0 0-.637.967 3.4 3.4 0 0 0-.252.66q-.045.151-.061.307a2 2 0 0 0-.017.284q.002.23.069.451.044.139.119.264l.055.087s0-.032.017-.099q.002-.044.02-.11c.012-.043.03-.092.044-.144.04-.122.09-.244.15-.357q.12-.212.273-.408l.084-.11.092-.11c.061-.075.133-.15.206-.229q.214-.231.472-.48l.527-.504c.188-.177.362-.342.565-.53l.139-.136.162-.174.156-.174q.07-.097.133-.194.066-.095.128-.194c.04-.067.066-.136.098-.206l.03-.07a4 4 0 0 1-.07.534c-.055.33-.133.66-.206 1.002s-.145.674-.206 1.008a6.4 6.4 0 0 0-.1 1.888q.042.387.176.758.113.283.295.53.113.157.26.287l.102.09s-.02-.044-.052-.122a3 3 0 0 1-.116-.339 3 3 0 0 1-.084-.527c-.008-.228 0-.454.035-.68q.155-.867.446-1.703c.096-.313.2-.64.292-.982.093-.342.186-.695.252-1.062.07-.383.093-.774.064-1.162a2 2 0 0 0-.046-.304l-.015-.064-.011-.049-.012-.035-.043-.136a4 4 0 0 0-.192-.518 6 6 0 0 0-.495-.9c-.017-.03-.037-.053-.055-.082.107-.257.255-.614.414-1.042.163-.429.354-.982.527-1.558q.06-.218.119-.443.06-.226.104-.458.104-.478.122-.961v-.246l-.026-.255v-.064l-.035-.06-.032-.114c-.011-.037-.017-.075-.031-.113l-.053-.118a2.9 2.9 0 0 0-.527-.811 8 8 0 0 0-.622-.634 28 28 0 0 1-.565-.545 4 4 0 0 1-.423-.495 1.5 1.5 0 0 1-.142-.232 1 1 0 0 1-.092-.208c-.02-.064-.044-.125-.055-.174-.012-.05-.015-.098-.02-.136-.012-.072-.015-.113-.015-.113s0 .04.009.113v.136c0 .055.026.113.043.18q.03.112.078.217.053.126.128.243.172.283.393.536c.16.185.342.38.527.582q.301.312.562.66.136.18.25.368.103.191.176.397c.098.28.127.579.087.874q-.052.453-.177.892c-.04.148-.09.293-.13.434l-.148.42a21 21 0 0 1-.62 1.483q-.166.367-.306.649l-.035-.044a10 10 0 0 0-.527-.556 4 4 0 0 0-.296-.26 1.4 1.4 0 0 0 .061-.814 5 5 0 0 0 .611-.486q.195-.183.365-.391a3 3 0 0 0 .33-.496 3 3 0 0 0 .142-.298q.052-.155.078-.316l.009-.08v-.32c0-.025-.012-.054-.014-.086l-.038-.174c-.012-.032-.03-.064-.044-.098-.014-.212-.153-.464-.321-.872a1.4 1.4 0 0 1-.032-.602c-.162.165-.15.46-.101.703l-.154-.188a17 17 0 0 1-.353-.42 5 5 0 0 1-.29-.388 1 1 0 0 1-.104-.185 2 2 0 0 1-.127-.339c-.015-.055-.015-.098-.02-.142a.8.8 0 0 1 0-.2 1 1 0 0 0-.024.2v.148c0 .052.02.11.032.165q.022.096.061.188.039.104.087.203.113.222.252.426c.095.15.203.3.307.457q.164.24.298.495.13.249.191.519l.012.121v.136l-.012.148v-.014.055l-.014.063a2 2 0 0 1-.087.244 2 2 0 0 1-.128.223 2.5 2.5 0 0 1-.318.385 4 4 0 0 1-.721.553c-.032-.081-.064-.165-.096-.226.052-.136.107-.295.177-.48a8 8 0 0 0 .249-.93q.054-.26.081-.542v-.295a1 1 0 0 0-.02-.165c-.012-.055-.02-.116-.035-.165a3 3 0 0 0-.24-.533c-.096-.165-.194-.313-.29-.458q-.145-.216-.263-.411a2 2 0 0 1-.186-.385 1 1 0 0 1-.052-.177 1 1 0 0 1-.02-.165v-.148l.029-.124a1 1 0 0 1 .07-.165q.029-.057.028-.058a.4.4 0 0 1-.037.055 1 1 0 0 0-.099.165c-.014.038-.035.078-.052.125a1 1 0 0 0-.029.335c0 .067.009.137.023.2q.047.222.133.435c.058.147.128.3.2.454s.145.313.206.472q.094.232.133.481v.191a5 5 0 0 0-.153-.35 4 4 0 0 0-.244-.426c-.087-.142-.194-.28-.29-.411-.2-.26-.396-.518-.564-.77a2.2 2.2 0 0 1-.353-.719.7.7 0 0 1 0-.312.9.9 0 0 1 .165-.374l.032-.05-.038.044a1 1 0 0 0-.101.133 1 1 0 0 0-.064.102 1 1 0 0 0-.055.127.76.76 0 0 0-.043.34c.034.28.121.552.263.804.136.278.301.565.46.846.079.145.154.275.218.417.043.092.075.185.11.275l-.238-.223a6 6 0 0 0-.385-.33c-.15-.122-.319-.267-.527-.411-.052-.038-.101-.076-.165-.113l-.055-.032-.035-.018-.026-.008h-.014l-.035-.009h-.139l-.055.015-.044.011q-.212.061-.417.145l-.396.156-.093.035h-.009c-.098-.055-.234-.136-.373-.217q-.226-.136-.475-.232a1.7 1.7 0 0 0-.313-.09 1 1 0 0 0-.197-.017h-.113l-.092.014c-.142.024-.325.05-.49.087q-.514.105-.999.296-.256.106-.504.234c.04-.058.084-.113.116-.165l.104-.2q.04-.103.07-.188.051-.14.078-.284l.026-.104-.055.096a2.3 2.3 0 0 1-.266.402l-.145.154q-.08.072-.177.145c-.064.049-.127.084-.191.124a1.3 1.3 0 0 1-.206.087l-.1.037-.102.024c-.067.017-.133.017-.191.029h-.044a1 1 0 0 1 .102-.14c.052-.057.1-.115.153-.173l.081-.09.087-.113q.162-.221.275-.463.107-.232.177-.475a4 4 0 0 0 .084-.458 2.5 2.5 0 0 0 0-.414 1.8 1.8 0 0 0-.145-.605 1 1 0 0 0-.093-.15l-.037-.05v.061q-.001.083-.012.165a3 3 0 0 1-.127.547q-.053.165-.12.348c-.043.122-.1.246-.155.373l-.096.192c-.038.06-.067.127-.101.188q-.11.181-.235.35l-.058.084-.078.093a1 1 0 0 0-.07.087l-.087.113a2 2 0 0 0-.263.469c-.058.15-.098.31-.119.469a2.3 2.3 0 0 0-.014.42q.012.174.052.347a2 2 0 0 0 .116.345 3.4 3.4 0 0 0-.212.449c-.136.234-.324.64-.567 1.005a1.2 1.2 0 0 1 .09-.826c.286-.6-.594-1.734-1.058-1.746 0 0 .73.495.687 1.242-.035.635-.38 1.139-.322 1.718-.59-.29-.952-1.251-.952-1.251a1.85 1.85 0 0 0 .651 1.69m8.028-3.903.026.009h-.023m-1.098-.11-.035.009zm-5.019 1.057a4 4 0 0 1 .096-.26 1.5 1.5 0 0 0 .28-.044q.097-.018.19-.052a4 4 0 0 0-.676.779v.008q.038-.185.116-.431m5.879-9.287c.336.02.625-2.8.625-2.8s-.964 2.774-.625 2.8m2.693 3.739c.223-1.744-1.64-4.139-1.034-5.314 0 0-.741.695 0 2.919.741 2.227.339 2.919-.469 3.13s-.88-.544-1.55 0c0 0 .606 0 .881.272.275.273 1.952.736 2.178-1.008m-4.744-1.3c.921.316 2.447-1.115 1.014-3.275 0 0-.655-.736-.765.397-.043.59.316 1.135-.11 1.491-.425.356-1.057 1.072-.136 1.387" fill="#87ac8a"/><path d="M90.542 47.837c.37.446.88 1.077 1.222 1.013 0 0 .16.568 0 .988-.16.422-.42.84.07 1.343a2.5 2.5 0 0 1 .469-1.662c.585-.776.422-1.097.422-1.097q.34-.204.722-.33c.405-.128 1.233-1.072.518-1.347-.715-.272-1.819-.209-2.201 1.051a1.1 1.1 0 0 1-.513.009l.052-.356-.292.26-.052-.032.177-.689-.38.472-.04-.07.223-.958-.325.64c-.156-.915 1.104-1.636.88-1.94a.32.32 0 0 0-.222-.107l-.597-1.043.353 1.049q-.12.023-.231.07l-.753-1.072.538 1.19c-.09.06-.17.136-.24.217l-.81-1.06s.495.962.654 1.318a1 1 0 0 0-.064.19c-.012.062-.017.117-.026.166l-1-1.202.974 1.74a.6.6 0 0 1-.078.322c-.194-.243-.927-1.164-.973-1.19-.047-.026.527 1.04.703 1.358-.017 0-.029.014-.049.017q-.039.013-.078.03l-.956-1.101.736 1.228c-.177.19.026.443.298.41.353-.042.492-.283.863.166m4.35 2.108c.469.064-.34-1.52-.34-1.52s-.132 1.454.34 1.52m1.39-8.459s-1.08 2.375-.753 2.5c.327.124.753-2.5.753-2.5m-.432-6.313c.012.015.026.03.047.067q.066.1.165.295a3.2 3.2 0 0 1 .26.713q.034.135.052.278c0 .092.015.188.015.28s-.012.183-.026.273q-.022.129-.07.255-.035.115-.095.223l-.11.182-.11.128c-.061.072-.102.113-.102.113l.14-.07.164-.081c.064-.032.122-.09.191-.142q.119-.087.215-.194.114-.117.203-.252.099-.144.176-.301c.052-.107.093-.22.133-.33s.07-.232.087-.348a4 4 0 0 0 .052-.341c.02-.206.03-.409.02-.614a7 7 0 0 0-.04-.443c0-.052-.017-.102-.026-.136s0-.044 0-.044c-.139-.347-.553-.524-.924-.397-.37.13-.562.519-.423.866l.02.03m.655 3.648c-.145-.087-.229-.89-.565-.6s-.272.826.142 1.115.423 1.127.435 1.28c.011.154.19.203.365.57.176.369.043.928.353.826.119-.038.145-.231.136-.463.243.165.81.457 1.709.275l-.13-.032-.088-.373-.127.312-.067-.02-.136-.516-.13.42-.055-.023-.084-.59-.177.474-.058-.031v-.782l-.315.59-.061-.04.22-.976-.495.727a2 2 0 0 1-.116-.148l.038-.064q.122-.196.272-.376.205-.256.463-.466c.188-.162.414-.281.66-.348q.185-.047.377-.035.192.015.368.082c.113.043.223.098.321.165.05.029.09.066.136.098q.066.047.122.101.108.09.2.195.079.078.144.165l.119.144-.101-.156a1.4 1.4 0 0 0-.125-.174 2 2 0 0 0-.176-.22 2 2 0 0 0-.113-.116 1.8 1.8 0 0 0-.455-.336 1.44 1.44 0 0 0-.874-.15c-.299.046-.58.156-.829.318q-.318.203-.585.464a4 4 0 0 0-.286.307.4.4 0 0 1 .075-.267c.255-.426 1.57-1.387 2.667-1.06 1.098.328 1.381 1.06 1.462.886.082-.173-.634-1.928-2.829-1.103 0 0-.55.281-.622 0-.073-.28-.383-.756-.672-.524s-.388.57-.527.484m-9.001 22.582q.074.181.142.376.145.404.24.825c.032.142.056.284.088.432.031.147.037.292.052.44s.014.316.026.472.011.33.04.518c.03.189.052.374.093.55q.024.132.06.264l.076.26q.152.51.391.988c.084.15.162.304.255.443.093.14.176.281.28.406.105.124.195.246.302.356l.153.165.16.148q.148.137.315.257.149.11.31.203.139.086.287.15.125.061.257.105.12.04.212.067l.162.028.133.02-.101-.08-.119-.093-.147-.14a2 2 0 0 1-.177-.176c-.058-.07-.125-.136-.177-.217s-.13-.165-.19-.255c-.062-.09-.131-.185-.192-.292-.029-.052-.064-.105-.096-.157-.031-.052-.058-.112-.086-.165a8 8 0 0 1-.495-1.15c-.038-.141-.093-.28-.134-.428-.037-.148-.08-.292-.11-.443l-.052-.226-.04-.229c-.035-.153-.05-.304-.067-.451s-.035-.33-.05-.487v-.116.015-.032l-.014-.14a9 9 0 0 0-.032-.277c-.029-.183-.075-.36-.116-.533a3 3 0 0 0-.176-.504 5.5 5.5 0 0 0-.45-.886c-.083-.133-.176-.26-.257-.376a4 4 0 0 0-.266-.33 6 6 0 0 0-.973-.895 3.5 3.5 0 0 0-.429-.273l.064.11c.04.07.096.177.176.31.079.134.157.296.25.478.092.183.194.391.29.617q.078.17.15.353m-.217 63.643c1.604-.768 3.698-1.503 5.389-1.078.631.165 1.937-.266 3.327-1.138a2.8 2.8 0 0 0 1.26-.912c1.89-1.558 3.579-3.883 3.466-6.623 0 0 1.584-1.332 1.425-2.945 0 0 3.666-2.473 2.542-3.148-1.12-.674-1.45-.029-1.937 1.02-.483 1.048-1.546 1.978-1.546 1.978s-.756 2.785-2.111 3.625c0 0-.643 2.424-1.97 4.19l-.338-.246.133.507a4 4 0 0 1-.238.272l-.541-.57.223.889q-.105.097-.214.185l-.745-.927.223 1.28a3 3 0 0 1-.284.148l-.738-1.152.087 1.366a1 1 0 0 1-.154.026l-.573-1.723s-.177.988-.313 1.7c-.063-.011-.127-.02-.194-.037a1 1 0 0 0-.124-.029c-.133-.805-.299-1.935-.299-1.935l-.162 1.813q-.204-.058-.39-.116l-.438-1.72-.28 1.457c-.146-.061-.276-.125-.397-.183l-.212-1.514-.353 1.167a2.8 2.8 0 0 1-.463-.42l-.145-2.065-.345 1.387a2.4 2.4 0 0 0-.686-.724c-1.09-.738-.64-2.253-1.106-3.295.312.046.634.009.926-.107 1.425-.597 1.697-1.503 2.818-1.023 1.12.481 6.513 3.058 7.48-.269 0 0 .362-1.063-1.393-.382-1.758.68-3.846-.938-5.117-1.561s-1.911.455-3.09.058c0 0-1.454-1.135-1.332-1.978s-.849-2.267-1.393-1.445c-.327.495-.284 1.41-.495 2.03l-.793-1.46v2.086h-.142l-.638-1.318-.561 1.031c-.07-.02-.136-.044-.209-.067l-.194-.698-.376.504c-.215-.069-.429-.145-.643-.211l-.223-.571-.226.435a6 6 0 0 0-.353-.09l-.244-.536-.315.432a3 3 0 0 0-.513-.026l-.177-.724-.692.854c-.133.02-.257.04-.379.052l-.177-1.416-1.158 1.341a1.4 1.4 0 0 1-.475-.241v-1.335l-.669.933c-.715-.246-1.731-.2-1.78.567-.059 1.017-.273 2.123-.968 1.584-.698-.538-2.51-2.684-3.055-1.584-.544 1.101 1.54 1.356 1.089 1.839-.455.484-1.153.391-1.816-1.222-.666-1.613-2.2-.53-1.483.354.513.619 1.64 1.152 2.39 1.772l-1.121 1.141c-.93-.66-1.506-.854-1.457-.151.099 1.434 3.31 5.172 5.282 6.249 1.972 1.078 6.302.426 8.36 2.039 2.06 1.616 2.94 3.374 4.544 2.609m-15.609-11.89c.299.22.528.507.672.837q.07.188.191.35l-1.033.689-.322-.257zm10.211 5.879-.119-.73-.353.785h-.023l-.446.089-.258-1.804-.816 1.995-.29.041-.452-2.939-1.262 2.942c-.055 0-.11-.02-.165-.032l-.918-3.565-1.153 2.679a9 9 0 0 1-.24-.165v-2.754l-1.187 1.813-.33-.296.167-1.978-1.17 1.092q-.205-.174-.396-.344l.156-1.399c.686.761 2.259 1.141 3.733-.475 1.76-1.929 6.36-1.361 7.966-.455.527.301 1.057.672 1.573 1.014-.102.553-.119 1.248.255 1.737.715.936 3.411 5.783 1.442 5.783-1.85 0-3.275-3.13-5.728-3.034m13.358 9.356s-.07.093-.205.235l-.177-.496-.058.721c-.09.084-.197.166-.315.264l-.313-.66-.113.941c-.084.052-.177.101-.26.148l-.435-1.011-.255 1.309a3 3 0 0 1-.272.072l-.284-1.184-.333 1.28c-.06 0-.119.011-.185.014h-.093l-.237-1.5-.354 1.437a3 3 0 0 1-.266-.067l-.255-1.257-.284 1.072c-.13-.052-.258-.11-.382-.165l-.223-.959s-.087.368-.177.759c-.15-.078-.298-.165-.443-.238a5 5 0 0 1-.153-1.045c.037-.107-.162.371-.333.79-.643-.33-1.127-.457-1.324.082-.463 1.265 1.104 2.041 2.951 2.337 1.85.295 3.872.165 4.622-.872s.704-2.572.142-1.998m-28.377-18.76c-1.36-.987-2.832-1.335-3.286-.782-.455.554.28 1.796 1.642 2.778 1.36.984 2.832 1.335 3.286.784s-.28-1.795-1.642-2.78m1.165-3.408s-2.112-1.952-3.299-1.008c-1.187.947-1.714-.521-3.252-1.393-1.538-.868-4.486-.063-2.684 1.199 1.8 1.263 2.64-.093 3.651 1.428 1.011 1.523 2.465 1.031 3.299.391s1.002 1.317 2.898 2.062c1.894.744 1.85-2.132-.61-2.685m12.608-7.683q.743.567 1.572 1.011a8 8 0 0 0 .574.27c.145.057.229.086.229.086s-.047-.072-.137-.19a8 8 0 0 0-.402-.47 11 11 0 0 0-1.381-1.23 11.5 11.5 0 0 0-1.573-1.011 9 9 0 0 0-.573-.27c-.142-.06-.229-.087-.229-.087s.046.076.139.195c.093.118.232.28.403.466.422.446.886.857 1.38 1.23m.021-2.345c.266.443.58.863.933 1.25q.525.589 1.164 1.07.217.16.452.3c.112.067.185.102.185.102a5 5 0 0 0-.319-.651 8.3 8.3 0 0 0-2.097-2.322 5 5 0 0 0-.451-.302 2 2 0 0 0-.177-.102s.023.07.076.189c.052.115.133.278.24.463m1.01-.64c.203.373.452.724.742 1.042.287.322.61.611.973.858q.185.128.388.228.077.045.16.076a3 3 0 0 0-.229-.562 5.2 5.2 0 0 0-.745-1.043 5.4 5.4 0 0 0-.973-.854 3 3 0 0 0-.547-.307s.014.06.052.165q.076.201.177.394m1.549.087c.13.292.307.565.527.805a2 2 0 0 0 .368.316q.014-.066.02-.136.018-.165 0-.33a2.9 2.9 0 0 0-.243-.916 3.1 3.1 0 0 0-.527-.808 2.4 2.4 0 0 0-.252-.234 1 1 0 0 0-.113-.081 1 1 0 0 0-.02.133 2 2 0 0 0 0 .33q.048.476.243.915m.796-8.033c.319.29.675.544 1.057.759.38.217.788.388 1.214.515a3.4 3.4 0 0 0 .622.119s-.037-.055-.104-.136a4 4 0 0 0-.304-.319 5.4 5.4 0 0 0-1.057-.756 6 6 0 0 0-1.213-.515 4 4 0 0 0-.623-.122q.048.071.104.136.14.17.304.319m.649-1.399a4 4 0 0 0 1.859 1.04q.187.045.376.064h.154s-.026-.05-.078-.122a3 3 0 0 0-.235-.28 4.05 4.05 0 0 0-1.862-1.04 3 3 0 0 0-.376-.061 1 1 0 0 0-.154 0 1 1 0 0 0 .081.121q.105.152.235.281m.362-1.544q.065.122.153.23c.165.194.368.356.597.474.229.122.48.2.744.23q.145.012.29 0c.029 0 .058-.007.087-.01h.031l-.011-.026c0-.017-.02-.046-.038-.075a1.5 1.5 0 0 0-.153-.229 1.9 1.9 0 0 0-.597-.475 2.1 2.1 0 0 0-.744-.228 2 2 0 0 0-.29 0q-.044.002-.084.008h-.034s.008.018.011.03c0 .017.02.046.038.075M72.3 107.06c.768.625 4.009 1.471 4.944-.469.936-1.938 3.212-1.628 4.929-1.376 1.717.249 4.257-1.564 1.52-2.563-2.74-.999-6.058 1.35-7.471 3.053s-3.854.26-4.558-.614c0 0-1.263-.97-1.315 0s1.179 1.343 1.952 1.978M89.054 70.36s-2.642-.836-3.809-4.818c0 0-1.057 3.57 3.808 4.819m-3.341 10.793c1.615.932 2.968 2.635 3.06 3.225 0 0-.558-2.444-2.215-3.504-1.653-1.06-2.548-2.082-2.655-2.614 0 0 .185 1.963 1.804 2.892m65.733-41.205a.436.436 0 0 0 .159-.622.5.5 0 0 0-.666-.148.44.44 0 0 0-.168.608c.139.22.44.293.675.165m-.319-.562a.21.21 0 0 1 .278.058.186.186 0 0 1-.098.25.2.2 0 0 1-.267-.032.17.17 0 0 1 .035-.25.4.4 0 0 1 .055-.028m-7.15.915v.034q-.007.036-.011.07a.2.2 0 0 0 0 .084q.009.048.043.084c.058.05.136.075.217.067a.4.4 0 0 0 .137-.027.3.3 0 0 0 .115-.066 5 5 0 0 1-.509-.24m.492-.131-.029-.026-.035-.023a.4.4 0 0 0-.072-.044l-.081-.034-.09-.026a1 1 0 0 0-.177-.038l-.052-.009h-.133a1 1 0 0 0-.177.026l-.043.012h.026q.127 0 .24.058c.128.066.273.13.42.194q.143.06.299.121a.2.2 0 0 0 0-.083.3.3 0 0 0-.076-.122" fill="#87ac8a"/></svg>
